<?xml version="1.0" encoding="UTF-8"?>
<svg width="12px" height="12px" viewBox="0 0 12 12" version="1.1" xmlns="http://www.w3.org/2000/svg" xmlns:xlink="http://www.w3.org/1999/xlink">
    <title>iconarrow</title>
    <g id="切图" stroke="none" stroke-width="1" fill="none" fill-rule="evenodd">
        <g id="智慧停车管理平台-鼠标经过" transform="translate(-1091.000000, -615.000000)">
            <g id="气泡" transform="translate(951.000000, 597.000000)">
                <g id="btn" transform="translate(130.000000, 0.000000)">
                    <g id="iconarrow" transform="translate(10.000000, 18.000000)">
                        <polygon id="Fill-1" points="0 12 12 12 12 0.000375 0 0.000375"></polygon>
                        <g id="编组" transform="translate(0.750000, 0.750000)" fill="#656565">
                            <path d="M5.37334091,5.26834091 C5.44459091,5.19879545 5.49879545,5.11697727 5.53390909,5.02663636 C5.54856818,4.99084091 5.55334091,4.95845455 5.55640909,4.93902273 L5.56390909,4.90629545 C5.57209091,4.87254545 5.58368182,4.82720455 5.58368182,4.77197727 C5.58368182,4.71640909 5.57209091,4.67106818 5.56356818,4.63731818 L5.55640909,4.60629545 C5.55334091,4.58686364 5.54822727,4.55515909 5.53390909,4.51936364 C5.49811364,4.42765909 5.44459091,4.34584091 5.373,4.27527273 L1.24459091,0.264818182 C0.972545455,-0.00347727273 0.540954545,-0.00961363636 0.261409091,0.250840909 L0.256636364,0.255272727 C0.128113636,0.382772727 0.0568636364,0.552545455 0.0558409091,0.733568182 C0.0551590909,0.91425 0.124704545,1.08470455 0.251863636,1.21288636 C0.258,1.21936364 0.264136364,1.22515909 0.267886364,1.22856818 L3.91425,4.77129545 L0.270272727,8.31129545 C0.138,8.43470455 0.0616363636,8.60243182 0.0558409091,8.78345455 C0.0497045455,8.96413636 0.114477273,9.13629545 0.237886364,9.26822727 C0.244022727,9.27470455 0.250159091,9.28118182 0.260045455,9.29106818 C0.395727273,9.41856818 0.571295455,9.48197727 0.746181818,9.48197727 C0.927204545,9.48197727 1.10788636,9.41413636 1.24254545,9.27947727 L5.373,5.26868182 L5.37334091,5.26834091 Z" id="Fill-2"></path>
                            <path d="M9.45760227,4.63711364 L9.45044318,4.60609091 C9.447375,4.587 9.44226136,4.55529545 9.42794318,4.51984091 C9.39282955,4.42779545 9.33930682,4.34597727 9.26771591,4.27506818 L5.13828409,0.263590909 C4.86623864,-0.00334090909 4.43464773,-0.00879545455 4.15578409,0.251318182 L4.15067045,0.256090909 C3.88544318,0.519613636 3.88407955,0.950181818 4.14760227,1.21540909 C4.15305682,1.22086364 4.15885227,1.22631818 4.16430682,1.23177273 L7.80828409,4.77143182 L4.16396591,8.31245455 C4.02828409,8.43995455 3.95226136,8.61177273 3.94919318,8.79586364 C3.94646591,8.98029545 4.017375,9.1545 4.14896591,9.28643182 L4.15373864,9.29086364 C4.28498864,9.41495455 4.45680682,9.48279545 4.63851136,9.48279545 C4.64226136,9.48279545 4.64567045,9.48279545 4.64907955,9.48245455 C4.83282955,9.47972727 5.01146591,9.40438636 5.13589773,9.27859091 L9.26771591,5.26540909 C9.33692045,5.19756818 9.39010227,5.11779545 9.42521591,5.02881818 C9.443625,4.98790909 9.44907955,4.95143182 9.45180682,4.92859091 L9.45623864,4.91052273 C9.46510227,4.87609091 9.47805682,4.82870455 9.47805682,4.77143182 C9.47805682,4.71586364 9.46578409,4.67052273 9.45760227,4.63711364" id="Fill-4"></path>
                        </g>
                    </g>
                </g>
            </g>
        </g>
    </g>
</svg>