<?xml version="1.0" encoding="UTF-8"?>
<svg width="28px" height="28px" viewBox="0 0 28 28" version="1.1" xmlns="http://www.w3.org/2000/svg" xmlns:xlink="http://www.w3.org/1999/xlink">
    <title>iconp</title>
    <defs>
        <polygon id="path-1" points="0 0.0007 28 0.0007 28 28 0 28"></polygon>
    </defs>
    <g id="切图" stroke="none" stroke-width="1" fill="none" fill-rule="evenodd">
        <g id="智慧停车管理平台备份-2" transform="translate(-1018.000000, -653.000000)">
            <g id="Bitmap" transform="translate(445.000000, 415.000000)">
                <g id="iconp" transform="translate(573.000000, 238.000000)">
                    <path d="M24.7457,14.0061 C24.7457,19.8861 19.9797,24.6521 14.0997,24.6521 C8.2207,24.6521 3.4537,19.8861 3.4537,14.0061 C3.4537,8.1271 8.2207,3.3601 14.0997,3.3601 C19.9797,3.3601 24.7457,8.1271 24.7457,14.0061" id="Fill-1" fill="#FFFFFF"></path>
                    <g id="编组">
                        <mask id="mask-2" fill="white">
                            <use xlink:href="#path-1"></use>
                        </mask>
                        <g id="Clip-4"></g>
                        <path d="M15.609,10.1697 L12.553,10.1697 L12.553,13.2267 L15.609,13.2267 C16.9,13.2267 17.135,12.8887 17.135,11.6977 C17.135,10.5067 17.208,10.1697 15.914,10.1697 L15.609,10.1697 Z M14,0.0007 C6.267,0.0007 0,6.2657 0,13.9997 C0,21.7307 6.267,28.0007 14,28.0007 C21.733,28.0007 28,21.7307 28,13.9997 C28,6.2657 21.733,0.0007 14,0.0007 L14,0.0007 Z M15.609,16.2827 L12.553,16.2827 L12.553,22.3927 L9.498,22.3927 L9.498,7.1167 L15.609,7.1167 C18.626,7.1167 20.095,9.2147 20.095,11.6977 C20.095,14.1817 18.938,16.2797 15.917,16.2797 L15.609,16.2797 L15.609,16.2827 Z" id="Fill-3" fill="#0057D0" mask="url(#mask-2)"></path>
                    </g>
                    <path d="M26.0553,14.0774 C26.0553,20.7054 20.6823,26.0774 14.0553,26.0774 C7.4283,26.0774 2.0553,20.7054 2.0553,14.0774 C2.0553,7.4504 7.4283,2.0774 14.0553,2.0774 C20.6823,2.0774 26.0553,7.4504 26.0553,14.0774 Z" id="Stroke-5" stroke="#FFFFFF"></path>
                </g>
            </g>
        </g>
    </g>
</svg>