<?xml version="1.0" encoding="UTF-8"?>
<svg width="36px" height="36px" viewBox="0 0 36 36" version="1.1" xmlns="http://www.w3.org/2000/svg" xmlns:xlink="http://www.w3.org/1999/xlink">
    <title>iconp2</title>
    <g id="切图" stroke="none" stroke-width="1" fill="none" fill-rule="evenodd">
        <g id="智慧停车管理平台-鼠标经过" transform="translate(-959.000000, -603.000000)">
            <g id="气泡" transform="translate(951.000000, 597.000000)">
                <g id="iconp2" transform="translate(8.000000, 6.000000)">
                    <g id="编组" transform="translate(2.250000, 2.250000)">
                        <path d="M31.4784,5.24925 C31.4784,2.35125 29.1294,0.00225 26.2314,0.00225 L5.24565,0.00225 C2.34765,0.00225 -0.000225,2.35125 -0.000225,5.24925 L-0.000225,26.233875 C-0.000225,29.131875 2.34765,31.480875 5.24565,31.480875 L26.2314,31.480875 C29.1294,31.480875 31.4784,29.131875 31.4784,26.233875 L31.4784,5.24925 Z" id="Fill-2" fill="#0057D0"></path>
                        <path d="M28.851525,25.3135125 C28.851525,27.2901375 27.249525,28.8910125 25.274025,28.8910125 L6.167025,28.8910125 C4.191525,28.8910125 2.589525,27.2901375 2.589525,25.3135125 L2.589525,6.2065125 C2.589525,4.2310125 4.191525,2.6290125 6.167025,2.6290125 L25.274025,2.6290125 C27.249525,2.6290125 28.851525,4.2310125 28.851525,6.2065125 L28.851525,25.3135125 Z" id="Fill-4" fill="#FFFFFF"></path>
                        <path d="M15.1630875,11.8531125 C15.1630875,12.8397375 14.2225875,13.8173625 13.2258375,13.8691125 L9.5110875,13.8691125 L9.5110875,9.8764875 L13.2179625,9.8764875 C14.2360875,9.9237375 15.1630875,10.8664875 15.1630875,11.8531125 M13.6218375,6.6432375 C13.4924625,6.6432375 13.3687125,6.6522375 13.2393375,6.6612375 L8.8765875,6.6612375 L8.5165875,6.6713625 L6.2778375,6.6713625 L6.2778375,25.2709875 L9.5110875,25.2709875 L9.5110875,17.1023625 L13.2145875,17.1023625 C13.3630875,17.1192375 13.4092125,17.1192375 13.5228375,17.1192375 L13.6218375,17.1181125 C16.5513375,17.1181125 18.9352125,14.7679875 18.9352125,11.8801125 C18.9352125,8.9933625 16.5513375,6.6432375 13.6218375,6.6432375" id="Fill-6" fill="#0057D0"></path>
                        <path d="M22.70025,19.8862875 L17.59275,19.8862875 C17.59275,19.8862875 17.465625,19.8997875 17.503875,19.7580375 C17.5365,19.6387875 17.753625,18.7117875 17.84925,18.3900375 C17.88975,18.2786625 18.14625,17.9479125 18.446625,17.9670375 L21.846375,17.9670375 C22.14675,17.9479125 22.40325,18.2786625 22.442625,18.3900375 C22.539375,18.7117875 22.7565,19.6387875 22.789125,19.7580375 C22.827375,19.8997875 22.70025,19.8862875 22.70025,19.8862875 M24.6915,20.5095375 C24.611625,20.3497875 24.393375,20.1686625 24.393375,20.1686625 L23.491125,17.7555375 C23.304375,17.2976625 22.75425,17.0569125 22.5135,17.0569125 L17.7795,17.0569125 C17.53875,17.0569125 16.988625,17.2976625 16.80075,17.7555375 L15.899625,20.1686625 C15.899625,20.1686625 15.681375,20.3497875 15.6015,20.5095375 C15.521625,20.6670375 15.435,20.8076625 15.435,21.8786625 C15.435,22.9215375 15.64425,23.2927875 15.894,23.4221625 L16.092,23.5324125 L16.092,24.5021625 C16.092,24.8160375 16.16625,24.9094126 16.464375,24.9094126 L17.13375,24.9094126 C17.431875,24.9094126 17.63325,24.9105375 17.63325,24.5966625 L17.63325,23.6550375 L22.65975,23.6550375 L22.65975,24.5966625 C22.65975,24.9105375 22.861125,24.9094126 23.15925,24.9094126 L23.828625,24.9094126 C24.12675,24.9094126 24.201,24.8160375 24.201,24.5021625 L24.201,23.5324125 L24.399,23.4221625 C24.64875,23.2927875 24.859125,22.9215375 24.859125,21.8786625 C24.859125,20.8076625 24.771375,20.6670375 24.6915,20.5095375" id="Fill-8" fill="#0057D0"></path>
                        <path d="M17.1972,22.3813125 C16.876575,22.3813125 16.615575,22.1135625 16.615575,21.7850625 C16.615575,21.4565625 16.876575,21.1876875 17.1972,21.1876875 C17.517825,21.1876875 17.778825,21.4565625 17.778825,21.7850625 C17.778825,22.1135625 17.517825,22.3813125 17.1972,22.3813125" id="Fill-10" fill="#FFFFFF"></path>
                        <path d="M20.931525,22.71195 L19.361025,22.71195 C19.2744,22.71195 19.20465,22.6422 19.20465,22.55445 C19.20465,22.467825 19.2744,22.398075 19.361025,22.398075 L20.931525,22.398075 C21.01815,22.398075 21.089025,22.467825 21.089025,22.55445 C21.089025,22.6422 21.01815,22.71195 20.931525,22.71195" id="Fill-12" fill="#FFFFFF"></path>
                        <path d="M20.931525,22.083525 L19.361025,22.083525 C19.2744,22.083525 19.20465,22.013775 19.20465,21.926025 C19.20465,21.8394 19.2744,21.76965 19.361025,21.76965 L20.931525,21.76965 C21.01815,21.76965 21.089025,21.8394 21.089025,21.926025 C21.089025,22.013775 21.01815,22.083525 20.931525,22.083525" id="Fill-14" fill="#FFFFFF"></path>
                        <path d="M20.931525,21.4551 L19.361025,21.4551 C19.2744,21.4551 19.20465,21.38535 19.20465,21.2976 C19.20465,21.210975 19.2744,21.141225 19.361025,21.141225 L20.931525,21.141225 C21.01815,21.141225 21.089025,21.210975 21.089025,21.2976 C21.089025,21.38535 21.01815,21.4551 20.931525,21.4551" id="Fill-16" fill="#FFFFFF"></path>
                        <path d="M23.1177375,22.3813125 C22.7971125,22.3813125 22.5361125,22.1135625 22.5361125,21.7850625 C22.5361125,21.4565625 22.7971125,21.1876875 23.1177375,21.1876875 C23.4383625,21.1876875 23.6993625,21.4565625 23.6993625,21.7850625 C23.6993625,22.1135625 23.4383625,22.3813125 23.1177375,22.3813125" id="Fill-18" fill="#FFFFFF"></path>
                    </g>
                </g>
            </g>
        </g>
    </g>
</svg>