<?xml version="1.0" encoding="UTF-8"?>
<svg width="14px" height="14px" viewBox="0 0 14 14" version="1.1" xmlns="http://www.w3.org/2000/svg" xmlns:xlink="http://www.w3.org/1999/xlink">
    <title>形状结合</title>
    <g id="切图" stroke="none" stroke-width="1" fill="none" fill-rule="evenodd">
        <g id="智慧停车管理平台备份-2" transform="translate(-44.000000, -108.000000)" fill="#1398FF">
            <g id="支付方式" transform="translate(44.000000, 104.000000)">
                <path d="M4,14 L4,18 L0,18 L0,14 L4,14 Z M9,14 L9,18 L5,18 L5,14 L9,14 Z M14,14 L14,18 L10,18 L10,14 L14,14 Z M4,9 L4,13 L0,13 L0,9 L4,9 Z M9,9 L9,13 L5,13 L5,9 L9,9 Z M14,9 L14,13 L10,13 L10,9 L14,9 Z M4,4 L4,8 L0,8 L0,4 L4,4 Z M9,4 L9,8 L5,8 L5,4 L9,4 Z M14,4 L14,8 L10,8 L10,4 L14,4 Z" id="形状结合"></path>
            </g>
        </g>
    </g>
</svg>