<?xml version="1.0" encoding="iso-8859-1"?>
<!-- Generator: Adobe Illustrator 21.0.0, SVG Export Plug-In . SVG Version: 6.00 Build 0)  -->
<svg version="1.1" id="&#x56FE;&#x5C42;_1" xmlns="http://www.w3.org/2000/svg" xmlns:xlink="http://www.w3.org/1999/xlink" x="0px"
	 y="0px" viewBox="0 0 2000 2000" style="enable-background:new 0 0 2000 2000;" xml:space="preserve">
<g>
	<path style="fill:#396BB4;" d="M677,999.879c0,178.324,144.559,322.883,322.879,322.883c178.324,0,322.883-144.559,322.883-322.883
		c0-178.32-144.559-322.879-322.883-322.879C821.559,677,677,821.559,677,999.879L677,999.879z M677,999.879"/>
	<path style="fill:#FFFFFF;" d="M1044.441,1162.762c-11.121,0-18.961-1.762-23.441-5.364c-4.48-3.597-6.801-10.238-6.801-20
		c0-3.918,0.723-9.597,2.082-17.277c1.36-7.601,2.957-14.32,4.719-20.32l21.441-73.762c2.161-7.277,3.598-14.801,4.321-22.32
		c0.797-8.078,1.117-13.758,1.117-17.039c0-15.602-5.68-28.16-16.879-37.918c-11.199-9.684-27.199-14.563-47.922-14.563
		c-11.519,0-23.758,2-36.637,6c-12.882,4-26.32,8.801-40.48,14.321l-5.68,22.8c4.16-1.601,9.199-3.121,15.039-4.8
		c5.758-1.758,11.52-2.559,17.121-2.559c11.36,0,18.957,1.84,23.039,5.598c4,3.679,6.079,10.32,6.079,19.839
		c0,5.204-0.637,10.961-2,17.364c-1.278,6.316-2.957,13.039-4.879,20.16l-21.602,74c-1.918,7.758-3.277,14.797-4.156,20.879
		c-0.883,6.16-1.281,12.238-1.281,18.16c0,15.199,5.757,27.758,17.359,37.68c11.52,9.918,27.762,14.8,48.641,14.8
		c13.679,0,25.519-1.761,35.757-5.203c10.321-3.437,24-8.476,41.282-15.039l5.761-22.801c-4.64,1.922-9.441,3.442-14.32,4.723
		C1056.359,1161.801,1050.359,1162.68,1044.441,1162.762L1044.441,1162.762z M1066.922,812.762
		c-9.844-9.043-22.801-13.922-36.16-13.684c-14.082,0-26.16,4.481-36.242,13.684c-9.68,8.238-15.282,20.316-15.2,33.039
		c0,12.801,5.121,23.758,15.2,32.801c10,9.039,22.16,13.597,36.242,13.597c14.078,0,26.16-4.48,36.16-13.597
		c9.598-8.243,15.117-20.243,15.039-32.801C1082.039,833,1076.602,820.922,1066.922,812.762L1066.922,812.762z M1066.922,812.762"/>
</g>
</svg>
