<svg width="72px" height="72px" viewBox="0 0 72 72" version="1.1" xmlns="http://www.w3.org/2000/svg" xmlns:xlink="http://www.w3.org/1999/xlink">
    <title>icon/park</title>
    <g id="页面-1" stroke="none" stroke-width="1" fill="none" fill-rule="evenodd">
        <g id="智能停车" transform="translate(-12.000000, -15.000000)">
            <g id="icon/park" transform="translate(12.000000, 15.000000)">
                <polygon id="Fill-1" fill="#3530C8" points="0 72 72 72 72 0 0 0"></polygon>
                <g id="编组" transform="translate(3.428571, 4.285714)" fill="#FFFFFF">
                    <path d="M23.9319264,25.8452993 L9.2015967,25.8452993 L9.2015967,9.01177973 L23.932289,9.01177973 C28.2382451,9.21181963 32.1855527,13.1113408 32.1855527,17.3585076 C32.1855527,21.6056744 28.2378824,25.6434637 23.9319264,25.8452993 M43.1952231,17.4569114 C43.1952231,7.83452514 35.1958055,0.034764565 25.3273549,0.034764565 C24.8780473,0.034764565 24.4370802,0.0681644054 23.9957505,0.100127694 L8.21195934,0.100127694 L8.21195934,0.133168396 L0.136387912,0.133168396 L0.136387912,63.9997686 L9.2015967,63.9997686 L9.2015967,34.8233919 L23.932289,34.8233919 C24.6238385,34.9020431 24.6154978,34.8794174 25.3277176,34.8794174 C35.1961681,34.8790583 43.1952231,27.080016 43.1952231,17.4569114" id="Fill-2"></path>
                    <path d="M59.5784176,55.4061692 C58.1467253,55.4061692 56.9801209,54.2490263 56.9801209,52.8343815 C56.9801209,51.4165044 58.1467253,50.2625938 59.5784176,50.2625938 C61.0086593,50.2625938 62.1741758,51.4165044 62.1741758,52.8343815 C62.1741758,54.2493855 61.0086593,55.4061692 59.5784176,55.4061692 M38.2234286,55.4061692 C36.7902857,55.4061692 35.6251319,54.2490263 35.6251319,52.8343815 C35.6251319,51.4165044 36.7902857,50.2625938 38.2234286,50.2625938 C39.654033,50.2625938 40.8188245,51.4165044 40.8188245,52.8343815 C40.8195495,54.2493855 39.6543956,55.4061692 38.2234286,55.4061692 M37.8738462,46.049186 C38.0087473,45.5614765 38.9120769,41.7395291 39.3120659,40.4153871 C39.4767033,39.9578452 40.5461209,38.5952753 41.7935934,38.6728492 L55.9281099,38.6728492 C57.1748571,38.5949162 58.2453626,39.957486 58.4070989,40.4153871 C58.8089011,41.7395291 59.7107802,45.5614765 59.8474945,46.049186 C60.0085055,46.6284757 59.4772418,46.5778372 59.4772418,46.5778372 L38.2444615,46.5778372 C38.2444615,46.5774781 37.7117473,46.6284757 37.8738462,46.049186 M65.2526044,48.275842 C64.9661209,47.7080447 64.1773846,47.0615962 64.1773846,47.0615962 L60.9263407,38.4422825 C60.2514725,36.8085634 58.2645824,35.9466321 57.3978791,35.9466321 L40.3234615,35.9466321 C39.456033,35.9466321 37.4705934,36.8085634 36.7953626,38.4422825 L33.5435934,47.0615962 C33.5435934,47.0615962 32.7566703,47.7080447 32.4676484,48.275842 C32.178989,48.8411253 31.8645824,49.3471508 31.8645824,53.1680208 C31.8645824,56.8958739 32.6195934,58.220016 33.5218352,58.6797127 L34.2355055,59.0794334 L34.2355055,62.5400878 C34.2355055,63.661676 34.5042198,63.9956746 35.5808901,63.9956746 L37.9953297,63.9956746 C39.0705495,63.9956746 39.7954615,63.999984 39.7954615,62.8783958 L39.7954615,59.5121947 L57.9258791,59.5121947 L57.9258791,62.8783958 C57.9258791,63.999984 58.6497033,63.9956746 59.7249231,63.9956746 L62.1400879,63.9956746 C63.216033,63.9956746 63.4847473,63.661676 63.4847473,62.5400878 L63.4847473,59.0794334 L64.1984176,58.6797127 C65.1013846,58.2203751 65.8556703,56.8965922 65.8571212,53.1680208 C65.8574835,49.3471508 65.5427143,48.8411253 65.2526044,48.275842" id="Fill-4"></path>
                </g>
            </g>
        </g>
    </g>
</svg>
