<?xml version="1.0" encoding="utf-8"?>
<!-- Generator: Adobe Illustrator 24.0.0, SVG Export Plug-In . SVG Version: 6.00 Build 0)  -->
<svg version="1.1" id="图层_1" xmlns="http://www.w3.org/2000/svg" xmlns:xlink="http://www.w3.org/1999/xlink" x="0px" y="0px"
	 viewBox="0 0 133 93" style="enable-background:new 0 0 133 93;" xml:space="preserve">
<style type="text/css">
	.st0{fill-rule:evenodd;clip-rule:evenodd;fill:#098D97;stroke:#3CD5E5;stroke-width:3;}
	.st1{fill-rule:evenodd;clip-rule:evenodd;fill:#091830;}
	.st2{fill-rule:evenodd;clip-rule:evenodd;fill:#0C7454;}
	.st3{fill:none;stroke:#3CD5E5;stroke-width:0.72;stroke-linecap:round;stroke-linejoin:round;}
	.st4{fill:none;stroke:#3CD5E5;stroke-linecap:round;stroke-linejoin:round;}
	.st5{fill-rule:evenodd;clip-rule:evenodd;fill:#07172F;stroke:#3CD5E5;}
</style>
<title>临时停车场</title>
<path id="矩形" class="st0" d="M7.5,14.5h105c3.3,0,6,2.7,6,6v65c0,3.3-2.7,6-6,6H7.5c-3.3,0-6-2.7-6-6v-65
	C1.5,17.2,4.2,14.5,7.5,14.5z"/>
<path id="Fill-1375" class="st1" d="M19,74.3V56.7l0.1-0.9c0.3-1.6,1.6-2.9,3.3-3.3l0.9-0.1h76.8l1,0.1c2,0.4,3.5,2.2,3.5,4.2v17.6
	l-0.1,0.9c-0.3,1.6-1.6,2.9-3.3,3.3l-0.9,0.1H23.4l-1-0.1c-1.6-0.3-2.9-1.6-3.3-3.3L19,74.3z"/>
<polygon id="Fill-1404" class="st2" points="23.2,65.1 28.6,65.1 28.6,53 23.2,53 "/>
<polygon id="Stroke-1405" class="st3" points="23.2,65.1 28.6,65.1 28.6,53 23.2,53 "/>
<polygon id="Fill-1406" class="st2" points="28.6,65.1 34.2,65.1 34.2,53 28.6,53 "/>
<polygon id="Stroke-1407" class="st3" points="28.6,65.1 34.2,65.1 34.2,53 28.6,53 "/>
<polygon id="Fill-1408" class="st2" points="34.2,65.1 39.6,65.1 39.6,53 34.2,53 "/>
<polygon id="Stroke-1409" class="st3" points="34.2,65.1 39.6,65.1 39.6,53 34.2,53 "/>
<polygon id="Fill-1410" class="st2" points="39.6,65.1 45.1,65.1 45.1,53 39.6,53 "/>
<polygon id="Stroke-1411" class="st3" points="39.6,65.1 45.1,65.1 45.1,53 39.6,53 "/>
<polygon id="Fill-1412" class="st2" points="45.1,65.1 50.6,65.1 50.6,53 45.1,53 "/>
<polygon id="Stroke-1413" class="st3" points="45.1,65.1 50.6,65.1 50.6,53 45.1,53 "/>
<polygon id="Fill-1414" class="st2" points="50.6,65.1 56.1,65.1 56.1,53 50.6,53 "/>
<polygon id="Stroke-1415" class="st3" points="50.6,65.1 56.1,65.1 56.1,53 50.6,53 "/>
<polygon id="Fill-1416" class="st2" points="56.1,65.1 61.5,65.1 61.5,53 56.1,53 "/>
<polygon id="Stroke-1417" class="st3" points="56.1,65.1 61.5,65.1 61.5,53 56.1,53 "/>
<polygon id="Fill-1418" class="st2" points="61.5,65.1 67.1,65.1 67.1,53 61.5,53 "/>
<polygon id="Stroke-1419" class="st3" points="61.5,65.1 67.1,65.1 67.1,53 61.5,53 "/>
<polygon id="Fill-1420" class="st2" points="67.1,65.1 72.6,65.1 72.6,53 67.1,53 "/>
<polygon id="Stroke-1421" class="st3" points="67.1,65.1 72.6,65.1 72.6,53 67.1,53 "/>
<polygon id="Fill-1422" class="st2" points="89,65.1 94.5,65.1 94.5,53 89,53 "/>
<polygon id="Stroke-1423" class="st3" points="89,65.1 94.5,65.1 94.5,53 89,53 "/>
<polygon id="Fill-1422_1_" class="st2" points="94.5,65.1 100,65.1 100,53 94.5,53 "/>
<polygon id="Stroke-1423_1_" class="st3" points="94.5,65.1 100,65.1 100,53 94.5,53 "/>
<polygon id="Fill-1424" class="st2" points="72.6,65.1 78,65.1 78,53 72.6,53 "/>
<polygon id="Stroke-1425" class="st3" points="72.6,65.1 78,65.1 78,53 72.6,53 "/>
<polygon id="Fill-1426" class="st2" points="78,65.1 83.5,65.1 83.5,53 78,53 "/>
<polygon id="Stroke-1427" class="st3" points="78,65.1 83.5,65.1 83.5,53 78,53 "/>
<polygon id="Fill-1428" class="st2" points="83.5,65.1 89,65.1 89,53 83.5,53 "/>
<polygon id="Stroke-1429" class="st3" points="83.5,65.1 89,65.1 89,53 83.5,53 "/>
<path id="Stroke-1377" class="st4" d="M19,74.3V56.7l0.1-0.9c0.3-1.6,1.6-2.9,3.3-3.3l0.9-0.1h76.8l1,0.1c2,0.4,3.5,2.2,3.5,4.2
	v17.6l-0.1,0.9c-0.3,1.6-1.6,2.9-3.3,3.3l-0.9,0.1H23.4l-1-0.1c-1.6-0.3-2.9-1.6-3.3-3.3L19,74.3z"/>
<path id="Fill-1378" class="st5" d="M19,34.3l0.1-0.9c0.3-1.6,1.6-2.9,3.3-3.3l0.9-0.1h76.8l1,0.1c2,0.4,3.5,2.2,3.5,4.2v3.3
	l-0.1,0.9c-0.3,1.6-1.6,2.9-3.3,3.3l-0.9,0.1H23.4l-1-0.1c-1.6-0.3-2.9-1.6-3.3-3.3l-0.1-0.9L19,34.3z"/>
<polygon id="Fill-1380" class="st2" points="34.6,42.1 40.1,42.1 40.1,30 34.6,30 "/>
<polygon id="Stroke-1381" class="st3" points="34.6,42.1 40.1,42.1 40.1,30 34.6,30 "/>
<polygon id="Fill-1382" class="st2" points="40.1,42.1 45.7,42.1 45.7,30 40.1,30 "/>
<polygon id="Stroke-1383" class="st3" points="40.1,42.1 45.7,42.1 45.7,30 40.1,30 "/>
<polygon id="Fill-1384" class="st2" points="45.6,42.1 51.1,42.1 51.1,30 45.6,30 "/>
<polygon id="Stroke-1385" class="st3" points="45.6,42.1 51.1,42.1 51.1,30 45.6,30 "/>
<polygon id="Fill-1386" class="st2" points="51,42.1 56.5,42.1 56.5,30 51,30 "/>
<polygon id="Stroke-1387" class="st3" points="51,42.1 56.5,42.1 56.5,30 51,30 "/>
<polygon id="Fill-1388" class="st2" points="56.5,42.1 62.1,42.1 62.1,30 56.5,30 "/>
<polygon id="Stroke-1389" class="st3" points="56.5,42.1 62.1,42.1 62.1,30 56.5,30 "/>
<polygon id="Fill-1390" class="st2" points="62,42.1 67.5,42.1 67.5,30 62,30 "/>
<polygon id="Stroke-1391" class="st3" points="62,42.1 67.5,42.1 67.5,30 62,30 "/>
<polygon id="Fill-1392" class="st2" points="67.4,42.1 73,42.1 73,30 67.4,30 "/>
<polygon id="Stroke-1393" class="st3" points="67.4,42.1 73,42.1 73,30 67.4,30 "/>
<polygon id="Fill-1394" class="st2" points="73,42.1 78.5,42.1 78.5,30 73,30 "/>
<polygon id="Stroke-1395" class="st3" points="73,42.1 78.5,42.1 78.5,30 73,30 "/>
<polygon id="Fill-1396" class="st2" points="78.4,42.1 83.9,42.1 83.9,30 78.4,30 "/>
<polygon id="Stroke-1397" class="st3" points="78.4,42.1 83.9,42.1 83.9,30 78.4,30 "/>
<polygon id="Fill-1398" class="st2" points="83.8,42.1 89.4,42.1 89.4,30 83.8,30 "/>
<polygon id="Stroke-1399" class="st3" points="83.8,42.1 89.4,42.1 89.4,30 83.8,30 "/>
<polygon id="Fill-1359" class="st2" points="120,30.5 132.1,30.5 132.1,25 120,25 "/>
<polygon id="Stroke-1360" class="st3" points="120,30.5 132.1,30.5 132.1,25 120,25 "/>
<polygon id="Fill-1361" class="st2" points="120,36 132.1,36 132.1,30.4 120,30.4 "/>
<polygon id="Stroke-1362" class="st3" points="120,36 132.1,36 132.1,30.4 120,30.4 "/>
<polygon id="Fill-1363" class="st2" points="120,41.5 132.1,41.5 132.1,36 120,36 "/>
<polygon id="Stroke-1364" class="st3" points="120,41.5 132.1,41.5 132.1,36 120,36 "/>
<polygon id="Fill-1365" class="st2" points="120,46.9 132.1,46.9 132.1,41.4 120,41.4 "/>
<polygon id="Stroke-1366" class="st3" points="120,46.9 132.1,46.9 132.1,41.4 120,41.4 "/>
<polygon id="Fill-1367" class="st2" points="120,52.4 132.1,52.4 132.1,46.9 120,46.9 "/>
<polygon id="Stroke-1368" class="st3" points="120,52.4 132.1,52.4 132.1,46.9 120,46.9 "/>
<polygon id="Fill-1369" class="st2" points="120,57.9 132.1,57.9 132.1,52.4 120,52.4 "/>
<polygon id="Stroke-1370" class="st3" points="120,57.9 132.1,57.9 132.1,52.4 120,52.4 "/>
<polygon id="Fill-1371" class="st2" points="120,63.4 132.1,63.4 132.1,57.9 120,57.9 "/>
<polygon id="Stroke-1372" class="st3" points="120,63.4 132.1,63.4 132.1,57.9 120,57.9 "/>
<polygon id="Fill-1373" class="st2" points="120,68.9 132.1,68.9 132.1,63.4 120,63.4 "/>
<polygon id="Stroke-1374" class="st3" points="120,68.9 132.1,68.9 132.1,63.4 120,63.4 "/>
<polygon id="Fill-1373_1_" class="st2" points="120,74.4 132.1,74.4 132.1,68.9 120,68.9 "/>
<polygon id="Stroke-1374_1_" class="st3" points="120,74.4 132.1,74.4 132.1,68.9 120,68.9 "/>
<polygon id="Fill-1331" class="st2" points="17,13.1 22.5,13.1 22.5,1 17,1 "/>
<polygon id="Stroke-1332" class="st3" points="17,13.1 22.5,13.1 22.5,1 17,1 "/>
<polygon id="Fill-1333" class="st2" points="22.4,13.1 28,13.1 28,1 22.4,1 "/>
<polygon id="Stroke-1334" class="st3" points="22.4,13.1 28,13.1 28,1 22.4,1 "/>
<polygon id="Fill-1335" class="st2" points="27.9,13.1 33.4,13.1 33.4,1 27.9,1 "/>
<polygon id="Stroke-1336" class="st3" points="27.9,13.1 33.4,13.1 33.4,1 27.9,1 "/>
<polygon id="Fill-1337" class="st2" points="33.4,13.1 38.9,13.1 38.9,1 33.4,1 "/>
<polygon id="Stroke-1338" class="st3" points="33.4,13.1 38.9,13.1 38.9,1 33.4,1 "/>
<polygon id="Fill-1339" class="st2" points="38.8,13.1 44.4,13.1 44.4,1 38.8,1 "/>
<polygon id="Stroke-1340" class="st3" points="38.8,13.1 44.4,13.1 44.4,1 38.8,1 "/>
<polygon id="Fill-1341" class="st2" points="44.3,13.1 49.8,13.1 49.8,1 44.3,1 "/>
<polygon id="Stroke-1342" class="st3" points="44.3,13.1 49.8,13.1 49.8,1 44.3,1 "/>
<polygon id="Fill-1343" class="st2" points="49.8,13.1 55.3,13.1 55.3,1 49.8,1 "/>
<polygon id="Stroke-1344" class="st3" points="49.8,13.1 55.3,13.1 55.3,1 49.8,1 "/>
<polygon id="Fill-1345" class="st2" points="55.2,13.1 60.8,13.1 60.8,1 55.2,1 "/>
<polygon id="Stroke-1346" class="st3" points="55.2,13.1 60.8,13.1 60.8,1 55.2,1 "/>
<polygon id="Fill-1347" class="st2" points="60.8,13.1 66.3,13.1 66.3,1 60.8,1 "/>
<polygon id="Stroke-1348" class="st3" points="60.8,13.1 66.3,13.1 66.3,1 60.8,1 "/>
<polygon id="Fill-1349" class="st2" points="66.2,13.1 71.7,13.1 71.7,1 66.2,1 "/>
<polygon id="Stroke-1350" class="st3" points="66.2,13.1 71.7,13.1 71.7,1 66.2,1 "/>
<polygon id="Fill-1351" class="st2" points="71.6,13.1 77.2,13.1 77.2,1 71.6,1 "/>
<polygon id="Stroke-1352" class="st3" points="71.6,13.1 77.2,13.1 77.2,1 71.6,1 "/>
<polygon id="Fill-1353" class="st2" points="77.2,13.1 82.7,13.1 82.7,1 77.2,1 "/>
<polygon id="Stroke-1354" class="st3" points="77.2,13.1 82.7,13.1 82.7,1 77.2,1 "/>
<polygon id="Fill-1355" class="st2" points="82.6,13.1 88.1,13.1 88.1,1 82.6,1 "/>
<polygon id="Stroke-1356" class="st3" points="82.6,13.1 88.1,13.1 88.1,1 82.6,1 "/>
<polygon id="Fill-1357" class="st2" points="88.1,13.1 93.7,13.1 93.7,1 88.1,1 "/>
<polygon id="Stroke-1358" class="st3" points="88.1,13.1 93.7,13.1 93.7,1 88.1,1 "/>
<polygon id="Fill-1357_1_" class="st2" points="93.7,13.1 99.2,13.1 99.2,1 93.7,1 "/>
<polygon id="Stroke-1358_1_" class="st3" points="93.7,13.1 99.2,13.1 99.2,1 93.7,1 "/>
</svg>
