<?xml version="1.0" encoding="UTF-8"?>
<svg width="133px" height="93px" viewBox="0 0 133 93" version="1.1" xmlns="http://www.w3.org/2000/svg" xmlns:xlink="http://www.w3.org/1999/xlink">
    <title>临时停车场</title>
    <g id="页面-1" stroke="none" stroke-width="1" fill="none" fill-rule="evenodd">
        <g id="画板" transform="translate(-400.000000, -164.000000)">
            <g id="临时停车场" transform="translate(400.000000, 165.000000)">
                <rect id="矩形" stroke="#3CD5E5" stroke-width="3" fill="#098D97" x="1.5" y="13.5" width="117" height="77" rx="6"></rect>
                <path d="M19,73.3381809 L19,55.742108 L19.0871929,54.7933001 C19.4316479,53.1544502 20.7265918,51.8606213 22.3668539,51.5156003 L23.3164794,51.429345 L100.149813,51.429345 L101.100301,51.5156003 C103.085019,51.9468766 104.553485,53.6719818 104.553485,55.742108 L104.553485,73.3381809 L104.466292,74.2869888 C104.121837,75.9258387 102.826893,77.2196676 101.185768,77.5646886 L100.237006,77.6509439 L23.4036723,77.6509439 L22.4531835,77.5646886 C20.8137846,77.2196676 19.5188408,75.9258387 19.1726592,74.2869888 L19,73.3381809 Z" id="Fill-1375" fill="#091830"></path>
                <g id="编组-4" transform="translate(27.000000, 52.000000)">
                    <polygon id="Fill-1404" fill="#0C7454" points="-5.68434189e-14 12.0757363 5.43876404 12.0757363 5.43876404 4.4408921e-15 -5.68434189e-14 4.4408921e-15"></polygon>
                    <polygon id="Stroke-1405" stroke="#3CD5E5" stroke-width="0.72" stroke-linecap="round" stroke-linejoin="round" points="-5.68434189e-14 12.0757363 5.43876404 12.0757363 5.43876404 4.4408921e-15 -5.68434189e-14 4.4408921e-15"></polygon>
                    <polygon id="Fill-1406" fill="#0C7454" points="5.43876404 12.0757363 10.9629944 12.0757363 10.9629944 4.4408921e-15 5.43876404 4.4408921e-15"></polygon>
                    <polygon id="Stroke-1407" stroke="#3CD5E5" stroke-width="0.72" stroke-linecap="round" stroke-linejoin="round" points="5.43876404 12.0757363 10.9629944 12.0757363 10.9629944 4.4408921e-15 5.43876404 4.4408921e-15"></polygon>
                    <polygon id="Fill-1408" fill="#0C7454" points="10.9629944 12.0757363 16.4026217 12.0757363 16.4026217 4.4408921e-15 10.9629944 4.4408921e-15"></polygon>
                    <polygon id="Stroke-1409" stroke="#3CD5E5" stroke-width="0.72" stroke-linecap="round" stroke-linejoin="round" points="10.9629944 12.0757363 16.4026217 12.0757363 16.4026217 4.4408921e-15 10.9629944 4.4408921e-15"></polygon>
                    <polygon id="Fill-1410" fill="#0C7454" points="16.4026217 12.0757363 21.9268521 12.0757363 21.9268521 4.4408921e-15 16.4026217 4.4408921e-15"></polygon>
                    <polygon id="Stroke-1411" stroke="#3CD5E5" stroke-width="0.72" stroke-linecap="round" stroke-linejoin="round" points="16.4026217 12.0757363 21.9268521 12.0757363 21.9268521 4.4408921e-15 16.4026217 4.4408921e-15"></polygon>
                    <polygon id="Fill-1412" fill="#0C7454" points="21.9268521 12.0757363 27.3656161 12.0757363 27.3656161 4.4408921e-15 21.9268521 4.4408921e-15"></polygon>
                    <polygon id="Stroke-1413" stroke="#3CD5E5" stroke-width="0.72" stroke-linecap="round" stroke-linejoin="round" points="21.9268521 12.0757363 27.3656161 12.0757363 27.3656161 4.4408921e-15 21.9268521 4.4408921e-15"></polygon>
                    <polygon id="Fill-1414" fill="#0C7454" points="27.3656161 12.0757363 32.8907097 12.0757363 32.8907097 4.4408921e-15 27.3656161 4.4408921e-15"></polygon>
                    <polygon id="Stroke-1415" stroke="#3CD5E5" stroke-width="0.72" stroke-linecap="round" stroke-linejoin="round" points="27.3656161 12.0757363 32.8907097 12.0757363 32.8907097 4.4408921e-15 27.3656161 4.4408921e-15"></polygon>
                    <polygon id="Fill-1416" fill="#0C7454" points="32.8907097 12.0757363 38.3294738 12.0757363 38.3294738 4.4408921e-15 32.8907097 4.4408921e-15"></polygon>
                    <polygon id="Stroke-1417" stroke="#3CD5E5" stroke-width="0.72" stroke-linecap="round" stroke-linejoin="round" points="32.8907097 12.0757363 38.3294738 12.0757363 38.3294738 4.4408921e-15 32.8907097 4.4408921e-15"></polygon>
                    <polygon id="Fill-1418" fill="#0C7454" points="38.3294738 12.0757363 43.8545674 12.0757363 43.8545674 4.4408921e-15 38.3294738 4.4408921e-15"></polygon>
                    <polygon id="Stroke-1419" stroke="#3CD5E5" stroke-width="0.72" stroke-linecap="round" stroke-linejoin="round" points="38.3294738 12.0757363 43.8545674 12.0757363 43.8545674 4.4408921e-15 38.3294738 4.4408921e-15"></polygon>
                    <polygon id="Fill-1420" fill="#0C7454" points="43.8554307 12.0757363 49.379661 12.0757363 49.379661 4.4408921e-15 43.8554307 4.4408921e-15"></polygon>
                    <polygon id="Stroke-1421" stroke="#3CD5E5" stroke-width="0.72" stroke-linecap="round" stroke-linejoin="round" points="43.8554307 12.0757363 49.379661 12.0757363 49.379661 4.4408921e-15 43.8554307 4.4408921e-15"></polygon>
                    <polygon id="Fill-1422" fill="#0C7454" points="65.7822828 12.0757363 71.3073764 12.0757363 71.3073764 4.4408921e-15 65.7822828 4.4408921e-15"></polygon>
                    <polygon id="Stroke-1423" stroke="#3CD5E5" stroke-width="0.72" stroke-linecap="round" stroke-linejoin="round" points="65.7822828 12.0757363 71.3073764 12.0757363 71.3073764 4.4408921e-15 65.7822828 4.4408921e-15"></polygon>
                    <polygon id="Fill-1424" fill="#0C7454" points="49.379661 12.0757363 54.8192884 12.0757363 54.8192884 4.4408921e-15 49.379661 4.4408921e-15"></polygon>
                    <polygon id="Stroke-1425" stroke="#3CD5E5" stroke-width="0.72" stroke-linecap="round" stroke-linejoin="round" points="49.379661 12.0757363 54.8192884 12.0757363 54.8192884 4.4408921e-15 49.379661 4.4408921e-15"></polygon>
                    <polygon id="Fill-1426" fill="#0C7454" points="54.8192884 12.0757363 60.3435187 12.0757363 60.3435187 4.4408921e-15 54.8192884 4.4408921e-15"></polygon>
                    <polygon id="Stroke-1427" stroke="#3CD5E5" stroke-width="0.72" stroke-linecap="round" stroke-linejoin="round" points="54.8192884 12.0757363 60.3435187 12.0757363 60.3435187 4.4408921e-15 54.8192884 4.4408921e-15"></polygon>
                    <polygon id="Fill-1428" fill="#0C7454" points="60.3435187 12.0757363 65.7822828 12.0757363 65.7822828 4.4408921e-15 60.3435187 4.4408921e-15"></polygon>
                    <polygon id="Stroke-1429" stroke="#3CD5E5" stroke-width="0.72" stroke-linecap="round" stroke-linejoin="round" points="60.3435187 12.0757363 65.7822828 12.0757363 65.7822828 4.4408921e-15 60.3435187 4.4408921e-15"></polygon>
                </g>
                <path d="M19,73.3381809 L19,55.742108 L19.0871929,54.7933001 C19.4316479,53.1544502 20.7265918,51.8606213 22.3668539,51.5156003 L23.3164794,51.429345 L100.149813,51.429345 L101.100301,51.5156003 C103.085019,51.9468766 104.553485,53.6719818 104.553485,55.742108 L104.553485,73.3381809 L104.466292,74.2869888 C104.121837,75.9258387 102.826893,77.2196676 101.185768,77.5646886 L100.237006,77.6509439 L23.4036723,77.6509439 L22.4531835,77.5646886 C20.8137846,77.2196676 19.5188408,75.9258387 19.1726592,74.2869888 L19,73.3381809 Z" id="Stroke-1377" stroke="#3CD5E5" stroke-linecap="round" stroke-linejoin="round"></path>
                <path d="M19,33.312763 L19.0871929,32.3639551 C19.4316479,30.7251052 20.7265918,29.4312763 22.3668539,29.0862553 L23.3164794,29 L100.149813,29 L101.100301,29.0862553 C103.085019,29.5175316 104.553485,31.2426367 104.553485,33.312763 L104.553485,36.5904628 L104.466292,37.5392707 C104.121837,39.1781206 102.826893,40.4719495 101.185768,40.8169705 L100.237006,40.9032258 L23.4036723,40.9032258 L22.4531835,40.8169705 C20.8137846,40.4719495 19.5188408,39.1781206 19.1726592,37.5392707 L19.0871929,36.5904628 L19,33.312763 Z" id="Fill-1378" stroke="#3CD5E5" fill="#07172F"></path>
                <g id="编组-5" transform="translate(29.000000, 29.000000)">
                    <polygon id="Fill-1380" fill="#0C7454" points="0 12.0757363 5.52423034 12.0757363 5.52423034 1.42108547e-14 0 1.42108547e-14"></polygon>
                    <polygon id="Stroke-1381" stroke="#3CD5E5" stroke-width="0.72" stroke-linecap="round" stroke-linejoin="round" points="0 12.0757363 5.52423034 12.0757363 5.52423034 1.42108547e-14 0 1.42108547e-14"></polygon>
                    <polygon id="Fill-1382" fill="#0C7454" points="5.52423034 12.0757363 11.049324 12.0757363 11.049324 1.42108547e-14 5.52423034 1.42108547e-14"></polygon>
                    <polygon id="Stroke-1383" stroke="#3CD5E5" stroke-width="0.72" stroke-linecap="round" stroke-linejoin="round" points="5.52423034 12.0757363 11.049324 12.0757363 11.049324 1.42108547e-14 5.52423034 1.42108547e-14"></polygon>
                    <polygon id="Fill-1384" fill="#0C7454" points="10.9638577 12.0757363 16.488088 12.0757363 16.488088 1.42108547e-14 10.9638577 1.42108547e-14"></polygon>
                    <polygon id="Stroke-1385" stroke="#3CD5E5" stroke-width="0.72" stroke-linecap="round" stroke-linejoin="round" points="10.9638577 12.0757363 16.488088 12.0757363 16.488088 1.42108547e-14 10.9638577 1.42108547e-14"></polygon>
                    <polygon id="Fill-1386" fill="#0C7454" points="16.4026217 12.0757363 21.9268521 12.0757363 21.9268521 1.42108547e-14 16.4026217 1.42108547e-14"></polygon>
                    <polygon id="Stroke-1387" stroke="#3CD5E5" stroke-width="0.72" stroke-linecap="round" stroke-linejoin="round" points="16.4026217 12.0757363 21.9268521 12.0757363 21.9268521 1.42108547e-14 16.4026217 1.42108547e-14"></polygon>
                    <polygon id="Fill-1388" fill="#0C7454" points="21.9268521 12.0757363 27.4519457 12.0757363 27.4519457 1.42108547e-14 21.9268521 1.42108547e-14"></polygon>
                    <polygon id="Stroke-1389" stroke="#3CD5E5" stroke-width="0.72" stroke-linecap="round" stroke-linejoin="round" points="21.9268521 12.0757363 27.4519457 12.0757363 27.4519457 1.42108547e-14 21.9268521 1.42108547e-14"></polygon>
                    <polygon id="Fill-1390" fill="#0C7454" points="27.3664794 12.0757363 32.8907097 12.0757363 32.8907097 1.42108547e-14 27.3664794 1.42108547e-14"></polygon>
                    <polygon id="Stroke-1391" stroke="#3CD5E5" stroke-width="0.72" stroke-linecap="round" stroke-linejoin="round" points="27.3664794 12.0757363 32.8907097 12.0757363 32.8907097 1.42108547e-14 27.3664794 1.42108547e-14"></polygon>
                    <polygon id="Fill-1392" fill="#0C7454" points="32.8052434 12.0757363 38.3294738 12.0757363 38.3294738 1.42108547e-14 32.8052434 1.42108547e-14"></polygon>
                    <polygon id="Stroke-1393" stroke="#3CD5E5" stroke-width="0.72" stroke-linecap="round" stroke-linejoin="round" points="32.8052434 12.0757363 38.3294738 12.0757363 38.3294738 1.42108547e-14 32.8052434 1.42108547e-14"></polygon>
                    <polygon id="Fill-1394" fill="#0C7454" points="38.3294738 12.0757363 43.8545674 12.0757363 43.8545674 1.42108547e-14 38.3294738 1.42108547e-14"></polygon>
                    <polygon id="Stroke-1395" stroke="#3CD5E5" stroke-width="0.72" stroke-linecap="round" stroke-linejoin="round" points="38.3294738 12.0757363 43.8545674 12.0757363 43.8545674 1.42108547e-14 38.3294738 1.42108547e-14"></polygon>
                    <polygon id="Fill-1396" fill="#0C7454" points="43.7691011 12.0757363 49.2933315 12.0757363 49.2933315 1.42108547e-14 43.7691011 1.42108547e-14"></polygon>
                    <polygon id="Stroke-1397" stroke="#3CD5E5" stroke-width="0.72" stroke-linecap="round" stroke-linejoin="round" points="43.7691011 12.0757363 49.2933315 12.0757363 49.2933315 1.42108547e-14 43.7691011 1.42108547e-14"></polygon>
                    <polygon id="Fill-1398" fill="#0C7454" points="49.2078652 12.0757363 54.7320955 12.0757363 54.7320955 1.42108547e-14 49.2078652 1.42108547e-14"></polygon>
                    <polygon id="Stroke-1399" stroke="#3CD5E5" stroke-width="0.72" stroke-linecap="round" stroke-linejoin="round" points="49.2078652 12.0757363 54.7320955 12.0757363 54.7320955 1.42108547e-14 49.2078652 1.42108547e-14"></polygon>
                    <polygon id="Fill-1400" fill="#0C7454" points="54.7320955 12.0757363 60.2571891 12.0757363 60.2571891 1.42108547e-14 54.7320955 1.42108547e-14"></polygon>
                    <polygon id="Stroke-1401" stroke="#3CD5E5" stroke-width="0.72" stroke-linecap="round" stroke-linejoin="round" points="54.7320955 12.0757363 60.2571891 12.0757363 60.2571891 1.42108547e-14 54.7320955 1.42108547e-14"></polygon>
                    <polygon id="Fill-1402" fill="#0C7454" points="60.1717228 12.0757363 65.6959532 12.0757363 65.6959532 1.42108547e-14 60.1717228 1.42108547e-14"></polygon>
                    <polygon id="Stroke-1403" stroke="#3CD5E5" stroke-width="0.72" stroke-linecap="round" stroke-linejoin="round" points="60.1717228 12.0757363 65.6959532 12.0757363 65.6959532 1.42108547e-14 60.1717228 1.42108547e-14"></polygon>
                </g>
                <g id="编组-2" transform="translate(120.000000, 24.000000)">
                    <polygon id="Fill-1359" fill="#0C7454" points="0 5.52033661 12.0861423 5.52033661 12.0861423 -7.10542736e-15 0 -7.10542736e-15"></polygon>
                    <polygon id="Stroke-1360" stroke="#3CD5E5" stroke-width="0.72" stroke-linecap="round" stroke-linejoin="round" points="0 5.52033661 12.0861423 5.52033661 12.0861423 -7.10542736e-15 0 -7.10542736e-15"></polygon>
                    <polygon id="Fill-1361" fill="#0C7454" points="0 10.954418 12.0861423 10.954418 12.0861423 5.43408135 0 5.43408135"></polygon>
                    <polygon id="Stroke-1362" stroke="#3CD5E5" stroke-width="0.72" stroke-linecap="round" stroke-linejoin="round" points="0 10.954418 12.0861423 10.954418 12.0861423 5.43408135 0 5.43408135"></polygon>
                    <polygon id="Fill-1363" fill="#0C7454" points="0 16.4747546 12.0861423 16.4747546 12.0861423 10.954418 0 10.954418"></polygon>
                    <polygon id="Stroke-1364" stroke="#3CD5E5" stroke-width="0.72" stroke-linecap="round" stroke-linejoin="round" points="0 16.4747546 12.0861423 16.4747546 12.0861423 10.954418 0 10.954418"></polygon>
                    <polygon id="Fill-1365" fill="#0C7454" points="0 21.9088359 12.0861423 21.9088359 12.0861423 16.3884993 0 16.3884993"></polygon>
                    <polygon id="Stroke-1366" stroke="#3CD5E5" stroke-width="0.72" stroke-linecap="round" stroke-linejoin="round" points="0 21.9088359 12.0861423 21.9088359 12.0861423 16.3884993 0 16.3884993"></polygon>
                    <polygon id="Fill-1367" fill="#0C7454" points="0 27.4291725 12.0861423 27.4291725 12.0861423 21.9088359 0 21.9088359"></polygon>
                    <polygon id="Stroke-1368" stroke="#3CD5E5" stroke-width="0.72" stroke-linecap="round" stroke-linejoin="round" points="0 27.4291725 12.0861423 27.4291725 12.0861423 21.9088359 0 21.9088359"></polygon>
                    <polygon id="Fill-1369" fill="#0C7454" points="0 32.9495091 12.0861423 32.9495091 12.0861423 27.4291725 0 27.4291725"></polygon>
                    <polygon id="Stroke-1370" stroke="#3CD5E5" stroke-width="0.72" stroke-linecap="round" stroke-linejoin="round" points="0 32.9495091 12.0861423 32.9495091 12.0861423 27.4291725 0 27.4291725"></polygon>
                    <polygon id="Fill-1371" fill="#0C7454" points="0 38.3835905 12.0861423 38.3835905 12.0861423 32.8632539 0 32.8632539"></polygon>
                    <polygon id="Stroke-1372" stroke="#3CD5E5" stroke-width="0.72" stroke-linecap="round" stroke-linejoin="round" points="0 38.3835905 12.0861423 38.3835905 12.0861423 32.8632539 0 32.8632539"></polygon>
                    <polygon id="Fill-1373" fill="#0C7454" points="0 43.9039271 12.0861423 43.9039271 12.0861423 38.3835905 0 38.3835905"></polygon>
                    <polygon id="Stroke-1374" stroke="#3CD5E5" stroke-width="0.72" stroke-linecap="round" stroke-linejoin="round" points="0 43.9039271 12.0861423 43.9039271 12.0861423 38.3835905 0 38.3835905"></polygon>
                </g>
                <g id="编组-3" transform="translate(17.000000, 0.000000)">
                    <polygon id="Fill-1331" fill="#0C7454" points="5.68434189e-14 12.0757363 5.52423034 12.0757363 5.52423034 9.76996262e-15 5.68434189e-14 9.76996262e-15"></polygon>
                    <polygon id="Stroke-1332" stroke="#3CD5E5" stroke-width="0.72" stroke-linecap="round" stroke-linejoin="round" points="5.68434189e-14 12.0757363 5.52423034 12.0757363 5.52423034 9.76996262e-15 5.68434189e-14 9.76996262e-15"></polygon>
                    <polygon id="Fill-1333" fill="#0C7454" points="5.43876404 12.0757363 10.9629944 12.0757363 10.9629944 9.76996262e-15 5.43876404 9.76996262e-15"></polygon>
                    <polygon id="Stroke-1334" stroke="#3CD5E5" stroke-width="0.72" stroke-linecap="round" stroke-linejoin="round" points="5.43876404 12.0757363 10.9629944 12.0757363 10.9629944 9.76996262e-15 5.43876404 9.76996262e-15"></polygon>
                    <polygon id="Fill-1335" fill="#0C7454" points="10.8766648 12.0757363 16.4017584 12.0757363 16.4017584 9.76996262e-15 10.8766648 9.76996262e-15"></polygon>
                    <polygon id="Stroke-1336" stroke="#3CD5E5" stroke-width="0.72" stroke-linecap="round" stroke-linejoin="round" points="10.8766648 12.0757363 16.4017584 12.0757363 16.4017584 9.76996262e-15 10.8766648 9.76996262e-15"></polygon>
                    <polygon id="Fill-1337" fill="#0C7454" points="16.4026217 12.0757363 21.9268521 12.0757363 21.9268521 9.76996262e-15 16.4026217 9.76996262e-15"></polygon>
                    <polygon id="Stroke-1338" stroke="#3CD5E5" stroke-width="0.72" stroke-linecap="round" stroke-linejoin="round" points="16.4026217 12.0757363 21.9268521 12.0757363 21.9268521 9.76996262e-15 16.4026217 9.76996262e-15"></polygon>
                    <polygon id="Fill-1339" fill="#0C7454" points="21.8413858 12.0757363 27.3656161 12.0757363 27.3656161 9.76996262e-15 21.8413858 9.76996262e-15"></polygon>
                    <polygon id="Stroke-1340" stroke="#3CD5E5" stroke-width="0.72" stroke-linecap="round" stroke-linejoin="round" points="21.8413858 12.0757363 27.3656161 12.0757363 27.3656161 9.76996262e-15 21.8413858 9.76996262e-15"></polygon>
                    <polygon id="Fill-1341" fill="#0C7454" points="27.2792865 12.0757363 32.8043801 12.0757363 32.8043801 9.76996262e-15 27.2792865 9.76996262e-15"></polygon>
                    <polygon id="Stroke-1342" stroke="#3CD5E5" stroke-width="0.72" stroke-linecap="round" stroke-linejoin="round" points="27.2792865 12.0757363 32.8043801 12.0757363 32.8043801 9.76996262e-15 27.2792865 9.76996262e-15"></polygon>
                    <polygon id="Fill-1343" fill="#0C7454" points="32.8052434 12.0757363 38.3294738 12.0757363 38.3294738 9.76996262e-15 32.8052434 9.76996262e-15"></polygon>
                    <polygon id="Stroke-1344" stroke="#3CD5E5" stroke-width="0.72" stroke-linecap="round" stroke-linejoin="round" points="32.8052434 12.0757363 38.3294738 12.0757363 38.3294738 9.76996262e-15 32.8052434 9.76996262e-15"></polygon>
                    <polygon id="Fill-1345" fill="#0C7454" points="38.2440075 12.0757363 43.7682378 12.0757363 43.7682378 9.76996262e-15 38.2440075 9.76996262e-15"></polygon>
                    <polygon id="Stroke-1346" stroke="#3CD5E5" stroke-width="0.72" stroke-linecap="round" stroke-linejoin="round" points="38.2440075 12.0757363 43.7682378 12.0757363 43.7682378 9.76996262e-15 38.2440075 9.76996262e-15"></polygon>
                    <polygon id="Fill-1347" fill="#0C7454" points="43.7682378 12.0757363 49.2933315 12.0757363 49.2933315 9.76996262e-15 43.7682378 9.76996262e-15"></polygon>
                    <polygon id="Stroke-1348" stroke="#3CD5E5" stroke-width="0.72" stroke-linecap="round" stroke-linejoin="round" points="43.7682378 12.0757363 49.2933315 12.0757363 49.2933315 9.76996262e-15 43.7682378 9.76996262e-15"></polygon>
                    <polygon id="Fill-1349" fill="#0C7454" points="49.2078652 12.0757363 54.7320955 12.0757363 54.7320955 9.76996262e-15 49.2078652 9.76996262e-15"></polygon>
                    <polygon id="Stroke-1350" stroke="#3CD5E5" stroke-width="0.72" stroke-linecap="round" stroke-linejoin="round" points="49.2078652 12.0757363 54.7320955 12.0757363 54.7320955 9.76996262e-15 49.2078652 9.76996262e-15"></polygon>
                    <polygon id="Fill-1351" fill="#0C7454" points="54.6466292 12.0757363 60.1708596 12.0757363 60.1708596 9.76996262e-15 54.6466292 9.76996262e-15"></polygon>
                    <polygon id="Stroke-1352" stroke="#3CD5E5" stroke-width="0.72" stroke-linecap="round" stroke-linejoin="round" points="54.6466292 12.0757363 60.1708596 12.0757363 60.1708596 9.76996262e-15 54.6466292 9.76996262e-15"></polygon>
                    <polygon id="Fill-1353" fill="#0C7454" points="60.1708596 12.0757363 65.6959532 12.0757363 65.6959532 9.76996262e-15 60.1708596 9.76996262e-15"></polygon>
                    <polygon id="Stroke-1354" stroke="#3CD5E5" stroke-width="0.72" stroke-linecap="round" stroke-linejoin="round" points="60.1708596 12.0757363 65.6959532 12.0757363 65.6959532 9.76996262e-15 60.1708596 9.76996262e-15"></polygon>
                    <polygon id="Fill-1355" fill="#0C7454" points="65.6104869 12.0757363 71.1347172 12.0757363 71.1347172 9.76996262e-15 65.6104869 9.76996262e-15"></polygon>
                    <polygon id="Stroke-1356" stroke="#3CD5E5" stroke-width="0.72" stroke-linecap="round" stroke-linejoin="round" points="65.6104869 12.0757363 71.1347172 12.0757363 71.1347172 9.76996262e-15 65.6104869 9.76996262e-15"></polygon>
                    <polygon id="Fill-1357" fill="#0C7454" points="71.1347172 12.0757363 76.6598109 12.0757363 76.6598109 9.76996262e-15 71.1347172 9.76996262e-15"></polygon>
                    <polygon id="Stroke-1358" stroke="#3CD5E5" stroke-width="0.72" stroke-linecap="round" stroke-linejoin="round" points="71.1347172 12.0757363 76.6598109 12.0757363 76.6598109 9.76996262e-15 71.1347172 9.76996262e-15"></polygon>
                </g>
            </g>
        </g>
    </g>
</svg>