<?xml version="1.0" encoding="UTF-8"?>
<svg width="255px" height="351px" viewBox="0 0 255 351" version="1.1" xmlns="http://www.w3.org/2000/svg" xmlns:xlink="http://www.w3.org/1999/xlink">
    <title>公共停车场</title>
    <g id="页面-1" stroke="none" stroke-width="1" fill="none" fill-rule="evenodd">
        <g id="画板" transform="translate(-400.000000, -831.000000)">
            <g id="公共停车场" transform="translate(400.000000, 831.000000)">
                <path d="M33.5433166,1.50126928 L252.921561,1.8426856 L252.501812,349.166865 L50.726511,349.166865 C32.3201607,346.003895 19.0317629,338.464483 10.9506891,326.425722 C2.80934231,314.29717 -0.0341568026,297.676265 2.27017286,276.610786 C9.32100908,212.15419 42.0552271,68.0743957 48.5761281,43.6876194 C49.5529581,40.0344842 50.4446049,36.8594216 51.2191703,34.1011842 C53.606039,25.6015136 54.8051288,20.8825315 54.2391336,18.2988068 C53.8813349,16.665483 52.9921768,15.6321658 51.4551663,15.0026859 C50.1952677,14.4866967 48.3694502,14.2847125 45.8514328,14.2847125 C41.5510334,14.2847125 38.1122501,14.8206504 35.3539225,15.2532959 C32.1651384,15.7534588 29.8637989,16.4937523 28.4771487,14.8257906 C27.7823473,13.990034 28.085096,12.5214337 28.7189613,10.6703729 C29.5411802,8.26926773 31.1561319,5.21594415 33.5433166,1.50126928 L33.5433166,1.50126928 Z" id="路径" stroke="#3CD5E5" stroke-width="3" fill="#098D97"></path>
                <path d="M214.730625,247.078099 L214.816955,245.955918 C215.248603,243.196612 217.406843,241.126486 220.169389,240.608954 L221.291674,240.521837 L232.082872,240.521837 L233.205157,240.608954 C236.313022,241.126486 238.643921,243.886654 238.643921,247.078099 L238.643921,321.688898 L238.557592,323.326886 C237.866955,329.364754 233.118828,334.108793 227.075756,334.798835 L225.521824,334.885953 L120.286056,334.885953 L119.163771,334.798835 C116.401225,334.367559 114.329314,332.211177 113.811337,329.451872 L113.725007,328.329691 L113.725007,315.132636 L113.811337,314.01218 C114.242985,311.251149 116.401225,309.181886 119.163771,308.663492 L120.286056,308.578099 L214.730625,308.578099 L214.730625,247.078099" id="Stroke-540" stroke="#3CD5E5" fill="#07172F"></path>
                <polygon id="Stroke-542" stroke="#3CD5E5" fill="#07172F" points="56.5746474 120.541461 56.3156586 121.231503 55.7976811 121.748172 55.193374 122.094055 54.4164077 122.179448 45.2654713 122.179448 44.6611642 122.094055 44.0568571 121.83529 43.5388796 121.404013 43.2798908 120.800227 43.1072316 120.110184 43.1072316 119.506398 47.1647223 103.376664 58.9918758 57.4888661 59.2508646 56.8850792 59.6825125 56.3675477 60.3731493 55.9362714 60.9774564 55.8500161 61.6680931 55.9362714 70.473711 58.1789081 71.0780182 58.4376739 71.5959957 58.9552055 72.0276436 59.472737 72.1139732 60.1627791 72.1139732 60.8528212 71.4233365 63.3542237"></polygon>
                <path d="M68.0567416,137.61983 L42.4168539,137.61983 L41.4672285,137.706085 L40.517603,138.051106 L39.6543071,138.654893 L38.9636704,139.344935 L38.3593633,140.207487 L38.0140449,141.156295 L35.078839,155.043392 L208.083333,155.043392 C211.277528,155.043392 213.953745,157.372284 214.558052,160.477473 L214.644382,161.598792 L214.644382,218.699773 L214.730712,219.821092 C215.248689,222.495005 217.320599,224.651386 220.083146,225.168918 L221.205431,225.255173 L231.996629,225.255173 L233.118914,225.168918 C235.795131,224.651386 237.953371,222.58126 238.471348,219.821092 L238.557678,218.699773 L238.557678,146.590377 L235.881461,146.1591 L233.118914,145.98659 L230.442697,145.900335 L227.68015,146.072845 L225.003933,146.417866 L222.673034,146.504121 C207.910674,145.98659 196.946816,132.962046 200.48633,118.384907 L201.090637,116.401036 L201.953933,113.554612 L202.55824,110.621933 L202.989888,107.689255 L203.162547,104.67032 L203.162547,101.737642 L202.989888,98.7187076 L202.730899,95.2684972 C199.450375,63.6990722 171.13427,40.7551732 139.62397,44.1191283 C134.789513,44.6366599 130.041386,45.7579783 125.465918,47.3968282 L122.271723,48.6906571 L117.696255,50.6745281 C109.926592,53.6934621 101.89794,55.8498436 93.6966292,57.2299278 L88.7758427,57.9199698 L87.9125468,61.3701802 L68.0567416,137.61983 Z" id="Fill-543" stroke="#3CD5E5" fill="#07172F"></path>
                <g id="编组-22" transform="translate(113.725094, 170.000000)" stroke="#3CD5E5">
                    <path d="M6.56104869,30.758852 L5.43876404,30.6717342 C2.67621723,30.2404579 0.517977528,28.0840764 0.086329588,25.3247707 L-1.42108547e-14,24.2025898 L-1.42108547e-14,6.69363464 L0.086329588,5.57231627 C0.517977528,2.81214797 2.67621723,0.65576648 5.43876404,0.224490182 L6.56104869,0.138234923 L78.991573,0.138234923 L80.1138577,0.224490182 C82.8764045,0.65576648 85.0346442,2.81214797 85.4662921,5.57231627 L85.5526217,6.69363464 L85.5526217,24.2025898 L85.4662921,25.3247707 C85.0346442,28.0840764 82.8764045,30.2404579 80.1138577,30.6717342 L78.991573,30.758852 L6.56104869,30.758852 Z" id="Stroke-713" fill="#07172F"></path>
                    <g id="编组-21" transform="translate(6.274906, 0.000000)" fill="#0C7454" stroke-linecap="round" stroke-linejoin="round" stroke-width="0.72">
                        <polygon id="Stroke-716" points="26.4168539 13.1107994 32.9779026 13.1107994 32.9779026 0 26.4168539 0"></polygon>
                        <polygon id="Stroke-718" points="32.9770393 13.1107994 39.538088 13.1107994 39.538088 0 32.9770393 0"></polygon>
                        <polygon id="Stroke-720" points="39.538088 13.1107994 46.0991367 13.1107994 46.0991367 0 39.538088 0"></polygon>
                        <polygon id="Stroke-722" points="46.1 13.1107994 52.7473783 13.1107994 52.7473783 0 46.1 0"></polygon>
                        <polygon id="Stroke-724" points="52.7473783 13.1107994 59.308427 13.1107994 59.308427 0 52.7473783 0"></polygon>
                        <polygon id="Stroke-726" points="59.3075637 13.1107994 65.8686124 13.1107994 65.8686124 0 59.3075637 0"></polygon>
                        <polygon id="Stroke-728" points="65.9558052 13.1107994 72.5168539 13.1107994 72.5168539 0 65.9558052 0"></polygon>
                        <polygon id="Stroke-730" points="-3.55271368e-14 13.1107994 6.56104869 13.1107994 6.56104869 0 -3.55271368e-14 0"></polygon>
                        <polygon id="Stroke-732" points="6.64651498 13.1107994 13.2075637 13.1107994 13.2075637 0 6.64651498 0"></polygon>
                        <polygon id="Stroke-734" points="13.2075637 13.1107994 19.8549419 13.1107994 19.8549419 0 13.2075637 0"></polygon>
                        <polygon id="Stroke-736" points="19.8558052 13.1107994 26.4168539 13.1107994 26.4168539 0 19.8558052 0"></polygon>
                    </g>
                    <g id="编组-21备份" transform="translate(6.274906, 17.000000)" fill="#0C7454" stroke-linecap="round" stroke-linejoin="round" stroke-width="0.72">
                        <polygon id="Stroke-716" points="26.4168539 13.1107994 32.9779026 13.1107994 32.9779026 0 26.4168539 0"></polygon>
                        <polygon id="Stroke-718" points="32.9770393 13.1107994 39.538088 13.1107994 39.538088 0 32.9770393 0"></polygon>
                        <polygon id="Stroke-720" points="39.538088 13.1107994 46.0991367 13.1107994 46.0991367 0 39.538088 0"></polygon>
                        <polygon id="Stroke-722" points="46.1 13.1107994 52.7473783 13.1107994 52.7473783 0 46.1 0"></polygon>
                        <polygon id="Stroke-724" points="52.7473783 13.1107994 59.308427 13.1107994 59.308427 0 52.7473783 0"></polygon>
                        <polygon id="Stroke-726" points="59.3075637 13.1107994 65.8686124 13.1107994 65.8686124 0 59.3075637 0"></polygon>
                        <polygon id="Stroke-728" points="65.9558052 13.1107994 72.5168539 13.1107994 72.5168539 0 65.9558052 0"></polygon>
                        <polygon id="Stroke-730" points="-3.55271368e-14 13.1107994 6.56104869 13.1107994 6.56104869 0 -3.55271368e-14 0"></polygon>
                        <polygon id="Stroke-732" points="6.64651498 13.1107994 13.2075637 13.1107994 13.2075637 0 6.64651498 0"></polygon>
                        <polygon id="Stroke-734" points="13.2075637 13.1107994 19.8549419 13.1107994 19.8549419 0 13.2075637 0"></polygon>
                        <polygon id="Stroke-736" points="19.8558052 13.1107994 26.4168539 13.1107994 26.4168539 0 19.8558052 0"></polygon>
                    </g>
                </g>
                <g id="编组-22备份" transform="translate(113.725094, 216.000000)" stroke="#3CD5E5">
                    <path d="M6.56104869,30.758852 L5.43876404,30.6717342 C2.67621723,30.2404579 0.517977528,28.0840764 0.086329588,25.3247707 L-1.42108547e-14,24.2025898 L-1.42108547e-14,6.69363464 L0.086329588,5.57231627 C0.517977528,2.81214797 2.67621723,0.65576648 5.43876404,0.224490182 L6.56104869,0.138234923 L78.991573,0.138234923 L80.1138577,0.224490182 C82.8764045,0.65576648 85.0346442,2.81214797 85.4662921,5.57231627 L85.5526217,6.69363464 L85.5526217,24.2025898 L85.4662921,25.3247707 C85.0346442,28.0840764 82.8764045,30.2404579 80.1138577,30.6717342 L78.991573,30.758852 L6.56104869,30.758852 Z" id="Stroke-713" fill="#07172F"></path>
                    <g id="编组-21" transform="translate(6.274906, 0.000000)" fill="#0C7454" stroke-linecap="round" stroke-linejoin="round" stroke-width="0.72">
                        <polygon id="Stroke-716" points="26.4168539 13.1107994 32.9779026 13.1107994 32.9779026 0 26.4168539 0"></polygon>
                        <polygon id="Stroke-718" points="32.9770393 13.1107994 39.538088 13.1107994 39.538088 0 32.9770393 0"></polygon>
                        <polygon id="Stroke-720" points="39.538088 13.1107994 46.0991367 13.1107994 46.0991367 0 39.538088 0"></polygon>
                        <polygon id="Stroke-722" points="46.1 13.1107994 52.7473783 13.1107994 52.7473783 0 46.1 0"></polygon>
                        <polygon id="Stroke-724" points="52.7473783 13.1107994 59.308427 13.1107994 59.308427 0 52.7473783 0"></polygon>
                        <polygon id="Stroke-726" points="59.3075637 13.1107994 65.8686124 13.1107994 65.8686124 0 59.3075637 0"></polygon>
                        <polygon id="Stroke-728" points="65.9558052 13.1107994 72.5168539 13.1107994 72.5168539 0 65.9558052 0"></polygon>
                        <polygon id="Stroke-730" points="-3.55271368e-14 13.1107994 6.56104869 13.1107994 6.56104869 0 -3.55271368e-14 0"></polygon>
                        <polygon id="Stroke-732" points="6.64651498 13.1107994 13.2075637 13.1107994 13.2075637 0 6.64651498 0"></polygon>
                        <polygon id="Stroke-734" points="13.2075637 13.1107994 19.8549419 13.1107994 19.8549419 0 13.2075637 0"></polygon>
                        <polygon id="Stroke-736" points="19.8558052 13.1107994 26.4168539 13.1107994 26.4168539 0 19.8558052 0"></polygon>
                    </g>
                    <g id="编组-21备份" transform="translate(6.274906, 17.000000)" fill="#0C7454" stroke-linecap="round" stroke-linejoin="round" stroke-width="0.72">
                        <polygon id="Stroke-716" points="26.4168539 13.1107994 32.9779026 13.1107994 32.9779026 0 26.4168539 0"></polygon>
                        <polygon id="Stroke-718" points="32.9770393 13.1107994 39.538088 13.1107994 39.538088 0 32.9770393 0"></polygon>
                        <polygon id="Stroke-720" points="39.538088 13.1107994 46.0991367 13.1107994 46.0991367 0 39.538088 0"></polygon>
                        <polygon id="Stroke-722" points="46.1 13.1107994 52.7473783 13.1107994 52.7473783 0 46.1 0"></polygon>
                        <polygon id="Stroke-724" points="52.7473783 13.1107994 59.308427 13.1107994 59.308427 0 52.7473783 0"></polygon>
                        <polygon id="Stroke-726" points="59.3075637 13.1107994 65.8686124 13.1107994 65.8686124 0 59.3075637 0"></polygon>
                        <polygon id="Stroke-728" points="65.9558052 13.1107994 72.5168539 13.1107994 72.5168539 0 65.9558052 0"></polygon>
                        <polygon id="Stroke-730" points="-3.55271368e-14 13.1107994 6.56104869 13.1107994 6.56104869 0 -3.55271368e-14 0"></polygon>
                        <polygon id="Stroke-732" points="6.64651498 13.1107994 13.2075637 13.1107994 13.2075637 0 6.64651498 0"></polygon>
                        <polygon id="Stroke-734" points="13.2075637 13.1107994 19.8549419 13.1107994 19.8549419 0 13.2075637 0"></polygon>
                        <polygon id="Stroke-736" points="19.8558052 13.1107994 26.4168539 13.1107994 26.4168539 0 19.8558052 0"></polygon>
                    </g>
                </g>
                <g id="编组-22备份-2" transform="translate(113.725094, 263.000000)" stroke="#3CD5E5">
                    <path d="M6.56104869,30.758852 L5.43876404,30.6717342 C2.67621723,30.2404579 0.517977528,28.0840764 0.086329588,25.3247707 L-1.42108547e-14,24.2025898 L-1.42108547e-14,6.69363464 L0.086329588,5.57231627 C0.517977528,2.81214797 2.67621723,0.65576648 5.43876404,0.224490182 L6.56104869,0.138234923 L78.991573,0.138234923 L80.1138577,0.224490182 C82.8764045,0.65576648 85.0346442,2.81214797 85.4662921,5.57231627 L85.5526217,6.69363464 L85.5526217,24.2025898 L85.4662921,25.3247707 C85.0346442,28.0840764 82.8764045,30.2404579 80.1138577,30.6717342 L78.991573,30.758852 L6.56104869,30.758852 Z" id="Stroke-713" fill="#07172F"></path>
                    <g id="编组-21" transform="translate(6.274906, 0.000000)" fill="#0C7454" stroke-linecap="round" stroke-linejoin="round" stroke-width="0.72">
                        <polygon id="Stroke-716" points="26.4168539 13.1107994 32.9779026 13.1107994 32.9779026 0 26.4168539 0"></polygon>
                        <polygon id="Stroke-718" points="32.9770393 13.1107994 39.538088 13.1107994 39.538088 0 32.9770393 0"></polygon>
                        <polygon id="Stroke-720" points="39.538088 13.1107994 46.0991367 13.1107994 46.0991367 0 39.538088 0"></polygon>
                        <polygon id="Stroke-722" points="46.1 13.1107994 52.7473783 13.1107994 52.7473783 0 46.1 0"></polygon>
                        <polygon id="Stroke-724" points="52.7473783 13.1107994 59.308427 13.1107994 59.308427 0 52.7473783 0"></polygon>
                        <polygon id="Stroke-726" points="59.3075637 13.1107994 65.8686124 13.1107994 65.8686124 0 59.3075637 0"></polygon>
                        <polygon id="Stroke-728" points="65.9558052 13.1107994 72.5168539 13.1107994 72.5168539 0 65.9558052 0"></polygon>
                        <polygon id="Stroke-730" points="-3.55271368e-14 13.1107994 6.56104869 13.1107994 6.56104869 0 -3.55271368e-14 0"></polygon>
                        <polygon id="Stroke-732" points="6.64651498 13.1107994 13.2075637 13.1107994 13.2075637 0 6.64651498 0"></polygon>
                        <polygon id="Stroke-734" points="13.2075637 13.1107994 19.8549419 13.1107994 19.8549419 0 13.2075637 0"></polygon>
                        <polygon id="Stroke-736" points="19.8558052 13.1107994 26.4168539 13.1107994 26.4168539 0 19.8558052 0"></polygon>
                    </g>
                    <g id="编组-21备份" transform="translate(6.274906, 17.000000)" fill="#0C7454" stroke-linecap="round" stroke-linejoin="round" stroke-width="0.72">
                        <polygon id="Stroke-716" points="26.4168539 13.1107994 32.9779026 13.1107994 32.9779026 0 26.4168539 0"></polygon>
                        <polygon id="Stroke-718" points="32.9770393 13.1107994 39.538088 13.1107994 39.538088 0 32.9770393 0"></polygon>
                        <polygon id="Stroke-720" points="39.538088 13.1107994 46.0991367 13.1107994 46.0991367 0 39.538088 0"></polygon>
                        <polygon id="Stroke-722" points="46.1 13.1107994 52.7473783 13.1107994 52.7473783 0 46.1 0"></polygon>
                        <polygon id="Stroke-724" points="52.7473783 13.1107994 59.308427 13.1107994 59.308427 0 52.7473783 0"></polygon>
                        <polygon id="Stroke-726" points="59.3075637 13.1107994 65.8686124 13.1107994 65.8686124 0 59.3075637 0"></polygon>
                        <polygon id="Stroke-728" points="65.9558052 13.1107994 72.5168539 13.1107994 72.5168539 0 65.9558052 0"></polygon>
                        <polygon id="Stroke-730" points="-3.55271368e-14 13.1107994 6.56104869 13.1107994 6.56104869 0 -3.55271368e-14 0"></polygon>
                        <polygon id="Stroke-732" points="6.64651498 13.1107994 13.2075637 13.1107994 13.2075637 0 6.64651498 0"></polygon>
                        <polygon id="Stroke-734" points="13.2075637 13.1107994 19.8549419 13.1107994 19.8549419 0 13.2075637 0"></polygon>
                        <polygon id="Stroke-736" points="19.8558052 13.1107994 26.4168539 13.1107994 26.4168539 0 19.8558052 0"></polygon>
                    </g>
                </g>
                <path d="M32.6616105,167.550577 C25.5825843,203.777786 20.4891386,240.436271 17.2949438,277.181012 L16.0863296,292.448193 L16,295.294616 C16,315.995879 31.9709738,333.246931 52.6900749,334.798663 L55.5389513,334.885781 L91.8837079,334.885781 L93.0059925,334.798663 C95.6822097,334.281994 97.8404494,332.211005 98.358427,329.451699 L98.4447566,328.329518 L98.4447566,315.133326 L98.358427,314.012008 C97.8404494,311.338095 95.7685393,309.181713 93.0059925,308.664182 L91.8837079,308.577926 L43.5391386,308.577926 L41.985206,308.490809 C35.4241573,307.715374 30.4170412,302.108782 30.4170412,295.467127 L32.7479401,167.894736 L32.6616105,167.550577 Z" id="Fill-784" stroke="#3CD5E5" fill="#07172F"></path>
                <g id="编组-24" transform="translate(32.488865, 170.000000)" stroke="#3CD5E5">
                    <path d="M6.56104869,30.9315351 L5.43876404,30.8444173 C2.24456929,30.3277482 0,27.5675799 0,24.3752728 L0,6.78006241 L0.086329588,5.65788149 C0.517977528,2.89857574 2.67621723,0.74219425 5.43876404,0.310917952 L6.56104869,0.22380014 L59.308427,0.22380014 L60.4307116,0.310917952 C63.5385768,0.828449509 65.8694757,3.58861781 65.8694757,6.78006241 L65.8694757,24.2898801 L65.7831461,25.4111985 C65.3514981,28.1713668 63.1932584,30.2406304 60.4307116,30.7590245 L59.308427,30.8444173 L6.56104869,30.8444173 L6.56104869,30.9315351 Z" id="Stroke-829" fill="#07172F"></path>
                    <g id="编组-23" transform="translate(6.511135, 0.000000)" fill="#0C7454" stroke-linecap="round" stroke-linejoin="round" stroke-width="0.72">
                        <polygon id="Stroke-831" points="19.7686124 13.1107994 26.329661 13.1107994 26.329661 0 19.7686124 0"></polygon>
                        <polygon id="Stroke-833" points="26.3305243 13.1107994 32.891573 13.1107994 32.891573 0 26.3305243 0"></polygon>
                        <polygon id="Stroke-835" points="32.9779026 13.1107994 39.5389513 13.1107994 39.5389513 0 32.9779026 0"></polygon>
                        <polygon id="Stroke-837" points="39.538088 13.1107994 46.1854663 13.1107994 46.1854663 0 39.538088 0"></polygon>
                        <polygon id="Stroke-839" points="46.1863296 13.1107994 52.7473783 13.1107994 52.7473783 0 46.1863296 0"></polygon>
                        <polygon id="Stroke-841" points="13.1220974 13.1107994 19.7694757 13.1107994 19.7694757 0 13.1220974 0"></polygon>
                        <polygon id="Stroke-855" points="6.56104869 13.1107994 13.1220974 13.1107994 13.1220974 0 6.56104869 0"></polygon>
                        <polygon id="Stroke-857" points="-4.26325641e-14 13.1107994 6.56104869 13.1107994 6.56104869 0 -4.26325641e-14 0"></polygon>
                    </g>
                    <g id="编组-23备份" transform="translate(6.511135, 17.000000)" fill="#0C7454" stroke-linecap="round" stroke-linejoin="round" stroke-width="0.72">
                        <polygon id="Stroke-831" points="19.7686124 13.1107994 26.329661 13.1107994 26.329661 0 19.7686124 0"></polygon>
                        <polygon id="Stroke-833" points="26.3305243 13.1107994 32.891573 13.1107994 32.891573 0 26.3305243 0"></polygon>
                        <polygon id="Stroke-835" points="32.9779026 13.1107994 39.5389513 13.1107994 39.5389513 0 32.9779026 0"></polygon>
                        <polygon id="Stroke-837" points="39.538088 13.1107994 46.1854663 13.1107994 46.1854663 0 39.538088 0"></polygon>
                        <polygon id="Stroke-839" points="46.1863296 13.1107994 52.7473783 13.1107994 52.7473783 0 46.1863296 0"></polygon>
                        <polygon id="Stroke-841" points="13.1220974 13.1107994 19.7694757 13.1107994 19.7694757 0 13.1220974 0"></polygon>
                        <polygon id="Stroke-855" points="6.56104869 13.1107994 13.1220974 13.1107994 13.1220974 0 6.56104869 0"></polygon>
                        <polygon id="Stroke-857" points="-4.26325641e-14 13.1107994 6.56104869 13.1107994 6.56104869 0 -4.26325641e-14 0"></polygon>
                    </g>
                </g>
                <g id="编组-24备份" transform="translate(32.488865, 216.000000)" stroke="#3CD5E5">
                    <path d="M6.56104869,30.9315351 L5.43876404,30.8444173 C2.24456929,30.3277482 0,27.5675799 0,24.3752728 L0,6.78006241 L0.086329588,5.65788149 C0.517977528,2.89857574 2.67621723,0.74219425 5.43876404,0.310917952 L6.56104869,0.22380014 L59.308427,0.22380014 L60.4307116,0.310917952 C63.5385768,0.828449509 65.8694757,3.58861781 65.8694757,6.78006241 L65.8694757,24.2898801 L65.7831461,25.4111985 C65.3514981,28.1713668 63.1932584,30.2406304 60.4307116,30.7590245 L59.308427,30.8444173 L6.56104869,30.8444173 L6.56104869,30.9315351 Z" id="Stroke-829" fill="#07172F"></path>
                    <g id="编组-23" transform="translate(6.511135, 0.000000)" fill="#0C7454" stroke-linecap="round" stroke-linejoin="round" stroke-width="0.72">
                        <polygon id="Stroke-831" points="19.7686124 13.1107994 26.329661 13.1107994 26.329661 0 19.7686124 0"></polygon>
                        <polygon id="Stroke-833" points="26.3305243 13.1107994 32.891573 13.1107994 32.891573 0 26.3305243 0"></polygon>
                        <polygon id="Stroke-835" points="32.9779026 13.1107994 39.5389513 13.1107994 39.5389513 0 32.9779026 0"></polygon>
                        <polygon id="Stroke-837" points="39.538088 13.1107994 46.1854663 13.1107994 46.1854663 0 39.538088 0"></polygon>
                        <polygon id="Stroke-839" points="46.1863296 13.1107994 52.7473783 13.1107994 52.7473783 0 46.1863296 0"></polygon>
                        <polygon id="Stroke-841" points="13.1220974 13.1107994 19.7694757 13.1107994 19.7694757 0 13.1220974 0"></polygon>
                        <polygon id="Stroke-855" points="6.56104869 13.1107994 13.1220974 13.1107994 13.1220974 0 6.56104869 0"></polygon>
                        <polygon id="Stroke-857" points="-4.26325641e-14 13.1107994 6.56104869 13.1107994 6.56104869 0 -4.26325641e-14 0"></polygon>
                    </g>
                    <g id="编组-23备份" transform="translate(6.511135, 17.000000)" fill="#0C7454" stroke-linecap="round" stroke-linejoin="round" stroke-width="0.72">
                        <polygon id="Stroke-831" points="19.7686124 13.1107994 26.329661 13.1107994 26.329661 0 19.7686124 0"></polygon>
                        <polygon id="Stroke-833" points="26.3305243 13.1107994 32.891573 13.1107994 32.891573 0 26.3305243 0"></polygon>
                        <polygon id="Stroke-835" points="32.9779026 13.1107994 39.5389513 13.1107994 39.5389513 0 32.9779026 0"></polygon>
                        <polygon id="Stroke-837" points="39.538088 13.1107994 46.1854663 13.1107994 46.1854663 0 39.538088 0"></polygon>
                        <polygon id="Stroke-839" points="46.1863296 13.1107994 52.7473783 13.1107994 52.7473783 0 46.1863296 0"></polygon>
                        <polygon id="Stroke-841" points="13.1220974 13.1107994 19.7694757 13.1107994 19.7694757 0 13.1220974 0"></polygon>
                        <polygon id="Stroke-855" points="6.56104869 13.1107994 13.1220974 13.1107994 13.1220974 0 6.56104869 0"></polygon>
                        <polygon id="Stroke-857" points="-4.26325641e-14 13.1107994 6.56104869 13.1107994 6.56104869 0 -4.26325641e-14 0"></polygon>
                    </g>
                </g>
                <g id="编组-24备份-2" transform="translate(32.488865, 263.000000)" stroke="#3CD5E5">
                    <path d="M6.56104869,30.9315351 L5.43876404,30.8444173 C2.24456929,30.3277482 0,27.5675799 0,24.3752728 L0,6.78006241 L0.086329588,5.65788149 C0.517977528,2.89857574 2.67621723,0.74219425 5.43876404,0.310917952 L6.56104869,0.22380014 L59.308427,0.22380014 L60.4307116,0.310917952 C63.5385768,0.828449509 65.8694757,3.58861781 65.8694757,6.78006241 L65.8694757,24.2898801 L65.7831461,25.4111985 C65.3514981,28.1713668 63.1932584,30.2406304 60.4307116,30.7590245 L59.308427,30.8444173 L6.56104869,30.8444173 L6.56104869,30.9315351 Z" id="Stroke-829" fill="#07172F"></path>
                    <g id="编组-23" transform="translate(6.511135, 0.000000)" fill="#0C7454" stroke-linecap="round" stroke-linejoin="round" stroke-width="0.72">
                        <polygon id="Stroke-831" points="19.7686124 13.1107994 26.329661 13.1107994 26.329661 0 19.7686124 0"></polygon>
                        <polygon id="Stroke-833" points="26.3305243 13.1107994 32.891573 13.1107994 32.891573 0 26.3305243 0"></polygon>
                        <polygon id="Stroke-835" points="32.9779026 13.1107994 39.5389513 13.1107994 39.5389513 0 32.9779026 0"></polygon>
                        <polygon id="Stroke-837" points="39.538088 13.1107994 46.1854663 13.1107994 46.1854663 0 39.538088 0"></polygon>
                        <polygon id="Stroke-839" points="46.1863296 13.1107994 52.7473783 13.1107994 52.7473783 0 46.1863296 0"></polygon>
                        <polygon id="Stroke-841" points="13.1220974 13.1107994 19.7694757 13.1107994 19.7694757 0 13.1220974 0"></polygon>
                        <polygon id="Stroke-855" points="6.56104869 13.1107994 13.1220974 13.1107994 13.1220974 0 6.56104869 0"></polygon>
                        <polygon id="Stroke-857" points="-4.26325641e-14 13.1107994 6.56104869 13.1107994 6.56104869 0 -4.26325641e-14 0"></polygon>
                    </g>
                    <g id="编组-23备份" transform="translate(6.511135, 17.000000)" fill="#0C7454" stroke-linecap="round" stroke-linejoin="round" stroke-width="0.72">
                        <polygon id="Stroke-831" points="19.7686124 13.1107994 26.329661 13.1107994 26.329661 0 19.7686124 0"></polygon>
                        <polygon id="Stroke-833" points="26.3305243 13.1107994 32.891573 13.1107994 32.891573 0 26.3305243 0"></polygon>
                        <polygon id="Stroke-835" points="32.9779026 13.1107994 39.5389513 13.1107994 39.5389513 0 32.9779026 0"></polygon>
                        <polygon id="Stroke-837" points="39.538088 13.1107994 46.1854663 13.1107994 46.1854663 0 39.538088 0"></polygon>
                        <polygon id="Stroke-839" points="46.1863296 13.1107994 52.7473783 13.1107994 52.7473783 0 46.1863296 0"></polygon>
                        <polygon id="Stroke-841" points="13.1220974 13.1107994 19.7694757 13.1107994 19.7694757 0 13.1220974 0"></polygon>
                        <polygon id="Stroke-855" points="6.56104869 13.1107994 13.1220974 13.1107994 13.1220974 0 6.56104869 0"></polygon>
                        <polygon id="Stroke-857" points="-4.26325641e-14 13.1107994 6.56104869 13.1107994 6.56104869 0 -4.26325641e-14 0"></polygon>
                    </g>
                </g>
                <path d="M225.521824,16.0862553 L227.075756,16.1725105 C233.118828,16.8625526 237.866955,21.6065919 238.557592,27.64446 L238.643921,29.28331 L238.643921,142.105189 L235.881374,141.673913 L233.032498,141.501403 L230.269951,141.501403 L227.421075,141.673913 L224.658528,142.018934 L222.845607,142.018934 C211.018453,141.587658 202.126505,131.237027 204.889052,119.420056 L205.40703,117.694951 L206.356655,114.503506 L207.047292,111.312062 L207.47894,108.034362 L207.737929,104.756662 L207.737929,101.478962 L207.565269,98.2012623 L207.306281,94.7510519 C203.853097,60.7664797 173.378753,36.0112202 139.364895,39.5476858 C134.09879,40.0652174 128.832685,41.272791 123.911899,43.1704067 L120.631374,44.4642356 L116.401225,46.1893408 C109.322198,48.9495091 101.984183,51.0196353 94.4735092,52.3134642 L89.9843706,53.0897616 L89.9843706,51.8821879 C89.8117114,49.4670407 88.3441084,47.3969144 86.1858687,46.3618513 L85.0635841,46.0168303 L72.0278163,42.6528752 L70.9055316,42.2215989 C68.315644,41.0140252 66.7617114,38.2538569 67.1070298,35.4074334 L67.3660185,34.286115 L71.6824979,20.5715288 L72.1141459,19.4502104 C73.0637713,17.7251052 74.7903631,16.4312763 76.7759436,16.0862553 L77.8982283,16 L225.521824,16.0862553 Z" id="Fill-902" stroke="#3CD5E5" fill="#07172F"></path>
                <g id="编组-15" transform="translate(69.000000, 59.000000)">
                    <polygon id="Fill-862" fill="#0C7454" points="6.53877566 50.8637777 8.17644794 44.5153906 20.9670397 47.809479 19.3293674 54.1578661"></polygon>
                    <polygon id="Stroke-863" stroke="#3CD5E5" stroke-width="0.721" stroke-linecap="round" stroke-linejoin="round" points="6.53877566 50.8637777 8.17644794 44.5153906 20.9670397 47.809479 19.3293674 54.1578661"></polygon>
                    <polygon id="Fill-864" fill="#0C7454" points="8.17178614 44.60777 9.80945843 38.2593829 22.6000502 41.5534712 20.9623779 47.9018583"></polygon>
                    <polygon id="Stroke-865" stroke="#3CD5E5" stroke-width="0.721" stroke-linecap="round" stroke-linejoin="round" points="8.17178614 44.60777 9.80945843 38.2593829 22.6000502 41.5534712 20.9623779 47.9018583"></polygon>
                    <polygon id="Fill-866" fill="#0C7454" points="9.81826404 38.1722651 11.4559363 31.823878 24.2465281 35.1179663 22.6088558 41.4663534"></polygon>
                    <polygon id="Stroke-867" stroke="#3CD5E5" stroke-width="0.721" stroke-linecap="round" stroke-linejoin="round" points="9.81826404 38.1722651 11.4559363 31.823878 24.2465281 35.1179663 22.6088558 41.4663534"></polygon>
                    <polygon id="Fill-868" fill="#0C7454" points="24.2717363 35.1045105 25.9119985 28.7216213 13.1352195 25.4439215 11.4949573 31.7405554"></polygon>
                    <polygon id="Stroke-869" stroke="#3CD5E5" stroke-width="0.72" stroke-linecap="round" stroke-linejoin="round" points="24.2717363 35.1045105 25.9119985 28.7216213 13.1352195 25.4439215 11.4949573 31.7405554"></polygon>
                    <polygon id="Fill-870" fill="#0C7454" points="13.1285721 25.5026613 14.7662444 19.1542742 27.5568361 22.4483626 25.9191639 28.7967496"></polygon>
                    <polygon id="Stroke-871" stroke="#3CD5E5" stroke-width="0.721" stroke-linecap="round" stroke-linejoin="round" points="13.1285721 25.5026613 14.7662444 19.1542742 27.5568361 22.4483626 25.9191639 28.7967496"></polygon>
                    <polygon id="Fill-872" fill="#0C7454" points="27.5525197 22.3384734 29.1927818 15.9555842 16.4160028 12.6778843 14.7757406 19.0607735"></polygon>
                    <polygon id="Stroke-873" stroke="#3CD5E5" stroke-width="0.72" stroke-linecap="round" stroke-linejoin="round" points="27.5525197 22.3384734 29.1927818 15.9555842 16.4160028 12.6778843 14.7757406 19.0607735"></polygon>
                    <polygon id="Fill-874" fill="#0C7454" points="29.1926955 15.9556704 30.8329577 9.57278121 18.1425082 6.29508135 16.4159165 12.6779705"></polygon>
                    <polygon id="Stroke-875" stroke="#3CD5E5" stroke-width="0.72" stroke-linecap="round" stroke-linejoin="round" points="29.1926955 15.9556704 30.8329577 9.57278121 18.1425082 6.29508135 16.4159165 12.6779705"></polygon>
                    <polygon id="Fill-876" fill="#0C7454" points="-5.68434189e-14 76.1797826 1.63767228 69.8313955 14.428264 73.1254839 12.7905918 79.4730084"></polygon>
                    <polygon id="Stroke-877" stroke="#3CD5E5" stroke-width="0.721" stroke-linecap="round" stroke-linejoin="round" points="-5.68434189e-14 76.1797826 1.63767228 69.8313955 14.428264 73.1254839 12.7905918 79.4730084"></polygon>
                    <polygon id="Fill-878" fill="#0C7454" points="14.4302496 73.3158492 16.0705118 66.93296 3.29373277 63.6552602 1.6534706 70.0372868"></polygon>
                    <polygon id="Stroke-879" stroke="#3CD5E5" stroke-width="0.72" stroke-linecap="round" stroke-linejoin="round" points="14.4302496 73.3158492 16.0705118 66.93296 3.29373277 63.6552602 1.6534706 70.0372868"></polygon>
                    <polygon id="Fill-880" fill="#0C7454" points="16.0704255 66.8467048 17.7106876 60.4638156 5.0202382 57.1861157 3.29364644 63.5681424"></polygon>
                    <polygon id="Stroke-881" stroke="#3CD5E5" stroke-width="0.72" stroke-linecap="round" stroke-linejoin="round" points="16.0704255 66.8467048 17.7106876 60.4638156 5.0202382 57.1861157 3.29364644 63.5681424"></polygon>
                    <polygon id="Fill-882" fill="#0C7454" points="17.711033 60.4634705 19.3512951 54.0805813 6.5745161 50.8028815 5.02058352 57.1857707"></polygon>
                    <polygon id="Stroke-883" stroke="#3CD5E5" stroke-width="0.72" stroke-linecap="round" stroke-linejoin="round" points="17.711033 60.4634705 19.3512951 54.0805813 6.5745161 50.8028815 5.02058352 57.1857707"></polygon>
                    <polygon id="Fill-898" fill="#0C7454" points="18.0255316 6.3483871 19.6632039 1.42108547e-14 32.4537957 3.29408836 30.8161234 9.64247546"></polygon>
                    <polygon id="Stroke-899" stroke="#3CD5E5" stroke-width="0.721" stroke-linecap="round" stroke-linejoin="round" points="18.0255316 6.3483871 19.6632039 1.42108547e-14 32.4537957 3.29408836 30.8161234 9.64247546"></polygon>
                </g>
                <g id="编组-16" transform="translate(47.000000, 59.000000)">
                    <polygon id="Fill-884" fill="#0C7454" points="6.71126217 19.0761269 8.34893446 12.7277398 21.1395262 16.0218282 19.5018539 22.3702153"></polygon>
                    <polygon id="Stroke-885" stroke="#3CD5E5" stroke-width="0.721" stroke-linecap="round" stroke-linejoin="round" points="6.71126217 19.0761269 8.34893446 12.7277398 21.1395262 16.0218282 19.5018539 22.3702153"></polygon>
                    <polygon id="Fill-886" fill="#0C7454" points="8.37673258 12.7640533 10.0144049 6.4156662 22.8058599 9.70975456 21.1681876 16.0581417"></polygon>
                    <polygon id="Stroke-887" stroke="#3CD5E5" stroke-width="0.721" stroke-linecap="round" stroke-linejoin="round" points="8.37673258 12.7640533 10.0144049 6.4156662 22.8058599 9.70975456 21.1681876 16.0581417"></polygon>
                    <polygon id="Fill-888" fill="#FF002B" points="10.1222305 6.3483871 11.7599028 1.42108547e-14 24.5504946 3.29408836 22.9128223 9.64247546"></polygon>
                    <polygon id="Stroke-889" stroke="#3CD5E5" stroke-width="0.721" stroke-linecap="round" stroke-linejoin="round" points="10.1222305 6.3483871 11.7599028 1.42108547e-14 24.5504946 3.29408836 22.9128223 9.64247546"></polygon>
                    <polygon id="Fill-890" fill="#0C7454" points="-5.15143483e-14 45.0512083 1.63767228 38.7028212 14.428264 41.9969095 12.7905918 48.3452966"></polygon>
                    <polygon id="Stroke-891" stroke="#3CD5E5" stroke-width="0.721" stroke-linecap="round" stroke-linejoin="round" points="-5.15143483e-14 45.0512083 1.63767228 38.7028212 14.428264 41.9969095 12.7905918 48.3452966"></polygon>
                    <polygon id="Fill-892" fill="#0C7454" points="1.81939607 38.5947433 3.45706835 32.2463562 16.2476601 35.5404446 14.6099878 41.8888317"></polygon>
                    <polygon id="Stroke-893" stroke="#3CD5E5" stroke-width="0.721" stroke-linecap="round" stroke-linejoin="round" points="1.81939607 38.5947433 3.45706835 32.2463562 16.2476601 35.5404446 14.6099878 41.8888317"></polygon>
                    <polygon id="Fill-894" fill="#0C7454" points="16.2487824 35.5934916 17.8890446 29.1243471 5.19859513 25.9329025 3.47200337 32.2295365"></polygon>
                    <polygon id="Stroke-895" stroke="#3CD5E5" stroke-width="0.72" stroke-linecap="round" stroke-linejoin="round" points="16.2487824 35.5934916 17.8890446 29.1243471 5.19859513 25.9329025 3.47200337 32.2295365"></polygon>
                    <polygon id="Fill-896" fill="#0C7454" points="17.802974 28.7794123 19.4432361 22.4827784 6.7527867 19.1188233 5.11252453 25.5879677"></polygon>
                    <polygon id="Stroke-897" stroke="#3CD5E5" stroke-width="0.72" stroke-linecap="round" stroke-linejoin="round" points="17.802974 28.7794123 19.4432361 22.4827784 6.7527867 19.1188233 5.11252453 25.5879677"></polygon>
                </g>
                <g id="编组-17" transform="translate(98.000000, 142.000000)" fill="#0C7454" stroke="#3CD5E5" stroke-linecap="round" stroke-linejoin="round" stroke-width="0.72">
                    <polygon id="Stroke-587" points="52.6610487 13.1099369 59.308427 13.1099369 59.308427 5.68434189e-14 52.6610487 5.68434189e-14"></polygon>
                    <polygon id="Stroke-589" points="59.3092903 13.1099369 65.870339 13.1099369 65.870339 5.68434189e-14 59.3092903 5.68434189e-14"></polygon>
                    <polygon id="Stroke-591" points="65.870339 13.1099369 72.4313876 13.1099369 72.4313876 5.68434189e-14 65.870339 5.68434189e-14"></polygon>
                    <polygon id="Stroke-593" points="72.4313876 13.1099369 78.9924363 13.1099369 78.9924363 5.68434189e-14 72.4313876 5.68434189e-14"></polygon>
                    <polygon id="Stroke-595" points="79.0779026 13.1099369 85.6389513 13.1099369 85.6389513 5.68434189e-14 79.0779026 5.68434189e-14"></polygon>
                    <polygon id="Stroke-597" points="85.6398146 13.1099369 92.2871929 13.1099369 92.2871929 5.68434189e-14 85.6398146 5.68434189e-14"></polygon>
                    <polygon id="Stroke-599" points="92.2871929 13.1099369 98.8482416 13.1099369 98.8482416 5.68434189e-14 92.2871929 5.68434189e-14"></polygon>
                    <polygon id="Stroke-601" points="19.770339 13.1099369 26.4177172 13.1099369 26.4177172 5.68434189e-14 19.770339 5.68434189e-14"></polygon>
                    <polygon id="Stroke-603" points="26.3305243 13.1099369 32.891573 13.1099369 32.891573 5.68434189e-14 26.3305243 5.68434189e-14"></polygon>
                    <polygon id="Stroke-605" points="32.9787659 13.1099369 39.5398146 13.1099369 39.5398146 5.68434189e-14 32.9787659 5.68434189e-14"></polygon>
                    <polygon id="Stroke-607" points="39.5398146 13.1099369 46.1008633 13.1099369 46.1008633 5.68434189e-14 39.5398146 5.68434189e-14"></polygon>
                    <polygon id="Stroke-609" points="46.1008633 13.1099369 52.661912 13.1099369 52.661912 5.68434189e-14 46.1008633 5.68434189e-14"></polygon>
                    <polygon id="Stroke-615" points="6.56104869 13.1099369 13.1220974 13.1099369 13.1220974 5.68434189e-14 6.56104869 5.68434189e-14"></polygon>
                    <polygon id="Stroke-617" points="13.1229607 13.1099369 19.6840094 13.1099369 19.6840094 5.68434189e-14 13.1229607 5.68434189e-14"></polygon>
                    <polygon id="Stroke-901" points="-4.26325641e-14 13.1099369 6.56104869 13.1099369 6.56104869 5.68434189e-14 -4.26325641e-14 5.68434189e-14"></polygon>
                </g>
                <g id="编组-18" transform="translate(215.000000, 164.000000)" fill="#0C7454" stroke="#3CD5E5" stroke-linecap="round" stroke-linejoin="round" stroke-width="0.72">
                    <polygon id="Stroke-905" points="4.17443857e-14 46.1465638 13.1220974 46.1465638 13.1220974 39.5911641 4.17443857e-14 39.5911641"></polygon>
                    <polygon id="Stroke-907" points="4.17443857e-14 39.5049088 13.1220974 39.5049088 13.1220974 32.9495091 4.17443857e-14 32.9495091"></polygon>
                    <polygon id="Stroke-909" points="4.17443857e-14 32.9495091 13.1220974 32.9495091 13.1220974 26.3941094 4.17443857e-14 26.3941094"></polygon>
                    <polygon id="Stroke-911" points="4.17443857e-14 26.3078541 13.1220974 26.3078541 13.1220974 19.7524544 4.17443857e-14 19.7524544"></polygon>
                    <polygon id="Stroke-913" points="4.17443857e-14 19.753317 13.1220974 19.753317 13.1220974 13.1970547 4.17443857e-14 13.1970547"></polygon>
                    <polygon id="Stroke-915" points="4.17443857e-14 13.1970547 13.1220974 13.1970547 13.1220974 6.64165498 4.17443857e-14 6.64165498"></polygon>
                    <polygon id="Stroke-917" points="4.17443857e-14 6.55626227 13.1220974 6.55626227 13.1220974 -2.84217094e-14 4.17443857e-14 -2.84217094e-14"></polygon>
                </g>
                <g id="编组-19" transform="translate(215.000000, 251.000000)" fill="#0C7454" stroke="#3CD5E5" stroke-linecap="round" stroke-linejoin="round" stroke-width="0.72">
                    <polygon id="Stroke-563" points="-7.1942452e-14 52.4457854 13.1220974 52.4457854 13.1220974 45.8903857 -7.1942452e-14 45.8903857"></polygon>
                    <polygon id="Stroke-565" points="-7.1942452e-14 45.8903857 13.1220974 45.8903857 13.1220974 39.3341234 -7.1942452e-14 39.3341234"></polygon>
                    <polygon id="Stroke-567" points="-7.1942452e-14 39.3341234 13.1220974 39.3341234 13.1220974 32.7787237 -7.1942452e-14 32.7787237"></polygon>
                    <polygon id="Stroke-569" points="-7.1942452e-14 32.7787237 13.1220974 32.7787237 13.1220974 26.2224614 -7.1942452e-14 26.2224614"></polygon>
                    <polygon id="Stroke-571" points="-7.1942452e-14 26.2224614 13.1220974 26.2224614 13.1220974 19.6670617 -7.1942452e-14 19.6670617"></polygon>
                    <polygon id="Stroke-573" points="-7.1942452e-14 19.6670617 13.1220974 19.6670617 13.1220974 13.111662 -7.1942452e-14 13.111662"></polygon>
                    <polygon id="Stroke-575" points="-7.1942452e-14 13.111662 13.1220974 13.111662 13.1220974 6.55539972 -7.1942452e-14 6.55539972"></polygon>
                    <polygon id="Stroke-577" points="-7.1942452e-14 6.55539972 13.1220974 6.55539972 13.1220974 5.68434189e-14 -7.1942452e-14 5.68434189e-14"></polygon>
                </g>
                <g id="编组-20" transform="translate(122.000000, 309.000000)" fill="#0C7454" stroke="#3CD5E5" stroke-linecap="round" stroke-linejoin="round" stroke-width="0.72">
                    <polygon id="Stroke-547" points="26.3305243 13.1107994 32.891573 13.1107994 32.891573 0 26.3305243 0"></polygon>
                    <polygon id="Stroke-549" points="32.8907097 13.1107994 39.538088 13.1107994 39.538088 0 32.8907097 0"></polygon>
                    <polygon id="Stroke-551" points="39.5389513 13.1107994 46.1 13.1107994 46.1 0 39.5389513 0"></polygon>
                    <polygon id="Stroke-553" points="46.1 13.1107994 52.6610487 13.1107994 52.6610487 0 46.1 0"></polygon>
                    <polygon id="Stroke-555" points="52.6610487 13.1107994 59.2220974 13.1107994 59.2220974 0 52.6610487 0"></polygon>
                    <polygon id="Stroke-557" points="59.3075637 13.1107994 65.8686124 13.1107994 65.8686124 0 59.3075637 0"></polygon>
                    <polygon id="Stroke-559" points="79.0770393 13.1107994 85.638088 13.1107994 85.638088 0 79.0770393 0"></polygon>
                    <polygon id="Stroke-561" points="85.638088 13.1107994 92.1991367 13.1107994 92.1991367 0 85.638088 0"></polygon>
                    <polygon id="Stroke-579" points="2.84217094e-14 13.1107994 6.64737828 13.1107994 6.64737828 0 2.84217094e-14 0"></polygon>
                    <polygon id="Stroke-581" points="6.56018539 13.1107994 13.1212341 13.1107994 13.1212341 0 6.56018539 0"></polygon>
                    <polygon id="Stroke-583" points="13.208427 13.1107994 19.7694757 13.1107994 19.7694757 0 13.208427 0"></polygon>
                    <polygon id="Stroke-585" points="19.7694757 13.1107994 26.3305243 13.1107994 26.3305243 0 19.7694757 0"></polygon>
                    <polygon id="Stroke-611" points="65.8694757 13.1107994 72.5168539 13.1107994 72.5168539 0 65.8694757 0"></polygon>
                    <polygon id="Stroke-613" points="72.5168539 13.1107994 79.0779026 13.1107994 79.0779026 0 72.5168539 0"></polygon>
                </g>
            </g>
        </g>
    </g>
</svg>