<?xml version="1.0" encoding="utf-8"?>
<!-- Generator: Adobe Illustrator 21.0.0, SVG Export Plug-In . SVG Version: 6.00 Build 0)  -->
<svg version="1.1" id="图层_1" xmlns="http://www.w3.org/2000/svg" xmlns:xlink="http://www.w3.org/1999/xlink" x="0px" y="0px"
	 viewBox="0 0 255 351" style="enable-background:new 0 0 255 351;" xml:space="preserve">
<style type="text/css">
	.st0{fill:#098D97;stroke:#3CD5E5;stroke-width:3;}
	.st1{fill:#07172F;stroke:#3CD5E5;}
	.st2{fill:#0C7454;stroke:#3CD5E5;stroke-width:0.72;stroke-linecap:round;stroke-linejoin:round;}
	.st3{fill:none;stroke:#3CD5E5;stroke-width:0.721;stroke-linecap:round;stroke-linejoin:round;}
	.st4{fill:none;stroke:#3CD5E5;stroke-width:0.72;stroke-linecap:round;stroke-linejoin:round;}
</style>
<title>公共停车场</title>
<path id="路径" class="st0" d="M33.5,1.5l219.4,0.3l-0.4,347.3H50.7C32.3,346,19,338.5,11,326.4c-8.1-12.1-11-28.7-8.7-49.8
	C9.3,212.2,42.1,68.1,48.6,43.7c1-3.7,1.9-6.8,2.6-9.6c2.4-8.5,3.6-13.2,3-15.8c-0.4-1.6-1.2-2.7-2.8-3.3c-1.3-0.5-3.1-0.7-5.6-0.7
	c-4.3,0-7.7,0.5-10.5,1c-3.2,0.5-5.5,1.2-6.9-0.4c-0.7-0.8-0.4-2.3,0.2-4.2C29.5,8.3,31.2,5.2,33.5,1.5L33.5,1.5z"/>
<path id="Stroke-540" class="st1" d="M214.7,247.1l0.1-1.1c0.4-2.8,2.6-4.8,5.4-5.3l1.1-0.1h10.8l1.1,0.1c3.1,0.5,5.4,3.3,5.4,6.5
	v74.6l-0.1,1.6c-0.7,6-5.4,10.8-11.5,11.5l-1.6,0.1H120.3l-1.1-0.1c-2.8-0.4-4.8-2.6-5.4-5.3l-0.1-1.1v-13.2l0.1-1.1
	c0.4-2.8,2.6-4.8,5.4-5.3l1.1-0.1h94.4V247.1"/>
<polygon id="Stroke-542" class="st1" points="56.6,120.5 56.3,121.2 55.8,121.7 55.2,122.1 54.4,122.2 45.3,122.2 44.7,122.1 
	44.1,121.8 43.5,121.4 43.3,120.8 43.1,120.1 43.1,119.5 47.2,103.4 59,57.5 59.3,56.9 59.7,56.4 60.4,55.9 61,55.9 61.7,55.9 
	70.5,58.2 71.1,58.4 71.6,59 72,59.5 72.1,60.2 72.1,60.9 71.4,63.4 "/>
<path id="Fill-543" class="st1" d="M68.1,137.6H42.4l-0.9,0.1l-0.9,0.3l-0.9,0.6l-0.7,0.7l-0.6,0.9l-0.3,0.9L35.1,155h173
	c3.2,0,5.9,2.3,6.5,5.4l0.1,1.1v57.1l0.1,1.1c0.5,2.7,2.6,4.8,5.4,5.3l1.1,0.1H232l1.1-0.1c2.7-0.5,4.8-2.6,5.4-5.3l0.1-1.1v-72.1
	l-2.7-0.4l-2.8-0.2l-2.7-0.1l-2.8,0.2l-2.7,0.3l-2.3,0.1c-14.8-0.5-25.7-13.5-22.2-28.1l0.6-2l0.9-2.8l0.6-2.9l0.4-2.9l0.2-3v-2.9
	l-0.2-3l-0.3-3.5c-3.3-31.6-31.6-54.5-63.1-51.1c-4.8,0.5-9.6,1.6-14.2,3.3l-3.2,1.3l-4.6,2c-7.8,3-15.8,5.2-24,6.6l-4.9,0.7
	l-0.9,3.5L68.1,137.6z"/>
<g id="编组-22" transform="translate(113.725094, 170.000000)">
	<path id="Stroke-713" class="st1" d="M6.6,30.8l-1.1-0.1c-2.8-0.4-4.9-2.6-5.4-5.3L0,24.2V6.7l0.1-1.1c0.4-2.8,2.6-4.9,5.4-5.3
		l1.1-0.1H79l1.1,0.1c2.8,0.4,4.9,2.6,5.4,5.3l0.1,1.1v17.5l-0.1,1.1c-0.4,2.8-2.6,4.9-5.4,5.3L79,30.8H6.6z"/>
	<g id="编组-21" transform="translate(6.274906, 0.000000)">
		<polygon id="Stroke-716" class="st2" points="26.4,13.1 33,13.1 33,0 26.4,0 		"/>
		<polygon id="Stroke-718" class="st2" points="33,13.1 39.5,13.1 39.5,0 33,0 		"/>
		<polygon id="Stroke-720" class="st2" points="39.5,13.1 46.1,13.1 46.1,0 39.5,0 		"/>
		<polygon id="Stroke-722" class="st2" points="46.1,13.1 52.7,13.1 52.7,0 46.1,0 		"/>
		<polygon id="Stroke-724" class="st2" points="52.7,13.1 59.3,13.1 59.3,0 52.7,0 		"/>
		<polygon id="Stroke-726" class="st2" points="59.3,13.1 65.9,13.1 65.9,0 59.3,0 		"/>
		<polygon id="Stroke-728" class="st2" points="66,13.1 72.5,13.1 72.5,0 66,0 		"/>
		<polygon id="Stroke-730" class="st2" points="0,13.1 6.6,13.1 6.6,0 0,0 		"/>
		<polygon id="Stroke-732" class="st2" points="6.6,13.1 13.2,13.1 13.2,0 6.6,0 		"/>
		<polygon id="Stroke-734" class="st2" points="13.2,13.1 19.9,13.1 19.9,0 13.2,0 		"/>
		<polygon id="Stroke-736" class="st2" points="19.9,13.1 26.4,13.1 26.4,0 19.9,0 		"/>
	</g>
	<g id="编组-21备份" transform="translate(6.274906, 17.000000)">
		<polygon id="Stroke-716_1_" class="st2" points="26.4,13.1 33,13.1 33,0 26.4,0 		"/>
		<polygon id="Stroke-718_1_" class="st2" points="33,13.1 39.5,13.1 39.5,0 33,0 		"/>
		<polygon id="Stroke-720_1_" class="st2" points="39.5,13.1 46.1,13.1 46.1,0 39.5,0 		"/>
		<polygon id="Stroke-722_1_" class="st2" points="46.1,13.1 52.7,13.1 52.7,0 46.1,0 		"/>
		<polygon id="Stroke-724_1_" class="st2" points="52.7,13.1 59.3,13.1 59.3,0 52.7,0 		"/>
		<polygon id="Stroke-726_1_" class="st2" points="59.3,13.1 65.9,13.1 65.9,0 59.3,0 		"/>
		<polygon id="Stroke-728_1_" class="st2" points="66,13.1 72.5,13.1 72.5,0 66,0 		"/>
		<polygon id="Stroke-730_1_" class="st2" points="0,13.1 6.6,13.1 6.6,0 0,0 		"/>
		<polygon id="Stroke-732_1_" class="st2" points="6.6,13.1 13.2,13.1 13.2,0 6.6,0 		"/>
		<polygon id="Stroke-734_1_" class="st2" points="13.2,13.1 19.9,13.1 19.9,0 13.2,0 		"/>
		<polygon id="Stroke-736_1_" class="st2" points="19.9,13.1 26.4,13.1 26.4,0 19.9,0 		"/>
	</g>
</g>
<g id="编组-22备份" transform="translate(113.725094, 216.000000)">
	<path id="Stroke-713_1_" class="st1" d="M6.6,30.8l-1.1-0.1c-2.8-0.4-4.9-2.6-5.4-5.3L0,24.2V6.7l0.1-1.1c0.4-2.8,2.6-4.9,5.4-5.3
		l1.1-0.1H79l1.1,0.1c2.8,0.4,4.9,2.6,5.4,5.3l0.1,1.1v17.5l-0.1,1.1c-0.4,2.8-2.6,4.9-5.4,5.3L79,30.8H6.6z"/>
	<g id="编组-21_1_" transform="translate(6.274906, 0.000000)">
		<polygon id="Stroke-716_2_" class="st2" points="26.4,13.1 33,13.1 33,0 26.4,0 		"/>
		<polygon id="Stroke-718_2_" class="st2" points="33,13.1 39.5,13.1 39.5,0 33,0 		"/>
		<polygon id="Stroke-720_2_" class="st2" points="39.5,13.1 46.1,13.1 46.1,0 39.5,0 		"/>
		<polygon id="Stroke-722_2_" class="st2" points="46.1,13.1 52.7,13.1 52.7,0 46.1,0 		"/>
		<polygon id="Stroke-724_2_" class="st2" points="52.7,13.1 59.3,13.1 59.3,0 52.7,0 		"/>
		<polygon id="Stroke-726_2_" class="st2" points="59.3,13.1 65.9,13.1 65.9,0 59.3,0 		"/>
		<polygon id="Stroke-728_2_" class="st2" points="66,13.1 72.5,13.1 72.5,0 66,0 		"/>
		<polygon id="Stroke-730_2_" class="st2" points="0,13.1 6.6,13.1 6.6,0 0,0 		"/>
		<polygon id="Stroke-732_2_" class="st2" points="6.6,13.1 13.2,13.1 13.2,0 6.6,0 		"/>
		<polygon id="Stroke-734_2_" class="st2" points="13.2,13.1 19.9,13.1 19.9,0 13.2,0 		"/>
		<polygon id="Stroke-736_2_" class="st2" points="19.9,13.1 26.4,13.1 26.4,0 19.9,0 		"/>
	</g>
	<g id="编组-21备份_1_" transform="translate(6.274906, 17.000000)">
		<polygon id="Stroke-716_3_" class="st2" points="26.4,13.1 33,13.1 33,0 26.4,0 		"/>
		<polygon id="Stroke-718_3_" class="st2" points="33,13.1 39.5,13.1 39.5,0 33,0 		"/>
		<polygon id="Stroke-720_3_" class="st2" points="39.5,13.1 46.1,13.1 46.1,0 39.5,0 		"/>
		<polygon id="Stroke-722_3_" class="st2" points="46.1,13.1 52.7,13.1 52.7,0 46.1,0 		"/>
		<polygon id="Stroke-724_3_" class="st2" points="52.7,13.1 59.3,13.1 59.3,0 52.7,0 		"/>
		<polygon id="Stroke-726_3_" class="st2" points="59.3,13.1 65.9,13.1 65.9,0 59.3,0 		"/>
		<polygon id="Stroke-728_3_" class="st2" points="66,13.1 72.5,13.1 72.5,0 66,0 		"/>
		<polygon id="Stroke-730_3_" class="st2" points="0,13.1 6.6,13.1 6.6,0 0,0 		"/>
		<polygon id="Stroke-732_3_" class="st2" points="6.6,13.1 13.2,13.1 13.2,0 6.6,0 		"/>
		<polygon id="Stroke-734_3_" class="st2" points="13.2,13.1 19.9,13.1 19.9,0 13.2,0 		"/>
		<polygon id="Stroke-736_3_" class="st2" points="19.9,13.1 26.4,13.1 26.4,0 19.9,0 		"/>
	</g>
</g>
<g id="编组-22备份-2" transform="translate(113.725094, 263.000000)">
	<path id="Stroke-713_2_" class="st1" d="M6.6,30.8l-1.1-0.1c-2.8-0.4-4.9-2.6-5.4-5.3L0,24.2V6.7l0.1-1.1c0.4-2.8,2.6-4.9,5.4-5.3
		l1.1-0.1H79l1.1,0.1c2.8,0.4,4.9,2.6,5.4,5.3l0.1,1.1v17.5l-0.1,1.1c-0.4,2.8-2.6,4.9-5.4,5.3L79,30.8H6.6z"/>
	<g id="编组-21_2_" transform="translate(6.274906, 0.000000)">
		<polygon id="Stroke-716_4_" class="st2" points="26.4,13.1 33,13.1 33,0 26.4,0 		"/>
		<polygon id="Stroke-718_4_" class="st2" points="33,13.1 39.5,13.1 39.5,0 33,0 		"/>
		<polygon id="Stroke-720_4_" class="st2" points="39.5,13.1 46.1,13.1 46.1,0 39.5,0 		"/>
		<polygon id="Stroke-722_4_" class="st2" points="46.1,13.1 52.7,13.1 52.7,0 46.1,0 		"/>
		<polygon id="Stroke-724_4_" class="st2" points="52.7,13.1 59.3,13.1 59.3,0 52.7,0 		"/>
		<polygon id="Stroke-726_4_" class="st2" points="59.3,13.1 65.9,13.1 65.9,0 59.3,0 		"/>
		<polygon id="Stroke-728_4_" class="st2" points="66,13.1 72.5,13.1 72.5,0 66,0 		"/>
		<polygon id="Stroke-730_4_" class="st2" points="0,13.1 6.6,13.1 6.6,0 0,0 		"/>
		<polygon id="Stroke-732_4_" class="st2" points="6.6,13.1 13.2,13.1 13.2,0 6.6,0 		"/>
		<polygon id="Stroke-734_4_" class="st2" points="13.2,13.1 19.9,13.1 19.9,0 13.2,0 		"/>
		<polygon id="Stroke-736_4_" class="st2" points="19.9,13.1 26.4,13.1 26.4,0 19.9,0 		"/>
	</g>
	<g id="编组-21备份_2_" transform="translate(6.274906, 17.000000)">
		<polygon id="Stroke-716_5_" class="st2" points="26.4,13.1 33,13.1 33,0 26.4,0 		"/>
		<polygon id="Stroke-718_5_" class="st2" points="33,13.1 39.5,13.1 39.5,0 33,0 		"/>
		<polygon id="Stroke-720_5_" class="st2" points="39.5,13.1 46.1,13.1 46.1,0 39.5,0 		"/>
		<polygon id="Stroke-722_5_" class="st2" points="46.1,13.1 52.7,13.1 52.7,0 46.1,0 		"/>
		<polygon id="Stroke-724_5_" class="st2" points="52.7,13.1 59.3,13.1 59.3,0 52.7,0 		"/>
		<polygon id="Stroke-726_5_" class="st2" points="59.3,13.1 65.9,13.1 65.9,0 59.3,0 		"/>
		<polygon id="Stroke-728_5_" class="st2" points="66,13.1 72.5,13.1 72.5,0 66,0 		"/>
		<polygon id="Stroke-730_5_" class="st2" points="0,13.1 6.6,13.1 6.6,0 0,0 		"/>
		<polygon id="Stroke-732_5_" class="st2" points="6.6,13.1 13.2,13.1 13.2,0 6.6,0 		"/>
		<polygon id="Stroke-734_5_" class="st2" points="13.2,13.1 19.9,13.1 19.9,0 13.2,0 		"/>
		<polygon id="Stroke-736_5_" class="st2" points="19.9,13.1 26.4,13.1 26.4,0 19.9,0 		"/>
	</g>
</g>
<path id="Fill-784" class="st1" d="M32.7,167.6c-7.1,36.2-12.2,72.9-15.4,109.6l-1.2,15.3l-0.1,2.8c0,20.7,16,38,36.7,39.5l2.8,0.1
	h36.3l1.1-0.1c2.7-0.5,4.8-2.6,5.4-5.3l0.1-1.1v-13.2l-0.1-1.1c-0.5-2.7-2.6-4.8-5.4-5.3l-1.1-0.1H43.5l-1.6-0.1
	c-6.6-0.8-11.6-6.4-11.6-13l2.3-127.6L32.7,167.6z"/>
<g id="编组-24" transform="translate(32.488865, 170.000000)">
	<path id="Stroke-829" class="st1" d="M6.6,30.9l-1.1-0.1C2.2,30.3,0,27.6,0,24.4V6.8l0.1-1.1c0.4-2.8,2.6-4.9,5.4-5.3l1.1-0.1h52.7
		l1.1,0.1c3.1,0.5,5.4,3.3,5.4,6.5v17.5l-0.1,1.1c-0.4,2.8-2.6,4.8-5.4,5.3l-1.1,0.1L6.6,30.9L6.6,30.9z"/>
	<g id="编组-23" transform="translate(6.511135, 0.000000)">
		<polygon id="Stroke-831" class="st2" points="19.8,13.1 26.3,13.1 26.3,0 19.8,0 		"/>
		<polygon id="Stroke-833" class="st2" points="26.3,13.1 32.9,13.1 32.9,0 26.3,0 		"/>
		<polygon id="Stroke-835" class="st2" points="33,13.1 39.5,13.1 39.5,0 33,0 		"/>
		<polygon id="Stroke-837" class="st2" points="39.5,13.1 46.2,13.1 46.2,0 39.5,0 		"/>
		<polygon id="Stroke-839" class="st2" points="46.2,13.1 52.7,13.1 52.7,0 46.2,0 		"/>
		<polygon id="Stroke-841" class="st2" points="13.1,13.1 19.8,13.1 19.8,0 13.1,0 		"/>
		<polygon id="Stroke-855" class="st2" points="6.6,13.1 13.1,13.1 13.1,0 6.6,0 		"/>
	</g>
	<g id="编组-23备份" transform="translate(6.511135, 17.000000)">
		<polygon id="Stroke-831_1_" class="st2" points="19.8,13.1 26.3,13.1 26.3,0 19.8,0 		"/>
		<polygon id="Stroke-833_1_" class="st2" points="26.3,13.1 32.9,13.1 32.9,0 26.3,0 		"/>
		<polygon id="Stroke-835_1_" class="st2" points="33,13.1 39.5,13.1 39.5,0 33,0 		"/>
		<polygon id="Stroke-837_1_" class="st2" points="39.5,13.1 46.2,13.1 46.2,0 39.5,0 		"/>
		<polygon id="Stroke-839_1_" class="st2" points="46.2,13.1 52.7,13.1 52.7,0 46.2,0 		"/>
		<polygon id="Stroke-841_1_" class="st2" points="13.1,13.1 19.8,13.1 19.8,0 13.1,0 		"/>
		<polygon id="Stroke-855_1_" class="st2" points="6.6,13.1 13.1,13.1 13.1,0 6.6,0 		"/>
		<polygon id="Stroke-857_1_" class="st2" points="0,13.1 6.6,13.1 6.6,0 0,0 		"/>
	</g>
</g>
<g id="编组-24备份" transform="translate(32.488865, 216.000000)">
	<path id="Stroke-829_1_" class="st1" d="M7.2,30.9L6,30.8c-3.5-0.5-6-3.3-6-6.5V6.8l0.1-1.1C0.6,2.9,2.9,0.7,6,0.3l1.2-0.1h57.7
		l1.2,0.1c3.4,0.5,6,3.3,6,6.5v17.5L72,25.4c-0.5,2.8-2.8,4.8-5.9,5.3l-1.2,0.1L7.2,30.9L7.2,30.9z"/>
	<g id="编组-23_1_" transform="translate(6.511135, 0.000000)">
		<polygon id="Stroke-831_2_" class="st2" points="19.8,13.1 26.3,13.1 26.3,0 19.8,0 		"/>
		<polygon id="Stroke-833_2_" class="st2" points="26.3,13.1 32.9,13.1 32.9,0 26.3,0 		"/>
		<polygon id="Stroke-835_2_" class="st2" points="33,13.1 39.5,13.1 39.5,0 33,0 		"/>
		<polygon id="Stroke-837_2_" class="st2" points="39.5,13.1 46.2,13.1 46.2,0 39.5,0 		"/>
		<polygon id="Stroke-839_2_" class="st2" points="46.2,13.1 52.7,13.1 52.7,0 46.2,0 		"/>
		<polygon id="Stroke-839_6_" class="st2" points="52.7,13.1 59.3,13.1 59.3,0 52.7,0 		"/>
		<polygon id="Stroke-841_2_" class="st2" points="13.1,13.1 19.8,13.1 19.8,0 13.1,0 		"/>
		<polygon id="Stroke-855_2_" class="st2" points="6.6,13.1 13.1,13.1 13.1,0 6.6,0 		"/>
		<polygon id="Stroke-857_2_" class="st2" points="0,13.1 6.6,13.1 6.6,0 0,0 		"/>
	</g>
	<g id="编组-23备份_1_" transform="translate(6.511135, 17.000000)">
		<polygon id="Stroke-831_3_" class="st2" points="19.8,13.1 26.3,13.1 26.3,0 19.8,0 		"/>
		<polygon id="Stroke-833_3_" class="st2" points="26.3,13.1 32.9,13.1 32.9,0 26.3,0 		"/>
		<polygon id="Stroke-835_3_" class="st2" points="33,13.1 39.5,13.1 39.5,0 33,0 		"/>
		<polygon id="Stroke-837_3_" class="st2" points="39.5,13.1 46.2,13.1 46.2,0 39.5,0 		"/>
		<polygon id="Stroke-839_3_" class="st2" points="46.2,13.1 52.7,13.1 52.7,0 46.2,0 		"/>
		<polygon id="Stroke-839_7_" class="st2" points="52.7,13.1 59.3,13.1 59.3,0 52.7,0 		"/>
		<polygon id="Stroke-841_3_" class="st2" points="13.1,13.1 19.8,13.1 19.8,0 13.1,0 		"/>
		<polygon id="Stroke-855_3_" class="st2" points="6.6,13.1 13.1,13.1 13.1,0 6.6,0 		"/>
		<polygon id="Stroke-857_3_" class="st2" points="0,13.1 6.6,13.1 6.6,0 0,0 		"/>
	</g>
</g>
<g id="编组-24备份-2" transform="translate(32.488865, 263.000000)">
	<path id="Stroke-829_2_" class="st1" d="M6.6,30.9l-1.1-0.1C2.2,30.3,0,27.6,0,24.4V6.8l0.1-1.1c0.4-2.8,2.6-4.9,5.4-5.3l1.1-0.1
		h52.7l1.1,0.1c3.1,0.5,5.4,3.3,5.4,6.5v17.5l-0.1,1.1c-0.4,2.8-2.6,4.8-5.4,5.3l-1.1,0.1L6.6,30.9L6.6,30.9z"/>
	<g id="编组-23_2_" transform="translate(6.511135, 0.000000)">
		<polygon id="Stroke-831_4_" class="st2" points="19.8,13.1 26.3,13.1 26.3,0 19.8,0 		"/>
		<polygon id="Stroke-833_4_" class="st2" points="26.3,13.1 32.9,13.1 32.9,0 26.3,0 		"/>
		<polygon id="Stroke-835_4_" class="st2" points="33,13.1 39.5,13.1 39.5,0 33,0 		"/>
		<polygon id="Stroke-837_4_" class="st2" points="39.5,13.1 46.2,13.1 46.2,0 39.5,0 		"/>
		<polygon id="Stroke-839_4_" class="st2" points="46.2,13.1 52.7,13.1 52.7,0 46.2,0 		"/>
		<polygon id="Stroke-841_4_" class="st2" points="13.1,13.1 19.8,13.1 19.8,0 13.1,0 		"/>
		<polygon id="Stroke-855_4_" class="st2" points="6.6,13.1 13.1,13.1 13.1,0 6.6,0 		"/>
		<polygon id="Stroke-857_4_" class="st2" points="0,13.1 6.6,13.1 6.6,0 0,0 		"/>
	</g>
	<g id="编组-23备份_2_" transform="translate(6.511135, 17.000000)">
		<polygon id="Stroke-831_5_" class="st2" points="19.8,13.1 26.3,13.1 26.3,0 19.8,0 		"/>
		<polygon id="Stroke-833_5_" class="st2" points="26.3,13.1 32.9,13.1 32.9,0 26.3,0 		"/>
		<polygon id="Stroke-835_5_" class="st2" points="33,13.1 39.5,13.1 39.5,0 33,0 		"/>
		<polygon id="Stroke-837_5_" class="st2" points="39.5,13.1 46.2,13.1 46.2,0 39.5,0 		"/>
		<polygon id="Stroke-839_5_" class="st2" points="46.2,13.1 52.7,13.1 52.7,0 46.2,0 		"/>
		<polygon id="Stroke-841_5_" class="st2" points="13.1,13.1 19.8,13.1 19.8,0 13.1,0 		"/>
		<polygon id="Stroke-855_5_" class="st2" points="6.6,13.1 13.1,13.1 13.1,0 6.6,0 		"/>
		<polygon id="Stroke-857_5_" class="st2" points="0,13.1 6.6,13.1 6.6,0 0,0 		"/>
	</g>
</g>
<path id="Fill-902" class="st1" d="M225.5,16.1l1.6,0.1c6,0.7,10.8,5.4,11.5,11.5l0.1,1.6v112.8l-2.8-0.4l-2.8-0.2h-2.8l-2.8,0.2
	l-2.8,0.3h-1.8c-11.8-0.4-20.7-10.8-18-22.6l0.5-1.7l0.9-3.2l0.7-3.2l0.4-3.3l0.3-3.3v-3.3l-0.2-3.3l-0.3-3.5
	c-3.5-34-33.9-58.7-67.9-55.2c-5.3,0.5-10.5,1.7-15.5,3.6l-3.3,1.3l-4.2,1.7c-7.1,2.8-14.4,4.8-21.9,6.1L90,53.1v-1.2
	c-0.2-2.4-1.6-4.5-3.8-5.5L85.1,46l-13-3.4l-1.1-0.4c-2.6-1.2-4.1-4-3.8-6.8l0.3-1.1l4.3-13.7l0.4-1.1c0.9-1.7,2.7-3,4.7-3.4
	l1.1-0.1L225.5,16.1z"/>
<g id="编组-15" transform="translate(69.000000, 59.000000)">
	<polygon id="Fill-862" class="st1" points="6.5,50.9 8.2,44.5 21,47.8 19.3,54.2 	"/>
	<polygon id="Stroke-863" class="st3" points="6.5,50.9 8.2,44.5 21,47.8 19.3,54.2 	"/>
	<polygon id="Fill-864" class="st1" points="8.2,44.6 9.8,38.3 22.6,41.6 21,47.9 	"/>
	<polygon id="Stroke-865" class="st3" points="8.2,44.6 9.8,38.3 22.6,41.6 21,47.9 	"/>
	<polygon id="Fill-866" class="st1" points="9.8,38.2 11.5,31.8 24.2,35.1 22.6,41.5 	"/>
	<polygon id="Stroke-867" class="st3" points="9.8,38.2 11.5,31.8 24.2,35.1 22.6,41.5 	"/>
	<polygon id="Fill-868" class="st1" points="24.3,35.1 25.9,28.7 13.1,25.4 11.5,31.7 	"/>
	<polygon id="Stroke-869" class="st4" points="24.3,35.1 25.9,28.7 13.1,25.4 11.5,31.7 	"/>
	<polygon id="Fill-870" class="st1" points="13.1,25.5 14.8,19.2 27.6,22.4 25.9,28.8 	"/>
	<polygon id="Stroke-871" class="st3" points="13.1,25.5 14.8,19.2 27.6,22.4 25.9,28.8 	"/>
	<polygon id="Fill-872" class="st1" points="27.6,22.3 29.2,16 16.4,12.7 14.8,19.1 	"/>
	<polygon id="Stroke-873" class="st4" points="27.6,22.3 29.2,16 16.4,12.7 14.8,19.1 	"/>
	<polygon id="Fill-874" class="st1" points="29.2,16 30.8,9.6 18.1,6.3 16.4,12.7 	"/>
	<polygon id="Stroke-875" class="st4" points="29.2,16 30.8,9.6 18.1,6.3 16.4,12.7 	"/>
	<polygon id="Fill-876" class="st1" points="0,76.2 1.6,69.8 14.4,73.1 12.8,79.5 	"/>
	<polygon id="Stroke-877" class="st3" points="0,76.2 1.6,69.8 14.4,73.1 12.8,79.5 	"/>
	<polygon id="Fill-878" class="st1" points="14.4,73.3 16.1,66.9 3.3,63.7 1.7,70 	"/>
	<polygon id="Stroke-879" class="st4" points="14.4,73.3 16.1,66.9 3.3,63.7 1.7,70 	"/>
	<polygon id="Fill-880" class="st1" points="16.1,66.8 17.7,60.5 5,57.2 3.3,63.6 	"/>
	<polygon id="Stroke-881" class="st4" points="16.1,66.8 17.7,60.5 5,57.2 3.3,63.6 	"/>
	<polygon id="Fill-882" class="st1" points="17.7,60.5 19.4,54.1 6.6,50.8 5,57.2 	"/>
	<polygon id="Stroke-883" class="st4" points="17.7,60.5 19.4,54.1 6.6,50.8 5,57.2 	"/>
	<polygon id="Fill-898" class="st1" points="18,6.3 19.7,0 32.5,3.3 30.8,9.6 	"/>
	<polygon id="Stroke-899" class="st3" points="18,6.3 19.7,0 32.5,3.3 30.8,9.6 	"/>
</g>
<g id="编组-16" transform="translate(47.000000, 59.000000)">
	<polygon id="Fill-884" class="st1" points="6.7,19.1 8.3,12.7 21.1,16 19.5,22.4 	"/>
	<polygon id="Stroke-885" class="st3" points="6.7,19.1 8.3,12.7 21.1,16 19.5,22.4 	"/>
	<polygon id="Fill-886" class="st1" points="8.4,12.8 10,6.4 22.8,9.7 21.2,16.1 	"/>
	<polygon id="Stroke-887" class="st3" points="8.4,12.8 10,6.4 22.8,9.7 21.2,16.1 	"/>
	<polygon id="Fill-888" class="st1" points="10.1,6.3 11.8,0 24.6,3.3 22.9,9.6 	"/>
	<polygon id="Stroke-889" class="st3" points="10.1,6.3 11.8,0 24.6,3.3 22.9,9.6 	"/>
	<polygon id="Fill-890" class="st1" points="0,45.1 1.6,38.7 14.4,42 12.8,48.3 	"/>
	<polygon id="Stroke-891" class="st3" points="0,45.1 1.6,38.7 14.4,42 12.8,48.3 	"/>
	<polygon id="Fill-892" class="st1" points="1.8,38.6 3.5,32.2 16.2,35.5 14.6,41.9 	"/>
	<polygon id="Stroke-893" class="st3" points="1.8,38.6 3.5,32.2 16.2,35.5 14.6,41.9 	"/>
	<polygon id="Fill-894" class="st1" points="16.2,35.6 17.9,29.1 5.2,25.9 3.5,32.2 	"/>
	<polygon id="Stroke-895" class="st4" points="16.2,35.6 17.9,29.1 5.2,25.9 3.5,32.2 	"/>
	<polygon id="Fill-896" class="st1" points="17.8,28.8 19.4,22.5 6.8,19.1 5.1,25.6 	"/>
	<polygon id="Stroke-897" class="st4" points="17.8,28.8 19.4,22.5 6.8,19.1 5.1,25.6 	"/>
</g>
<g id="编组-17" transform="translate(98.000000, 142.000000)">
	<polygon id="Stroke-587" class="st2" points="52.7,13.1 59.3,13.1 59.3,0 52.7,0 	"/>
	<polygon id="Stroke-589" class="st2" points="59.3,13.1 65.9,13.1 65.9,0 59.3,0 	"/>
	<polygon id="Stroke-591" class="st2" points="65.9,13.1 72.4,13.1 72.4,0 65.9,0 	"/>
	<polygon id="Stroke-593" class="st2" points="72.4,13.1 79,13.1 79,0 72.4,0 	"/>
	<polygon id="Stroke-595" class="st2" points="79.1,13.1 85.6,13.1 85.6,0 79.1,0 	"/>
	<polygon id="Stroke-597" class="st2" points="85.6,13.1 92.3,13.1 92.3,0 85.6,0 	"/>
	<polygon id="Stroke-601" class="st2" points="19.8,13.1 26.4,13.1 26.4,0 19.8,0 	"/>
	<polygon id="Stroke-603" class="st2" points="26.3,13.1 32.9,13.1 32.9,0 26.3,0 	"/>
	<polygon id="Stroke-605" class="st2" points="33,13.1 39.5,13.1 39.5,0 33,0 	"/>
	<polygon id="Stroke-607" class="st2" points="39.5,13.1 46.1,13.1 46.1,0 39.5,0 	"/>
	<polygon id="Stroke-609" class="st2" points="46.1,13.1 52.7,13.1 52.7,0 46.1,0 	"/>
	<polygon id="Stroke-615" class="st2" points="6.6,13.1 13.1,13.1 13.1,0 6.6,0 	"/>
	<polygon id="Stroke-617" class="st2" points="13.1,13.1 19.7,13.1 19.7,0 13.1,0 	"/>
	<polygon id="Stroke-901" class="st2" points="0,13.1 6.6,13.1 6.6,0 0,0 	"/>
</g>
<g id="编组-18" transform="translate(215.000000, 164.000000)">
	<polygon id="Stroke-905" class="st2" points="0,46.1 13.1,46.1 13.1,39.6 0,39.6 	"/>
	<polygon id="Stroke-907" class="st2" points="0,39.5 13.1,39.5 13.1,32.9 0,32.9 	"/>
	<polygon id="Stroke-909" class="st2" points="0,32.9 13.1,32.9 13.1,26.4 0,26.4 	"/>
	<polygon id="Stroke-911" class="st2" points="0,26.3 13.1,26.3 13.1,19.8 0,19.8 	"/>
	<polygon id="Stroke-913" class="st2" points="0,19.8 13.1,19.8 13.1,13.2 0,13.2 	"/>
	<polygon id="Stroke-915" class="st2" points="0,13.2 13.1,13.2 13.1,6.6 0,6.6 	"/>
	<polygon id="Stroke-917" class="st2" points="0,6.6 13.1,6.6 13.1,0 0,0 	"/>
</g>
<g id="编组-19" transform="translate(215.000000, 251.000000)">
	<polygon id="Stroke-563" class="st2" points="0,52.4 13.1,52.4 13.1,45.9 0,45.9 	"/>
	<polygon id="Stroke-565" class="st2" points="0,45.9 13.1,45.9 13.1,39.3 0,39.3 	"/>
	<polygon id="Stroke-567" class="st2" points="0,39.3 13.1,39.3 13.1,32.8 0,32.8 	"/>
	<polygon id="Stroke-569" class="st2" points="0,32.8 13.1,32.8 13.1,26.2 0,26.2 	"/>
	<polygon id="Stroke-571" class="st2" points="0,26.2 13.1,26.2 13.1,19.7 0,19.7 	"/>
	<polygon id="Stroke-573" class="st2" points="0,19.7 13.1,19.7 13.1,13.1 0,13.1 	"/>
	<polygon id="Stroke-575" class="st2" points="0,13.1 13.1,13.1 13.1,6.6 0,6.6 	"/>
	<polygon id="Stroke-577" class="st2" points="0,6.6 13.1,6.6 13.1,0 0,0 	"/>
</g>
<g id="编组-20" transform="translate(122.000000, 309.000000)">
	<polygon id="Stroke-547" class="st2" points="26.3,13.1 32.9,13.1 32.9,0 26.3,0 	"/>
	<polygon id="Stroke-549" class="st2" points="32.9,13.1 39.5,13.1 39.5,0 32.9,0 	"/>
	<polygon id="Stroke-551" class="st2" points="39.5,13.1 46.1,13.1 46.1,0 39.5,0 	"/>
	<polygon id="Stroke-553" class="st2" points="46.1,13.1 52.7,13.1 52.7,0 46.1,0 	"/>
	<polygon id="Stroke-555" class="st2" points="52.7,13.1 59.2,13.1 59.2,0 52.7,0 	"/>
	<polygon id="Stroke-557" class="st2" points="59.3,13.1 65.9,13.1 65.9,0 59.3,0 	"/>
	<polygon id="Stroke-559" class="st2" points="79.1,13.1 85.6,13.1 85.6,0 79.1,0 	"/>
	<polygon id="Stroke-561" class="st2" points="85.6,13.1 92.2,13.1 92.2,0 85.6,0 	"/>
	<polygon id="Stroke-579" class="st2" points="0,13.1 6.6,13.1 6.6,0 0,0 	"/>
	<polygon id="Stroke-581" class="st2" points="6.6,13.1 13.1,13.1 13.1,0 6.6,0 	"/>
	<polygon id="Stroke-583" class="st2" points="13.2,13.1 19.8,13.1 19.8,0 13.2,0 	"/>
	<polygon id="Stroke-585" class="st2" points="19.8,13.1 26.3,13.1 26.3,0 19.8,0 	"/>
	<polygon id="Stroke-611" class="st2" points="65.9,13.1 72.5,13.1 72.5,0 65.9,0 	"/>
	<polygon id="Stroke-613" class="st2" points="72.5,13.1 79.1,13.1 79.1,0 72.5,0 	"/>
</g>
</svg>
