<?xml version="1.0" encoding="UTF-8"?>
<svg width="406px" height="63px" viewBox="0 0 406 63" version="1.1" xmlns="http://www.w3.org/2000/svg" xmlns:xlink="http://www.w3.org/1999/xlink">
    <title>员工停车场</title>
    <g id="页面-1" stroke="none" stroke-width="1" fill="none" fill-rule="evenodd">
        <g id="画板" transform="translate(-861.000000, -336.000000)">
            <g id="员工停车场" transform="translate(1064.000000, 367.500000) rotate(-270.000000) translate(-1064.000000, -367.500000) translate(1033.000000, 165.000000)">
                <rect id="矩形" stroke="#3CD5E5" stroke-width="3" fill="#098D97" x="1.5" y="1.5" width="46" height="402" rx="6"></rect>
                <polyline id="Stroke-1044" stroke="#3CD5E5" stroke-width="0.72" fill="#091830" stroke-linecap="round" stroke-linejoin="round" points="33.6480543 16.312763 33.6480543 60.21669 34.0797022 60.3029453 34.4241573 60.5617111 34.6831461 60.9067321 34.770339 61.3380084 34.6831461 61.7692847 34.4241573 62.1143058 34.0797022 62.2868163 33.6480543 62.3730715 33.6480543 106.276999 34.0797022 106.363254 34.4241573 106.535764 34.6831461 106.880785 34.770339 107.312062 34.6831461 107.743338 34.4241573 108.088359 34.0797022 108.347125 33.6480543 108.43338 33.6480543 152.337307 34.0797022 152.423562 34.4241573 152.682328 34.6831461 153.027349 34.770339 153.458626 34.6831461 153.889902 34.4241573 154.234923 34.0797022 154.407433 33.6480543 154.493689 33.6480543 198.397616 34.0797022 198.483871 34.4241573 198.742637 34.6831461 199.086795 34.770339 199.518072 34.6831461 199.949348 34.4241573 200.295231 34.0797022 200.553997 33.6480543 200.640252 33.6480543 244.54418 34.0797022 244.630435 34.4241573 244.802083 34.6831461 245.147966 34.770339 245.579243 34.6831461 246.010519 34.4241573 246.35554 34.0797022 246.614306 33.6480543 246.700561 33.6480543 290.604488 34.0797022 290.690743 34.4241573 290.948647 34.6831461 291.29453 34.770339 291.725806 34.6831461 292.157083 34.4241573 292.502104 34.0797022 292.673752 33.6480543 292.76087 33.6480543 336.663934 34.0797022 336.751052 34.4241573 336.923562 34.6831461 337.268583 34.770339 337.69986 34.6831461 338.131136 34.4241573 338.476157 34.0797022 338.734923 33.6480543 338.820316 33.6480543 390.142195 33.5608614 390.8331 33.2164064 391.436024 32.6975655 391.954418 32.0932584 392.298576 31.4026217 392.385694 19.3164794 392.385694 18.3677172 392.298576 17.5044213 391.954418 16.6411255 391.436024 15.9504888 390.746844 15.4316479 389.884292 15.0871929 388.935484 15 387.985813 15 16.3990182 15.0871929 15.4502104 15.4316479 14.5014025 15.9504888 13.6388499 16.6411255 12.9488079 17.5044213 12.4312763 18.3677172 12.0862553 19.3164794 12 29.1589157 12 30.1076779 12.0862553 31.0581667 12.4312763 31.9214625 12.9488079 32.6120993 13.6388499 33.2164064 14.5014025 33.5608614 15.4502104 33.6480543 16.312763"></polyline>
                <g id="编组" transform="translate(49.000000, 21.000000)" fill="#0C7454" stroke="#3CD5E5" stroke-linecap="round" stroke-linejoin="round" stroke-width="0.72">
                    <polygon id="Stroke-1190" points="0 5.52033661 12.0861423 5.52033661 12.0861423 -8.52651283e-14 0 -8.52651283e-14"></polygon>
                    <polygon id="Stroke-1192" points="7.10542736e-15 11.0406732 12.0861423 11.0406732 12.0861423 5.52033661 7.10542736e-15 5.52033661"></polygon>
                    <polygon id="Stroke-1194" points="7.10542736e-15 16.5610098 12.0861423 16.5610098 12.0861423 11.0406732 7.10542736e-15 11.0406732"></polygon>
                    <polygon id="Stroke-1196" points="7.10542736e-15 22.0813464 12.0861423 22.0813464 12.0861423 16.5610098 7.10542736e-15 16.5610098"></polygon>
                    <polygon id="Stroke-1198" points="0 27.5154278 12.0861423 27.5154278 12.0861423 21.9950912 0 21.9950912"></polygon>
                    <polygon id="Stroke-1200" points="0 33.0357644 12.0861423 33.0357644 12.0861423 27.5154278 0 27.5154278"></polygon>
                    <polygon id="Stroke-1202" points="0 38.556101 12.0861423 38.556101 12.0861423 33.0357644 0 33.0357644"></polygon>
                </g>
                <polygon id="Fill-1059" fill="#0C7454" points="21 21.5203366 33.0861423 21.5203366 33.0861423 16 21 16"></polygon>
                <polygon id="Stroke-1060" stroke="#3CD5E5" stroke-width="0.72" stroke-linecap="round" stroke-linejoin="round" points="21 21.5203366 33.0861423 21.5203366 33.0861423 16 21 16"></polygon>
                <polygon id="Fill-1061" fill="#0C7454" points="21 26.954418 33.0861423 26.954418 33.0861423 21.4340813 21 21.4340813"></polygon>
                <polygon id="Stroke-1062" stroke="#3CD5E5" stroke-width="0.72" stroke-linecap="round" stroke-linejoin="round" points="21 26.954418 33.0861423 26.954418 33.0861423 21.4340813 21 21.4340813"></polygon>
                <polygon id="Fill-1063" fill="#0C7454" points="21 32.4747546 33.0861423 32.4747546 33.0861423 26.954418 21 26.954418"></polygon>
                <polygon id="Stroke-1064" stroke="#3CD5E5" stroke-width="0.72" stroke-linecap="round" stroke-linejoin="round" points="21 32.4747546 33.0861423 32.4747546 33.0861423 26.954418 21 26.954418"></polygon>
                <polygon id="Fill-1065" fill="#0C7454" points="21 37.9088359 33.0861423 37.9088359 33.0861423 32.3884993 21 32.3884993"></polygon>
                <polygon id="Stroke-1066" stroke="#3CD5E5" stroke-width="0.72" stroke-linecap="round" stroke-linejoin="round" points="21 37.9088359 33.0861423 37.9088359 33.0861423 32.3884993 21 32.3884993"></polygon>
                <polygon id="Fill-1067" fill="#0C7454" points="21 43.3429173 33.0861423 43.3429173 33.0861423 37.8225806 21 37.8225806"></polygon>
                <polygon id="Stroke-1068" stroke="#3CD5E5" stroke-width="0.72" stroke-linecap="round" stroke-linejoin="round" points="21 43.3429173 33.0861423 43.3429173 33.0861423 37.8225806 21 37.8225806"></polygon>
                <polygon id="Fill-1069" fill="#0C7454" points="21 48.7769986 33.0861423 48.7769986 33.0861423 43.256662 21 43.256662"></polygon>
                <polygon id="Stroke-1070" stroke="#3CD5E5" stroke-width="0.72" stroke-linecap="round" stroke-linejoin="round" points="21 48.7769986 33.0861423 48.7769986 33.0861423 43.256662 21 43.256662"></polygon>
                <polygon id="Fill-1071" fill="#0C7454" points="21 54.2973352 33.0861423 54.2973352 33.0861423 48.7769986 21 48.7769986"></polygon>
                <polygon id="Stroke-1072" stroke="#3CD5E5" stroke-width="0.72" stroke-linecap="round" stroke-linejoin="round" points="21 54.2973352 33.0861423 54.2973352 33.0861423 48.7769986 21 48.7769986"></polygon>
                <polygon id="Fill-1073" fill="#0C7454" points="21 59.7314165 33.0861423 59.7314165 33.0861423 54.2110799 21 54.2110799"></polygon>
                <polygon id="Stroke-1074" stroke="#3CD5E5" stroke-width="0.72" stroke-linecap="round" stroke-linejoin="round" points="21 59.7314165 33.0861423 59.7314165 33.0861423 54.2110799 21 54.2110799"></polygon>
                <g id="编组-7" transform="translate(21.000000, 62.000000)">
                    <polygon id="Fill-1075" fill="#0C7454" points="5.5067062e-14 5.52033661 12.0861423 5.52033661 12.0861423 0 5.5067062e-14 0"></polygon>
                    <polygon id="Stroke-1076" stroke="#3CD5E5" stroke-width="0.72" stroke-linecap="round" stroke-linejoin="round" points="5.5067062e-14 5.52033661 12.0861423 5.52033661 12.0861423 0 5.5067062e-14 0"></polygon>
                    <polygon id="Fill-1077" fill="#0C7454" points="5.5067062e-14 11.0406732 12.0861423 11.0406732 12.0861423 5.52033661 5.5067062e-14 5.52033661"></polygon>
                    <polygon id="Stroke-1078" stroke="#3CD5E5" stroke-width="0.72" stroke-linecap="round" stroke-linejoin="round" points="5.5067062e-14 11.0406732 12.0861423 11.0406732 12.0861423 5.52033661 5.5067062e-14 5.52033661"></polygon>
                    <polygon id="Fill-1079" fill="#0C7454" points="5.5067062e-14 16.5610098 12.0861423 16.5610098 12.0861423 11.0406732 5.5067062e-14 11.0406732"></polygon>
                    <polygon id="Stroke-1080" stroke="#3CD5E5" stroke-width="0.72" stroke-linecap="round" stroke-linejoin="round" points="5.5067062e-14 16.5610098 12.0861423 16.5610098 12.0861423 11.0406732 5.5067062e-14 11.0406732"></polygon>
                    <polygon id="Fill-1081" fill="#0C7454" points="5.5067062e-14 21.9950912 12.0861423 21.9950912 12.0861423 16.4747546 5.5067062e-14 16.4747546"></polygon>
                    <polygon id="Stroke-1082" stroke="#3CD5E5" stroke-width="0.72" stroke-linecap="round" stroke-linejoin="round" points="5.5067062e-14 21.9950912 12.0861423 21.9950912 12.0861423 16.4747546 5.5067062e-14 16.4747546"></polygon>
                    <polygon id="Fill-1083" fill="#0C7454" points="5.5067062e-14 27.5154278 12.0861423 27.5154278 12.0861423 21.9950912 5.5067062e-14 21.9950912"></polygon>
                    <polygon id="Stroke-1084" stroke="#3CD5E5" stroke-width="0.72" stroke-linecap="round" stroke-linejoin="round" points="5.5067062e-14 27.5154278 12.0861423 27.5154278 12.0861423 21.9950912 5.5067062e-14 21.9950912"></polygon>
                    <polygon id="Fill-1085" fill="#0C7454" points="5.5067062e-14 32.9495091 12.0861423 32.9495091 12.0861423 27.4291725 5.5067062e-14 27.4291725"></polygon>
                    <polygon id="Stroke-1086" stroke="#3CD5E5" stroke-width="0.72" stroke-linecap="round" stroke-linejoin="round" points="5.5067062e-14 32.9495091 12.0861423 32.9495091 12.0861423 27.4291725 5.5067062e-14 27.4291725"></polygon>
                    <polygon id="Fill-1087" fill="#0C7454" points="5.5067062e-14 38.4698457 12.0861423 38.4698457 12.0861423 32.9495091 5.5067062e-14 32.9495091"></polygon>
                    <polygon id="Stroke-1088" stroke="#3CD5E5" stroke-width="0.72" stroke-linecap="round" stroke-linejoin="round" points="5.5067062e-14 38.4698457 12.0861423 38.4698457 12.0861423 32.9495091 5.5067062e-14 32.9495091"></polygon>
                    <polygon id="Fill-1089" fill="#0C7454" points="5.5067062e-14 43.9039271 12.0861423 43.9039271 12.0861423 38.3835905 5.5067062e-14 38.3835905"></polygon>
                    <polygon id="Stroke-1090" stroke="#3CD5E5" stroke-width="0.72" stroke-linecap="round" stroke-linejoin="round" points="5.5067062e-14 43.9039271 12.0861423 43.9039271 12.0861423 38.3835905 5.5067062e-14 38.3835905"></polygon>
                </g>
                <g id="编组-8" transform="translate(49.000000, 62.000000)" fill="#0C7454" stroke="#3CD5E5" stroke-linecap="round" stroke-linejoin="round" stroke-width="0.72">
                    <polygon id="Stroke-1204" points="0 5.52033661 12.0861423 5.52033661 12.0861423 0 0 0"></polygon>
                    <polygon id="Stroke-1206" points="0 10.954418 12.0861423 10.954418 12.0861423 5.43408135 0 5.43408135"></polygon>
                    <polygon id="Stroke-1208" points="0 16.4747546 12.0861423 16.4747546 12.0861423 10.954418 0 10.954418"></polygon>
                    <polygon id="Stroke-1210" points="0 21.9088359 12.0861423 21.9088359 12.0861423 16.3884993 0 16.3884993"></polygon>
                    <polygon id="Stroke-1212" points="0 27.3429173 12.0861423 27.3429173 12.0861423 21.8225806 0 21.8225806"></polygon>
                    <polygon id="Stroke-1214" points="0 32.7769986 12.0861423 32.7769986 12.0861423 27.256662 0 27.256662"></polygon>
                    <polygon id="Stroke-1216" points="0 38.2110799 12.0861423 38.2110799 12.0861423 32.6907433 0 32.6907433"></polygon>
                    <polygon id="Stroke-1218" points="0 43.6451613 12.0861423 43.6451613 12.0861423 38.1248247 0 38.1248247"></polygon>
                </g>
                <g id="编组-8备份" transform="translate(49.000000, 109.000000)" fill="#0C7454" stroke="#3CD5E5" stroke-linecap="round" stroke-linejoin="round" stroke-width="0.72">
                    <polygon id="Stroke-1204" points="0 5.52033661 12.0861423 5.52033661 12.0861423 0 0 0"></polygon>
                    <polygon id="Stroke-1206" points="0 10.954418 12.0861423 10.954418 12.0861423 5.43408135 0 5.43408135"></polygon>
                    <polygon id="Stroke-1208" points="0 16.4747546 12.0861423 16.4747546 12.0861423 10.954418 0 10.954418"></polygon>
                    <polygon id="Stroke-1210" points="0 21.9088359 12.0861423 21.9088359 12.0861423 16.3884993 0 16.3884993"></polygon>
                    <polygon id="Stroke-1212" points="0 27.3429173 12.0861423 27.3429173 12.0861423 21.8225806 0 21.8225806"></polygon>
                    <polygon id="Stroke-1214" points="0 32.7769986 12.0861423 32.7769986 12.0861423 27.256662 0 27.256662"></polygon>
                    <polygon id="Stroke-1216" points="0 38.2110799 12.0861423 38.2110799 12.0861423 32.6907433 0 32.6907433"></polygon>
                    <polygon id="Stroke-1218" points="0 43.6451613 12.0861423 43.6451613 12.0861423 38.1248247 0 38.1248247"></polygon>
                </g>
                <g id="编组-8备份-2" transform="translate(49.000000, 155.000000)" fill="#0C7454" stroke="#3CD5E5" stroke-linecap="round" stroke-linejoin="round" stroke-width="0.72">
                    <polygon id="Stroke-1204" points="0 5.52033661 12.0861423 5.52033661 12.0861423 0 0 0"></polygon>
                    <polygon id="Stroke-1206" points="0 10.954418 12.0861423 10.954418 12.0861423 5.43408135 0 5.43408135"></polygon>
                    <polygon id="Stroke-1208" points="0 16.4747546 12.0861423 16.4747546 12.0861423 10.954418 0 10.954418"></polygon>
                    <polygon id="Stroke-1210" points="0 21.9088359 12.0861423 21.9088359 12.0861423 16.3884993 0 16.3884993"></polygon>
                    <polygon id="Stroke-1212" points="0 27.3429173 12.0861423 27.3429173 12.0861423 21.8225806 0 21.8225806"></polygon>
                    <polygon id="Stroke-1214" points="0 32.7769986 12.0861423 32.7769986 12.0861423 27.256662 0 27.256662"></polygon>
                    <polygon id="Stroke-1216" points="0 38.2110799 12.0861423 38.2110799 12.0861423 32.6907433 0 32.6907433"></polygon>
                    <polygon id="Stroke-1218" points="0 43.6451613 12.0861423 43.6451613 12.0861423 38.1248247 0 38.1248247"></polygon>
                </g>
                <g id="编组-8备份-3" transform="translate(49.000000, 201.000000)" fill="#0C7454" stroke="#3CD5E5" stroke-linecap="round" stroke-linejoin="round" stroke-width="0.72">
                    <polygon id="Stroke-1204" points="0 5.52033661 12.0861423 5.52033661 12.0861423 0 0 0"></polygon>
                    <polygon id="Stroke-1206" points="0 10.954418 12.0861423 10.954418 12.0861423 5.43408135 0 5.43408135"></polygon>
                    <polygon id="Stroke-1208" points="0 16.4747546 12.0861423 16.4747546 12.0861423 10.954418 0 10.954418"></polygon>
                    <polygon id="Stroke-1210" points="0 21.9088359 12.0861423 21.9088359 12.0861423 16.3884993 0 16.3884993"></polygon>
                    <polygon id="Stroke-1212" points="0 27.3429173 12.0861423 27.3429173 12.0861423 21.8225806 0 21.8225806"></polygon>
                    <polygon id="Stroke-1214" points="0 32.7769986 12.0861423 32.7769986 12.0861423 27.256662 0 27.256662"></polygon>
                    <polygon id="Stroke-1216" points="0 38.2110799 12.0861423 38.2110799 12.0861423 32.6907433 0 32.6907433"></polygon>
                    <polygon id="Stroke-1218" points="0 43.6451613 12.0861423 43.6451613 12.0861423 38.1248247 0 38.1248247"></polygon>
                </g>
                <g id="编组-8备份-4" transform="translate(49.000000, 247.000000)" fill="#0C7454" stroke="#3CD5E5" stroke-linecap="round" stroke-linejoin="round" stroke-width="0.72">
                    <polygon id="Stroke-1204" points="0 5.52033661 12.0861423 5.52033661 12.0861423 0 0 0"></polygon>
                    <polygon id="Stroke-1206" points="0 10.954418 12.0861423 10.954418 12.0861423 5.43408135 0 5.43408135"></polygon>
                    <polygon id="Stroke-1208" points="0 16.4747546 12.0861423 16.4747546 12.0861423 10.954418 0 10.954418"></polygon>
                    <polygon id="Stroke-1210" points="0 21.9088359 12.0861423 21.9088359 12.0861423 16.3884993 0 16.3884993"></polygon>
                    <polygon id="Stroke-1212" points="0 27.3429173 12.0861423 27.3429173 12.0861423 21.8225806 0 21.8225806"></polygon>
                    <polygon id="Stroke-1214" points="0 32.7769986 12.0861423 32.7769986 12.0861423 27.256662 0 27.256662"></polygon>
                    <polygon id="Stroke-1216" points="0 38.2110799 12.0861423 38.2110799 12.0861423 32.6907433 0 32.6907433"></polygon>
                    <polygon id="Stroke-1218" points="0 43.6451613 12.0861423 43.6451613 12.0861423 38.1248247 0 38.1248247"></polygon>
                </g>
                <g id="编组-8备份-5" transform="translate(49.000000, 293.000000)" fill="#0C7454" stroke="#3CD5E5" stroke-linecap="round" stroke-linejoin="round" stroke-width="0.72">
                    <polygon id="Stroke-1204" points="0 5.52033661 12.0861423 5.52033661 12.0861423 0 0 0"></polygon>
                    <polygon id="Stroke-1206" points="0 10.954418 12.0861423 10.954418 12.0861423 5.43408135 0 5.43408135"></polygon>
                    <polygon id="Stroke-1208" points="0 16.4747546 12.0861423 16.4747546 12.0861423 10.954418 0 10.954418"></polygon>
                    <polygon id="Stroke-1210" points="0 21.9088359 12.0861423 21.9088359 12.0861423 16.3884993 0 16.3884993"></polygon>
                    <polygon id="Stroke-1212" points="0 27.3429173 12.0861423 27.3429173 12.0861423 21.8225806 0 21.8225806"></polygon>
                    <polygon id="Stroke-1214" points="0 32.7769986 12.0861423 32.7769986 12.0861423 27.256662 0 27.256662"></polygon>
                    <polygon id="Stroke-1216" points="0 38.2110799 12.0861423 38.2110799 12.0861423 32.6907433 0 32.6907433"></polygon>
                    <polygon id="Stroke-1218" points="0 43.6451613 12.0861423 43.6451613 12.0861423 38.1248247 0 38.1248247"></polygon>
                </g>
                <g id="编组-8备份-6" transform="translate(49.000000, 339.000000)" fill="#0C7454" stroke="#3CD5E5" stroke-linecap="round" stroke-linejoin="round" stroke-width="0.72">
                    <polygon id="Stroke-1204" points="0 5.52033661 12.0861423 5.52033661 12.0861423 0 0 0"></polygon>
                    <polygon id="Stroke-1206" points="0 10.954418 12.0861423 10.954418 12.0861423 5.43408135 0 5.43408135"></polygon>
                    <polygon id="Stroke-1208" points="0 16.4747546 12.0861423 16.4747546 12.0861423 10.954418 0 10.954418"></polygon>
                    <polygon id="Stroke-1210" points="0 21.9088359 12.0861423 21.9088359 12.0861423 16.3884993 0 16.3884993"></polygon>
                    <polygon id="Stroke-1212" points="0 27.3429173 12.0861423 27.3429173 12.0861423 21.8225806 0 21.8225806"></polygon>
                    <polygon id="Stroke-1214" points="0 32.7769986 12.0861423 32.7769986 12.0861423 27.256662 0 27.256662"></polygon>
                    <polygon id="Stroke-1216" points="0 38.2110799 12.0861423 38.2110799 12.0861423 32.6907433 0 32.6907433"></polygon>
                    <polygon id="Stroke-1218" points="0 43.6451613 12.0861423 43.6451613 12.0861423 38.1248247 0 38.1248247"></polygon>
                </g>
                <g id="编组-7" transform="translate(21.000000, 109.000000)">
                    <polygon id="Fill-1075" fill="#0C7454" points="5.5067062e-14 5.52033661 12.0861423 5.52033661 12.0861423 0 5.5067062e-14 0"></polygon>
                    <polygon id="Stroke-1076" stroke="#3CD5E5" stroke-width="0.72" stroke-linecap="round" stroke-linejoin="round" points="5.5067062e-14 5.52033661 12.0861423 5.52033661 12.0861423 0 5.5067062e-14 0"></polygon>
                    <polygon id="Fill-1077" fill="#0C7454" points="5.5067062e-14 11.0406732 12.0861423 11.0406732 12.0861423 5.52033661 5.5067062e-14 5.52033661"></polygon>
                    <polygon id="Stroke-1078" stroke="#3CD5E5" stroke-width="0.72" stroke-linecap="round" stroke-linejoin="round" points="5.5067062e-14 11.0406732 12.0861423 11.0406732 12.0861423 5.52033661 5.5067062e-14 5.52033661"></polygon>
                    <polygon id="Fill-1079" fill="#0C7454" points="5.5067062e-14 16.5610098 12.0861423 16.5610098 12.0861423 11.0406732 5.5067062e-14 11.0406732"></polygon>
                    <polygon id="Stroke-1080" stroke="#3CD5E5" stroke-width="0.72" stroke-linecap="round" stroke-linejoin="round" points="5.5067062e-14 16.5610098 12.0861423 16.5610098 12.0861423 11.0406732 5.5067062e-14 11.0406732"></polygon>
                    <polygon id="Fill-1081" fill="#0C7454" points="5.5067062e-14 21.9950912 12.0861423 21.9950912 12.0861423 16.4747546 5.5067062e-14 16.4747546"></polygon>
                    <polygon id="Stroke-1082" stroke="#3CD5E5" stroke-width="0.72" stroke-linecap="round" stroke-linejoin="round" points="5.5067062e-14 21.9950912 12.0861423 21.9950912 12.0861423 16.4747546 5.5067062e-14 16.4747546"></polygon>
                    <polygon id="Fill-1083" fill="#0C7454" points="5.5067062e-14 27.5154278 12.0861423 27.5154278 12.0861423 21.9950912 5.5067062e-14 21.9950912"></polygon>
                    <polygon id="Stroke-1084" stroke="#3CD5E5" stroke-width="0.72" stroke-linecap="round" stroke-linejoin="round" points="5.5067062e-14 27.5154278 12.0861423 27.5154278 12.0861423 21.9950912 5.5067062e-14 21.9950912"></polygon>
                    <polygon id="Fill-1085" fill="#0C7454" points="5.5067062e-14 32.9495091 12.0861423 32.9495091 12.0861423 27.4291725 5.5067062e-14 27.4291725"></polygon>
                    <polygon id="Stroke-1086" stroke="#3CD5E5" stroke-width="0.72" stroke-linecap="round" stroke-linejoin="round" points="5.5067062e-14 32.9495091 12.0861423 32.9495091 12.0861423 27.4291725 5.5067062e-14 27.4291725"></polygon>
                    <polygon id="Fill-1087" fill="#0C7454" points="5.5067062e-14 38.4698457 12.0861423 38.4698457 12.0861423 32.9495091 5.5067062e-14 32.9495091"></polygon>
                    <polygon id="Stroke-1088" stroke="#3CD5E5" stroke-width="0.72" stroke-linecap="round" stroke-linejoin="round" points="5.5067062e-14 38.4698457 12.0861423 38.4698457 12.0861423 32.9495091 5.5067062e-14 32.9495091"></polygon>
                    <polygon id="Fill-1089" fill="#0C7454" points="5.5067062e-14 43.9039271 12.0861423 43.9039271 12.0861423 38.3835905 5.5067062e-14 38.3835905"></polygon>
                    <polygon id="Stroke-1090" stroke="#3CD5E5" stroke-width="0.72" stroke-linecap="round" stroke-linejoin="round" points="5.5067062e-14 43.9039271 12.0861423 43.9039271 12.0861423 38.3835905 5.5067062e-14 38.3835905"></polygon>
                </g>
                <g id="编组-7备份" transform="translate(21.000000, 155.000000)">
                    <polygon id="Fill-1075" fill="#0C7454" points="5.5067062e-14 5.52033661 12.0861423 5.52033661 12.0861423 0 5.5067062e-14 0"></polygon>
                    <polygon id="Stroke-1076" stroke="#3CD5E5" stroke-width="0.72" stroke-linecap="round" stroke-linejoin="round" points="5.5067062e-14 5.52033661 12.0861423 5.52033661 12.0861423 0 5.5067062e-14 0"></polygon>
                    <polygon id="Fill-1077" fill="#0C7454" points="5.5067062e-14 11.0406732 12.0861423 11.0406732 12.0861423 5.52033661 5.5067062e-14 5.52033661"></polygon>
                    <polygon id="Stroke-1078" stroke="#3CD5E5" stroke-width="0.72" stroke-linecap="round" stroke-linejoin="round" points="5.5067062e-14 11.0406732 12.0861423 11.0406732 12.0861423 5.52033661 5.5067062e-14 5.52033661"></polygon>
                    <polygon id="Fill-1079" fill="#0C7454" points="5.5067062e-14 16.5610098 12.0861423 16.5610098 12.0861423 11.0406732 5.5067062e-14 11.0406732"></polygon>
                    <polygon id="Stroke-1080" stroke="#3CD5E5" stroke-width="0.72" stroke-linecap="round" stroke-linejoin="round" points="5.5067062e-14 16.5610098 12.0861423 16.5610098 12.0861423 11.0406732 5.5067062e-14 11.0406732"></polygon>
                    <polygon id="Fill-1081" fill="#0C7454" points="5.5067062e-14 21.9950912 12.0861423 21.9950912 12.0861423 16.4747546 5.5067062e-14 16.4747546"></polygon>
                    <polygon id="Stroke-1082" stroke="#3CD5E5" stroke-width="0.72" stroke-linecap="round" stroke-linejoin="round" points="5.5067062e-14 21.9950912 12.0861423 21.9950912 12.0861423 16.4747546 5.5067062e-14 16.4747546"></polygon>
                    <polygon id="Fill-1083" fill="#0C7454" points="5.5067062e-14 27.5154278 12.0861423 27.5154278 12.0861423 21.9950912 5.5067062e-14 21.9950912"></polygon>
                    <polygon id="Stroke-1084" stroke="#3CD5E5" stroke-width="0.72" stroke-linecap="round" stroke-linejoin="round" points="5.5067062e-14 27.5154278 12.0861423 27.5154278 12.0861423 21.9950912 5.5067062e-14 21.9950912"></polygon>
                    <polygon id="Fill-1085" fill="#0C7454" points="5.5067062e-14 32.9495091 12.0861423 32.9495091 12.0861423 27.4291725 5.5067062e-14 27.4291725"></polygon>
                    <polygon id="Stroke-1086" stroke="#3CD5E5" stroke-width="0.72" stroke-linecap="round" stroke-linejoin="round" points="5.5067062e-14 32.9495091 12.0861423 32.9495091 12.0861423 27.4291725 5.5067062e-14 27.4291725"></polygon>
                    <polygon id="Fill-1087" fill="#0C7454" points="5.5067062e-14 38.4698457 12.0861423 38.4698457 12.0861423 32.9495091 5.5067062e-14 32.9495091"></polygon>
                    <polygon id="Stroke-1088" stroke="#3CD5E5" stroke-width="0.72" stroke-linecap="round" stroke-linejoin="round" points="5.5067062e-14 38.4698457 12.0861423 38.4698457 12.0861423 32.9495091 5.5067062e-14 32.9495091"></polygon>
                    <polygon id="Fill-1089" fill="#0C7454" points="5.5067062e-14 43.9039271 12.0861423 43.9039271 12.0861423 38.3835905 5.5067062e-14 38.3835905"></polygon>
                    <polygon id="Stroke-1090" stroke="#3CD5E5" stroke-width="0.72" stroke-linecap="round" stroke-linejoin="round" points="5.5067062e-14 43.9039271 12.0861423 43.9039271 12.0861423 38.3835905 5.5067062e-14 38.3835905"></polygon>
                </g>
                <g id="编组-7备份-2" transform="translate(21.000000, 201.000000)">
                    <polygon id="Fill-1075" fill="#0C7454" points="5.5067062e-14 5.52033661 12.0861423 5.52033661 12.0861423 0 5.5067062e-14 0"></polygon>
                    <polygon id="Stroke-1076" stroke="#3CD5E5" stroke-width="0.72" stroke-linecap="round" stroke-linejoin="round" points="5.5067062e-14 5.52033661 12.0861423 5.52033661 12.0861423 0 5.5067062e-14 0"></polygon>
                    <polygon id="Fill-1077" fill="#0C7454" points="5.5067062e-14 11.0406732 12.0861423 11.0406732 12.0861423 5.52033661 5.5067062e-14 5.52033661"></polygon>
                    <polygon id="Stroke-1078" stroke="#3CD5E5" stroke-width="0.72" stroke-linecap="round" stroke-linejoin="round" points="5.5067062e-14 11.0406732 12.0861423 11.0406732 12.0861423 5.52033661 5.5067062e-14 5.52033661"></polygon>
                    <polygon id="Fill-1079" fill="#0C7454" points="5.5067062e-14 16.5610098 12.0861423 16.5610098 12.0861423 11.0406732 5.5067062e-14 11.0406732"></polygon>
                    <polygon id="Stroke-1080" stroke="#3CD5E5" stroke-width="0.72" stroke-linecap="round" stroke-linejoin="round" points="5.5067062e-14 16.5610098 12.0861423 16.5610098 12.0861423 11.0406732 5.5067062e-14 11.0406732"></polygon>
                    <polygon id="Fill-1081" fill="#0C7454" points="5.5067062e-14 21.9950912 12.0861423 21.9950912 12.0861423 16.4747546 5.5067062e-14 16.4747546"></polygon>
                    <polygon id="Stroke-1082" stroke="#3CD5E5" stroke-width="0.72" stroke-linecap="round" stroke-linejoin="round" points="5.5067062e-14 21.9950912 12.0861423 21.9950912 12.0861423 16.4747546 5.5067062e-14 16.4747546"></polygon>
                    <polygon id="Fill-1083" fill="#0C7454" points="5.5067062e-14 27.5154278 12.0861423 27.5154278 12.0861423 21.9950912 5.5067062e-14 21.9950912"></polygon>
                    <polygon id="Stroke-1084" stroke="#3CD5E5" stroke-width="0.72" stroke-linecap="round" stroke-linejoin="round" points="5.5067062e-14 27.5154278 12.0861423 27.5154278 12.0861423 21.9950912 5.5067062e-14 21.9950912"></polygon>
                    <polygon id="Fill-1085" fill="#0C7454" points="5.5067062e-14 32.9495091 12.0861423 32.9495091 12.0861423 27.4291725 5.5067062e-14 27.4291725"></polygon>
                    <polygon id="Stroke-1086" stroke="#3CD5E5" stroke-width="0.72" stroke-linecap="round" stroke-linejoin="round" points="5.5067062e-14 32.9495091 12.0861423 32.9495091 12.0861423 27.4291725 5.5067062e-14 27.4291725"></polygon>
                    <polygon id="Fill-1087" fill="#0C7454" points="5.5067062e-14 38.4698457 12.0861423 38.4698457 12.0861423 32.9495091 5.5067062e-14 32.9495091"></polygon>
                    <polygon id="Stroke-1088" stroke="#3CD5E5" stroke-width="0.72" stroke-linecap="round" stroke-linejoin="round" points="5.5067062e-14 38.4698457 12.0861423 38.4698457 12.0861423 32.9495091 5.5067062e-14 32.9495091"></polygon>
                    <polygon id="Fill-1089" fill="#0C7454" points="5.5067062e-14 43.9039271 12.0861423 43.9039271 12.0861423 38.3835905 5.5067062e-14 38.3835905"></polygon>
                    <polygon id="Stroke-1090" stroke="#3CD5E5" stroke-width="0.72" stroke-linecap="round" stroke-linejoin="round" points="5.5067062e-14 43.9039271 12.0861423 43.9039271 12.0861423 38.3835905 5.5067062e-14 38.3835905"></polygon>
                </g>
                <g id="编组-7备份-3" transform="translate(21.000000, 247.000000)">
                    <polygon id="Fill-1075" fill="#0C7454" points="5.5067062e-14 5.52033661 12.0861423 5.52033661 12.0861423 0 5.5067062e-14 0"></polygon>
                    <polygon id="Stroke-1076" stroke="#3CD5E5" stroke-width="0.72" stroke-linecap="round" stroke-linejoin="round" points="5.5067062e-14 5.52033661 12.0861423 5.52033661 12.0861423 0 5.5067062e-14 0"></polygon>
                    <polygon id="Fill-1077" fill="#0C7454" points="5.5067062e-14 11.0406732 12.0861423 11.0406732 12.0861423 5.52033661 5.5067062e-14 5.52033661"></polygon>
                    <polygon id="Stroke-1078" stroke="#3CD5E5" stroke-width="0.72" stroke-linecap="round" stroke-linejoin="round" points="5.5067062e-14 11.0406732 12.0861423 11.0406732 12.0861423 5.52033661 5.5067062e-14 5.52033661"></polygon>
                    <polygon id="Fill-1079" fill="#0C7454" points="5.5067062e-14 16.5610098 12.0861423 16.5610098 12.0861423 11.0406732 5.5067062e-14 11.0406732"></polygon>
                    <polygon id="Stroke-1080" stroke="#3CD5E5" stroke-width="0.72" stroke-linecap="round" stroke-linejoin="round" points="5.5067062e-14 16.5610098 12.0861423 16.5610098 12.0861423 11.0406732 5.5067062e-14 11.0406732"></polygon>
                    <polygon id="Fill-1081" fill="#0C7454" points="5.5067062e-14 21.9950912 12.0861423 21.9950912 12.0861423 16.4747546 5.5067062e-14 16.4747546"></polygon>
                    <polygon id="Stroke-1082" stroke="#3CD5E5" stroke-width="0.72" stroke-linecap="round" stroke-linejoin="round" points="5.5067062e-14 21.9950912 12.0861423 21.9950912 12.0861423 16.4747546 5.5067062e-14 16.4747546"></polygon>
                    <polygon id="Fill-1083" fill="#0C7454" points="5.5067062e-14 27.5154278 12.0861423 27.5154278 12.0861423 21.9950912 5.5067062e-14 21.9950912"></polygon>
                    <polygon id="Stroke-1084" stroke="#3CD5E5" stroke-width="0.72" stroke-linecap="round" stroke-linejoin="round" points="5.5067062e-14 27.5154278 12.0861423 27.5154278 12.0861423 21.9950912 5.5067062e-14 21.9950912"></polygon>
                    <polygon id="Fill-1085" fill="#0C7454" points="5.5067062e-14 32.9495091 12.0861423 32.9495091 12.0861423 27.4291725 5.5067062e-14 27.4291725"></polygon>
                    <polygon id="Stroke-1086" stroke="#3CD5E5" stroke-width="0.72" stroke-linecap="round" stroke-linejoin="round" points="5.5067062e-14 32.9495091 12.0861423 32.9495091 12.0861423 27.4291725 5.5067062e-14 27.4291725"></polygon>
                    <polygon id="Fill-1087" fill="#0C7454" points="5.5067062e-14 38.4698457 12.0861423 38.4698457 12.0861423 32.9495091 5.5067062e-14 32.9495091"></polygon>
                    <polygon id="Stroke-1088" stroke="#3CD5E5" stroke-width="0.72" stroke-linecap="round" stroke-linejoin="round" points="5.5067062e-14 38.4698457 12.0861423 38.4698457 12.0861423 32.9495091 5.5067062e-14 32.9495091"></polygon>
                    <polygon id="Fill-1089" fill="#0C7454" points="5.5067062e-14 43.9039271 12.0861423 43.9039271 12.0861423 38.3835905 5.5067062e-14 38.3835905"></polygon>
                    <polygon id="Stroke-1090" stroke="#3CD5E5" stroke-width="0.72" stroke-linecap="round" stroke-linejoin="round" points="5.5067062e-14 43.9039271 12.0861423 43.9039271 12.0861423 38.3835905 5.5067062e-14 38.3835905"></polygon>
                </g>
                <g id="编组-7备份-4" transform="translate(21.000000, 293.000000)">
                    <polygon id="Fill-1075" fill="#0C7454" points="5.5067062e-14 5.52033661 12.0861423 5.52033661 12.0861423 0 5.5067062e-14 0"></polygon>
                    <polygon id="Stroke-1076" stroke="#3CD5E5" stroke-width="0.72" stroke-linecap="round" stroke-linejoin="round" points="5.5067062e-14 5.52033661 12.0861423 5.52033661 12.0861423 0 5.5067062e-14 0"></polygon>
                    <polygon id="Fill-1077" fill="#0C7454" points="5.5067062e-14 11.0406732 12.0861423 11.0406732 12.0861423 5.52033661 5.5067062e-14 5.52033661"></polygon>
                    <polygon id="Stroke-1078" stroke="#3CD5E5" stroke-width="0.72" stroke-linecap="round" stroke-linejoin="round" points="5.5067062e-14 11.0406732 12.0861423 11.0406732 12.0861423 5.52033661 5.5067062e-14 5.52033661"></polygon>
                    <polygon id="Fill-1079" fill="#0C7454" points="5.5067062e-14 16.5610098 12.0861423 16.5610098 12.0861423 11.0406732 5.5067062e-14 11.0406732"></polygon>
                    <polygon id="Stroke-1080" stroke="#3CD5E5" stroke-width="0.72" stroke-linecap="round" stroke-linejoin="round" points="5.5067062e-14 16.5610098 12.0861423 16.5610098 12.0861423 11.0406732 5.5067062e-14 11.0406732"></polygon>
                    <polygon id="Fill-1081" fill="#0C7454" points="5.5067062e-14 21.9950912 12.0861423 21.9950912 12.0861423 16.4747546 5.5067062e-14 16.4747546"></polygon>
                    <polygon id="Stroke-1082" stroke="#3CD5E5" stroke-width="0.72" stroke-linecap="round" stroke-linejoin="round" points="5.5067062e-14 21.9950912 12.0861423 21.9950912 12.0861423 16.4747546 5.5067062e-14 16.4747546"></polygon>
                    <polygon id="Fill-1083" fill="#0C7454" points="5.5067062e-14 27.5154278 12.0861423 27.5154278 12.0861423 21.9950912 5.5067062e-14 21.9950912"></polygon>
                    <polygon id="Stroke-1084" stroke="#3CD5E5" stroke-width="0.72" stroke-linecap="round" stroke-linejoin="round" points="5.5067062e-14 27.5154278 12.0861423 27.5154278 12.0861423 21.9950912 5.5067062e-14 21.9950912"></polygon>
                    <polygon id="Fill-1085" fill="#0C7454" points="5.5067062e-14 32.9495091 12.0861423 32.9495091 12.0861423 27.4291725 5.5067062e-14 27.4291725"></polygon>
                    <polygon id="Stroke-1086" stroke="#3CD5E5" stroke-width="0.72" stroke-linecap="round" stroke-linejoin="round" points="5.5067062e-14 32.9495091 12.0861423 32.9495091 12.0861423 27.4291725 5.5067062e-14 27.4291725"></polygon>
                    <polygon id="Fill-1087" fill="#0C7454" points="5.5067062e-14 38.4698457 12.0861423 38.4698457 12.0861423 32.9495091 5.5067062e-14 32.9495091"></polygon>
                    <polygon id="Stroke-1088" stroke="#3CD5E5" stroke-width="0.72" stroke-linecap="round" stroke-linejoin="round" points="5.5067062e-14 38.4698457 12.0861423 38.4698457 12.0861423 32.9495091 5.5067062e-14 32.9495091"></polygon>
                    <polygon id="Fill-1089" fill="#0C7454" points="5.5067062e-14 43.9039271 12.0861423 43.9039271 12.0861423 38.3835905 5.5067062e-14 38.3835905"></polygon>
                    <polygon id="Stroke-1090" stroke="#3CD5E5" stroke-width="0.72" stroke-linecap="round" stroke-linejoin="round" points="5.5067062e-14 43.9039271 12.0861423 43.9039271 12.0861423 38.3835905 5.5067062e-14 38.3835905"></polygon>
                </g>
                <g id="编组-7备份-5" transform="translate(21.000000, 339.000000)">
                    <polygon id="Fill-1075" fill="#0C7454" points="5.5067062e-14 5.52033661 12.0861423 5.52033661 12.0861423 0 5.5067062e-14 0"></polygon>
                    <polygon id="Stroke-1076" stroke="#3CD5E5" stroke-width="0.72" stroke-linecap="round" stroke-linejoin="round" points="5.5067062e-14 5.52033661 12.0861423 5.52033661 12.0861423 0 5.5067062e-14 0"></polygon>
                    <polygon id="Fill-1077" fill="#0C7454" points="5.5067062e-14 11.0406732 12.0861423 11.0406732 12.0861423 5.52033661 5.5067062e-14 5.52033661"></polygon>
                    <polygon id="Stroke-1078" stroke="#3CD5E5" stroke-width="0.72" stroke-linecap="round" stroke-linejoin="round" points="5.5067062e-14 11.0406732 12.0861423 11.0406732 12.0861423 5.52033661 5.5067062e-14 5.52033661"></polygon>
                    <polygon id="Fill-1079" fill="#0C7454" points="5.5067062e-14 16.5610098 12.0861423 16.5610098 12.0861423 11.0406732 5.5067062e-14 11.0406732"></polygon>
                    <polygon id="Stroke-1080" stroke="#3CD5E5" stroke-width="0.72" stroke-linecap="round" stroke-linejoin="round" points="5.5067062e-14 16.5610098 12.0861423 16.5610098 12.0861423 11.0406732 5.5067062e-14 11.0406732"></polygon>
                    <polygon id="Fill-1081" fill="#0C7454" points="5.5067062e-14 21.9950912 12.0861423 21.9950912 12.0861423 16.4747546 5.5067062e-14 16.4747546"></polygon>
                    <polygon id="Stroke-1082" stroke="#3CD5E5" stroke-width="0.72" stroke-linecap="round" stroke-linejoin="round" points="5.5067062e-14 21.9950912 12.0861423 21.9950912 12.0861423 16.4747546 5.5067062e-14 16.4747546"></polygon>
                    <polygon id="Fill-1083" fill="#0C7454" points="5.5067062e-14 27.5154278 12.0861423 27.5154278 12.0861423 21.9950912 5.5067062e-14 21.9950912"></polygon>
                    <polygon id="Stroke-1084" stroke="#3CD5E5" stroke-width="0.72" stroke-linecap="round" stroke-linejoin="round" points="5.5067062e-14 27.5154278 12.0861423 27.5154278 12.0861423 21.9950912 5.5067062e-14 21.9950912"></polygon>
                    <polygon id="Fill-1085" fill="#0C7454" points="5.5067062e-14 32.9495091 12.0861423 32.9495091 12.0861423 27.4291725 5.5067062e-14 27.4291725"></polygon>
                    <polygon id="Stroke-1086" stroke="#3CD5E5" stroke-width="0.72" stroke-linecap="round" stroke-linejoin="round" points="5.5067062e-14 32.9495091 12.0861423 32.9495091 12.0861423 27.4291725 5.5067062e-14 27.4291725"></polygon>
                    <polygon id="Fill-1087" fill="#0C7454" points="5.5067062e-14 38.4698457 12.0861423 38.4698457 12.0861423 32.9495091 5.5067062e-14 32.9495091"></polygon>
                    <polygon id="Stroke-1088" stroke="#3CD5E5" stroke-width="0.72" stroke-linecap="round" stroke-linejoin="round" points="5.5067062e-14 38.4698457 12.0861423 38.4698457 12.0861423 32.9495091 5.5067062e-14 32.9495091"></polygon>
                    <polygon id="Fill-1089" fill="#0C7454" points="5.5067062e-14 43.9039271 12.0861423 43.9039271 12.0861423 38.3835905 5.5067062e-14 38.3835905"></polygon>
                    <polygon id="Stroke-1090" stroke="#3CD5E5" stroke-width="0.72" stroke-linecap="round" stroke-linejoin="round" points="5.5067062e-14 43.9039271 12.0861423 43.9039271 12.0861423 38.3835905 5.5067062e-14 38.3835905"></polygon>
                </g>
            </g>
        </g>
    </g>
</svg>