<?xml version="1.0" encoding="utf-8"?>
<!-- Generator: Adobe Illustrator 21.0.0, SVG Export Plug-In . SVG Version: 6.00 Build 0)  -->
<svg version="1.1" id="图层_1" xmlns="http://www.w3.org/2000/svg" xmlns:xlink="http://www.w3.org/1999/xlink" x="0px" y="0px"
	 viewBox="0 0 406 63" style="enable-background:new 0 0 406 63;" xml:space="preserve">
<style type="text/css">
	.st0{fill:#098D97;stroke:#3CD5E5;stroke-width:3;}
	.st1{fill:#091830;stroke:#3CD5E5;stroke-width:0.72;stroke-linecap:round;stroke-linejoin:round;}
	.st2{fill:#0C7454;}
	.st3{fill:none;stroke:#3CD5E5;stroke-width:0.72;stroke-linecap:round;stroke-linejoin:round;}
</style>
<title>员工停车场</title>
<path id="矩形" class="st0" d="M404,8v34c0,3.3-2.7,6-6,6H8c-3.3,0-6-2.7-6-6V8c0-3.3,2.7-6,6-6h390C401.3,2,404,4.7,404,8z"/>
<polyline id="Stroke-1044" class="st1" points="389.2,34.1 345.3,34.1 345.2,34.6 344.9,34.9 344.6,35.2 344.2,35.3 343.7,35.2 
	343.4,34.9 343.2,34.6 343.1,34.1 299.2,34.1 299.1,34.6 299,34.9 298.6,35.2 298.2,35.3 297.8,35.2 297.4,34.9 297.2,34.6 
	297.1,34.1 253.2,34.1 253.1,34.6 252.8,34.9 252.5,35.2 252,35.3 251.6,35.2 251.3,34.9 251.1,34.6 251,34.1 207.1,34.1 207,34.6 
	206.8,34.9 206.4,35.2 206,35.3 205.6,35.2 205.2,34.9 204.9,34.6 204.9,34.1 161,34.1 160.9,34.6 160.7,34.9 160.4,35.2 
	159.9,35.3 159.5,35.2 159.1,34.9 158.9,34.6 158.8,34.1 114.9,34.1 114.8,34.6 114.6,34.9 114.2,35.2 113.8,35.3 113.3,35.2 
	113,34.9 112.8,34.6 112.7,34.1 68.8,34.1 68.7,34.6 68.6,34.9 68.2,35.2 67.8,35.3 67.4,35.2 67,34.9 66.8,34.6 66.7,34.1 
	15.4,34.1 14.7,34.1 14.1,33.7 13.5,33.2 13.2,32.6 13.1,31.9 13.1,19.8 13.2,18.9 13.5,18 14.1,17.1 14.8,16.5 15.6,15.9 
	16.6,15.6 17.5,15.5 389.1,15.5 390,15.6 391,15.9 391.9,16.5 392.6,17.1 393.1,18 393.4,18.9 393.5,19.8 393.5,29.7 393.4,30.6 
	393.1,31.6 392.6,32.4 391.9,33.1 391,33.7 390,34.1 389.2,34.1 "/>
<g>
	<polygon id="Fill-1059" class="st2" points="364,21.5 364,33.6 369.5,33.6 369.5,21.5 	"/>
	<polygon id="Stroke-1060" class="st3" points="364,21.5 364,33.6 369.5,33.6 369.5,21.5 	"/>
	<polygon id="Fill-1061" class="st2" points="358.5,21.5 358.5,33.6 364.1,33.6 364.1,21.5 	"/>
	<polygon id="Stroke-1062" class="st3" points="358.5,21.5 358.5,33.6 364.1,33.6 364.1,21.5 	"/>
	<polygon id="Fill-1063" class="st2" points="353,21.5 353,33.6 358.5,33.6 358.5,21.5 	"/>
	<polygon id="Stroke-1064" class="st3" points="353,21.5 353,33.6 358.5,33.6 358.5,21.5 	"/>
	<polygon id="Fill-1065" class="st2" points="347.6,21.5 347.6,33.6 353.1,33.6 353.1,21.5 	"/>
	<polygon id="Stroke-1066" class="st3" points="347.6,21.5 347.6,33.6 353.1,33.6 353.1,21.5 	"/>
	<polygon id="Fill-1067" class="st2" points="342.2,21.5 342.2,33.6 347.7,33.6 347.7,21.5 	"/>
	<polygon id="Stroke-1068" class="st3" points="342.2,21.5 342.2,33.6 347.7,33.6 347.7,21.5 	"/>
	<polygon id="Fill-1069" class="st2" points="336.7,21.5 336.7,33.6 342.2,33.6 342.2,21.5 	"/>
	<polygon id="Stroke-1070" class="st3" points="336.7,21.5 336.7,33.6 342.2,33.6 342.2,21.5 	"/>
	<polygon id="Fill-1071" class="st2" points="331.2,21.5 331.2,33.6 336.7,33.6 336.7,21.5 	"/>
	<polygon id="Stroke-1072" class="st3" points="331.2,21.5 331.2,33.6 336.7,33.6 336.7,21.5 	"/>
	<polygon id="Fill-1065_1_" class="st2" points="322.5,21.5 322.5,33.6 328.1,33.6 328.1,21.5 	"/>
	<polygon id="Stroke-1066_1_" class="st3" points="322.5,21.5 322.5,33.6 328.1,33.6 328.1,21.5 	"/>
	<polygon id="Fill-1067_1_" class="st2" points="317.1,21.5 317.1,33.6 322.6,33.6 322.6,21.5 	"/>
	<polygon id="Stroke-1068_1_" class="st3" points="317.1,21.5 317.1,33.6 322.6,33.6 322.6,21.5 	"/>
	<polygon id="Fill-1069_1_" class="st2" points="311.7,21.5 311.7,33.6 317.2,33.6 317.2,21.5 	"/>
	<polygon id="Stroke-1070_1_" class="st3" points="311.7,21.5 311.7,33.6 317.2,33.6 317.2,21.5 	"/>
	<polygon id="Fill-1071_1_" class="st2" points="306.2,21.5 306.2,33.6 311.7,33.6 311.7,21.5 	"/>
	<polygon id="Stroke-1072_1_" class="st3" points="306.2,21.5 306.2,33.6 311.7,33.6 311.7,21.5 	"/>
	<g id="编组-7" transform="translate(21.000000, 62.000000)">
		<polygon id="Fill-1075" class="st2" points="276.1,-40.5 276.1,-28.4 281.7,-28.4 281.7,-40.5 		"/>
		<polygon id="Stroke-1076" class="st3" points="276.1,-40.5 276.1,-28.4 281.7,-28.4 281.7,-40.5 		"/>
		<polygon id="Fill-1077" class="st2" points="270.6,-40.5 270.6,-28.4 276.1,-28.4 276.1,-40.5 		"/>
		<polygon id="Stroke-1078" class="st3" points="270.6,-40.5 270.6,-28.4 276.1,-28.4 276.1,-40.5 		"/>
		<polygon id="Fill-1079" class="st2" points="265.1,-40.5 265.1,-28.4 270.6,-28.4 270.6,-40.5 		"/>
		<polygon id="Stroke-1080" class="st3" points="265.1,-40.5 265.1,-28.4 270.6,-28.4 270.6,-40.5 		"/>
		<polygon id="Fill-1081" class="st2" points="259.7,-40.5 259.7,-28.4 265.2,-28.4 265.2,-40.5 		"/>
		<polygon id="Stroke-1082" class="st3" points="259.7,-40.5 259.7,-28.4 265.2,-28.4 265.2,-40.5 		"/>
		<polygon id="Fill-1083" class="st2" points="254.2,-40.5 254.2,-28.4 259.7,-28.4 259.7,-40.5 		"/>
		<polygon id="Stroke-1084" class="st3" points="254.2,-40.5 254.2,-28.4 259.7,-28.4 259.7,-40.5 		"/>
		<polygon id="Fill-1085" class="st2" points="248.7,-40.5 248.7,-28.4 254.2,-28.4 254.2,-40.5 		"/>
		<polygon id="Stroke-1086" class="st3" points="248.7,-40.5 248.7,-28.4 254.2,-28.4 254.2,-40.5 		"/>
		<polygon id="Fill-1087" class="st2" points="243.2,-40.5 243.2,-28.4 248.7,-28.4 248.7,-40.5 		"/>
		<polygon id="Stroke-1088" class="st3" points="243.2,-40.5 243.2,-28.4 248.7,-28.4 248.7,-40.5 		"/>
		<polygon id="Fill-1089" class="st2" points="237.8,-40.5 237.8,-28.4 243.3,-28.4 243.3,-40.5 		"/>
		<polygon id="Stroke-1090" class="st3" points="237.8,-40.5 237.8,-28.4 243.3,-28.4 243.3,-40.5 		"/>
	</g>
	<g id="编组-7_1_" transform="translate(21.000000, 109.000000)">
		<polygon id="Fill-1079_1_" class="st2" points="229.9,-87.5 229.9,-75.4 235.5,-75.4 235.5,-87.5 		"/>
		<polygon id="Stroke-1080_1_" class="st3" points="229.9,-87.5 229.9,-75.4 235.5,-75.4 235.5,-87.5 		"/>
		<polygon id="Fill-1081_1_" class="st2" points="224.5,-87.5 224.5,-75.4 230,-75.4 230,-87.5 		"/>
		<polygon id="Stroke-1082_1_" class="st3" points="224.5,-87.5 224.5,-75.4 230,-75.4 230,-87.5 		"/>
		<polygon id="Fill-1083_1_" class="st2" points="219,-87.5 219,-75.4 224.5,-75.4 224.5,-87.5 		"/>
		<polygon id="Stroke-1084_1_" class="st3" points="219,-87.5 219,-75.4 224.5,-75.4 224.5,-87.5 		"/>
		<polygon id="Fill-1085_1_" class="st2" points="213.6,-87.5 213.6,-75.4 219.1,-75.4 219.1,-87.5 		"/>
		<polygon id="Stroke-1086_1_" class="st3" points="213.6,-87.5 213.6,-75.4 219.1,-75.4 219.1,-87.5 		"/>
		<polygon id="Fill-1087_1_" class="st2" points="208,-87.5 208,-75.4 213.6,-75.4 213.6,-87.5 		"/>
		<polygon id="Stroke-1088_1_" class="st3" points="208,-87.5 208,-75.4 213.6,-75.4 213.6,-87.5 		"/>
		<polygon id="Fill-1089_1_" class="st2" points="202.6,-87.5 202.6,-75.4 208.1,-75.4 208.1,-87.5 		"/>
		<polygon id="Stroke-1090_1_" class="st3" points="202.6,-87.5 202.6,-75.4 208.1,-75.4 208.1,-87.5 		"/>
	</g>
	<g id="编组-7备份" transform="translate(21.000000, 155.000000)">
		<polygon id="Fill-1079_2_" class="st2" points="193.9,-133.5 193.9,-121.4 199.5,-121.4 199.5,-133.5 		"/>
		<polygon id="Stroke-1080_2_" class="st3" points="193.9,-133.5 193.9,-121.4 199.5,-121.4 199.5,-133.5 		"/>
		<polygon id="Fill-1081_2_" class="st2" points="188.5,-133.5 188.5,-121.4 194,-121.4 194,-133.5 		"/>
		<polygon id="Stroke-1082_2_" class="st3" points="188.5,-133.5 188.5,-121.4 194,-121.4 194,-133.5 		"/>
		<polygon id="Fill-1083_2_" class="st2" points="183,-133.5 183,-121.4 188.5,-121.4 188.5,-133.5 		"/>
		<polygon id="Stroke-1084_2_" class="st3" points="183,-133.5 183,-121.4 188.5,-121.4 188.5,-133.5 		"/>
		<polygon id="Fill-1085_2_" class="st2" points="177.6,-133.5 177.6,-121.4 183.1,-121.4 183.1,-133.5 		"/>
		<polygon id="Stroke-1086_2_" class="st3" points="177.6,-133.5 177.6,-121.4 183.1,-121.4 183.1,-133.5 		"/>
		<polygon id="Fill-1087_2_" class="st2" points="172,-133.5 172,-121.4 177.6,-121.4 177.6,-133.5 		"/>
		<polygon id="Stroke-1088_2_" class="st3" points="172,-133.5 172,-121.4 177.6,-121.4 177.6,-133.5 		"/>
		<polygon id="Fill-1089_2_" class="st2" points="166.6,-133.5 166.6,-121.4 172.1,-121.4 172.1,-133.5 		"/>
		<polygon id="Stroke-1090_2_" class="st3" points="166.6,-133.5 166.6,-121.4 172.1,-121.4 172.1,-133.5 		"/>
	</g>
	<g id="编组-7备份-2" transform="translate(21.000000, 201.000000)">
		<polygon id="Fill-1079_3_" class="st2" points="157.9,-179.5 157.9,-167.4 163.5,-167.4 163.5,-179.5 		"/>
		<polygon id="Stroke-1080_3_" class="st3" points="157.9,-179.5 157.9,-167.4 163.5,-167.4 163.5,-179.5 		"/>
		<polygon id="Fill-1081_3_" class="st2" points="152.5,-179.5 152.5,-167.4 158,-167.4 158,-179.5 		"/>
		<polygon id="Stroke-1082_3_" class="st3" points="152.5,-179.5 152.5,-167.4 158,-167.4 158,-179.5 		"/>
		<polygon id="Fill-1083_3_" class="st2" points="147,-179.5 147,-167.4 152.5,-167.4 152.5,-179.5 		"/>
		<polygon id="Stroke-1084_3_" class="st3" points="147,-179.5 147,-167.4 152.5,-167.4 152.5,-179.5 		"/>
		<polygon id="Fill-1085_3_" class="st2" points="141.6,-179.5 141.6,-167.4 147.1,-167.4 147.1,-179.5 		"/>
		<polygon id="Stroke-1086_3_" class="st3" points="141.6,-179.5 141.6,-167.4 147.1,-167.4 147.1,-179.5 		"/>
		<polygon id="Fill-1087_3_" class="st2" points="136,-179.5 136,-167.4 141.6,-167.4 141.6,-179.5 		"/>
		<polygon id="Stroke-1088_3_" class="st3" points="136,-179.5 136,-167.4 141.6,-167.4 141.6,-179.5 		"/>
		<polygon id="Fill-1089_3_" class="st2" points="130.6,-179.5 130.6,-167.4 136.1,-167.4 136.1,-179.5 		"/>
		<polygon id="Stroke-1090_3_" class="st3" points="130.6,-179.5 130.6,-167.4 136.1,-167.4 136.1,-179.5 		"/>
	</g>
	<g id="编组-7备份-3" transform="translate(21.000000, 247.000000)">
		<polygon id="Fill-1075_4_" class="st2" points="122,-225.5 122,-213.4 127.5,-213.4 127.5,-225.5 		"/>
		<polygon id="Stroke-1076_4_" class="st3" points="122,-225.5 122,-213.4 127.5,-213.4 127.5,-225.5 		"/>
		<polygon id="Fill-1077_4_" class="st2" points="116.5,-225.5 116.5,-213.4 122,-213.4 122,-225.5 		"/>
		<polygon id="Stroke-1078_4_" class="st3" points="116.5,-225.5 116.5,-213.4 122,-213.4 122,-225.5 		"/>
		<polygon id="Fill-1079_4_" class="st2" points="110.9,-225.5 110.9,-213.4 116.5,-213.4 116.5,-225.5 		"/>
		<polygon id="Stroke-1080_4_" class="st3" points="110.9,-225.5 110.9,-213.4 116.5,-213.4 116.5,-225.5 		"/>
		<polygon id="Fill-1081_4_" class="st2" points="105.5,-225.5 105.5,-213.4 111,-213.4 111,-225.5 		"/>
		<polygon id="Stroke-1082_4_" class="st3" points="105.5,-225.5 105.5,-213.4 111,-213.4 111,-225.5 		"/>
		<polygon id="Fill-1083_4_" class="st2" points="100,-225.5 100,-213.4 105.5,-213.4 105.5,-225.5 		"/>
		<polygon id="Stroke-1084_4_" class="st3" points="100,-225.5 100,-213.4 105.5,-213.4 105.5,-225.5 		"/>
		<polygon id="Fill-1085_4_" class="st2" points="94.6,-225.5 94.6,-213.4 100.1,-213.4 100.1,-225.5 		"/>
		<polygon id="Stroke-1086_4_" class="st3" points="94.6,-225.5 94.6,-213.4 100.1,-213.4 100.1,-225.5 		"/>
		<polygon id="Fill-1087_4_" class="st2" points="89,-225.5 89,-213.4 94.6,-213.4 94.6,-225.5 		"/>
		<polygon id="Stroke-1088_4_" class="st3" points="89,-225.5 89,-213.4 94.6,-213.4 94.6,-225.5 		"/>
		<polygon id="Fill-1089_4_" class="st2" points="83.6,-225.5 83.6,-213.4 89.1,-213.4 89.1,-225.5 		"/>
		<polygon id="Stroke-1090_4_" class="st3" points="83.6,-225.5 83.6,-213.4 89.1,-213.4 89.1,-225.5 		"/>
		<polygon id="Fill-1089_7_" class="st2" points="78.1,-225.5 78.1,-213.4 83.6,-213.4 83.6,-225.5 		"/>
		<polygon id="Stroke-1090_7_" class="st3" points="78.1,-225.5 78.1,-213.4 83.6,-213.4 83.6,-225.5 		"/>
	</g>
	<polygon id="Fill-1083_5_" class="st2" points="91,21.5 91,33.6 96.5,33.6 96.5,21.5 	"/>
	<polygon id="Stroke-1084_5_" class="st3" points="91,21.5 91,33.6 96.5,33.6 96.5,21.5 	"/>
	<polygon id="Fill-1085_5_" class="st2" points="85.6,21.5 85.6,33.6 91.1,33.6 91.1,21.5 	"/>
	<polygon id="Stroke-1086_5_" class="st3" points="85.6,21.5 85.6,33.6 91.1,33.6 91.1,21.5 	"/>
	<polygon id="Fill-1087_5_" class="st2" points="80,21.5 80,33.6 85.6,33.6 85.6,21.5 	"/>
	<polygon id="Stroke-1088_5_" class="st3" points="80,21.5 80,33.6 85.6,33.6 85.6,21.5 	"/>
	<polygon id="Fill-1089_5_" class="st2" points="74.6,21.5 74.6,33.6 80.1,33.6 80.1,21.5 	"/>
	<polygon id="Stroke-1090_5_" class="st3" points="74.6,21.5 74.6,33.6 80.1,33.6 80.1,21.5 	"/>
	<polygon id="Fill-1077_6_" class="st2" points="66.5,21.5 66.5,33.6 72,33.6 72,21.5 	"/>
	<polygon id="Stroke-1078_6_" class="st3" points="66.5,21.5 66.5,33.6 72,33.6 72,21.5 	"/>
	<polygon id="Fill-1079_6_" class="st2" points="60.9,21.5 60.9,33.6 66.5,33.6 66.5,21.5 	"/>
	<polygon id="Stroke-1080_6_" class="st3" points="60.9,21.5 60.9,33.6 66.5,33.6 66.5,21.5 	"/>
	<polygon id="Fill-1081_6_" class="st2" points="55.5,21.5 55.5,33.6 61,33.6 61,21.5 	"/>
	<polygon id="Stroke-1082_6_" class="st3" points="55.5,21.5 55.5,33.6 61,33.6 61,21.5 	"/>
	<polygon id="Fill-1083_6_" class="st2" points="50,21.5 50,33.6 55.5,33.6 55.5,21.5 	"/>
	<polygon id="Stroke-1084_6_" class="st3" points="50,21.5 50,33.6 55.5,33.6 55.5,21.5 	"/>
	<polygon id="Fill-1085_6_" class="st2" points="44.6,21.5 44.6,33.6 50.1,33.6 50.1,21.5 	"/>
	<polygon id="Stroke-1086_6_" class="st3" points="44.6,21.5 44.6,33.6 50.1,33.6 50.1,21.5 	"/>
	<polygon id="Fill-1087_6_" class="st2" points="39,21.5 39,33.6 44.6,33.6 44.6,21.5 	"/>
	<polygon id="Stroke-1088_6_" class="st3" points="39,21.5 39,33.6 44.6,33.6 44.6,21.5 	"/>
	<polygon id="Fill-1089_6_" class="st2" points="33.6,21.5 33.6,33.6 39.1,33.6 39.1,21.5 	"/>
	<polygon id="Stroke-1090_6_" class="st3" points="33.6,21.5 33.6,33.6 39.1,33.6 39.1,21.5 	"/>
</g>
<g>
	<polygon id="Fill-1059_1_" class="st2" points="364,49.5 364,61.6 369.5,61.6 369.5,49.5 	"/>
	<polygon id="Stroke-1060_1_" class="st3" points="364,49.5 364,61.6 369.5,61.6 369.5,49.5 	"/>
	<polygon id="Fill-1061_1_" class="st2" points="358.5,49.5 358.5,61.6 364.1,61.6 364.1,49.5 	"/>
	<polygon id="Stroke-1062_1_" class="st3" points="358.5,49.5 358.5,61.6 364.1,61.6 364.1,49.5 	"/>
	<polygon id="Fill-1063_1_" class="st2" points="353,49.5 353,61.6 358.5,61.6 358.5,49.5 	"/>
	<polygon id="Stroke-1064_1_" class="st3" points="353,49.5 353,61.6 358.5,61.6 358.5,49.5 	"/>
	<polygon id="Fill-1065_3_" class="st2" points="347.6,49.5 347.6,61.6 353.1,61.6 353.1,49.5 	"/>
	<polygon id="Stroke-1066_3_" class="st3" points="347.6,49.5 347.6,61.6 353.1,61.6 353.1,49.5 	"/>
	<polygon id="Fill-1067_3_" class="st2" points="342.2,49.5 342.2,61.6 347.7,61.6 347.7,49.5 	"/>
	<polygon id="Stroke-1068_3_" class="st3" points="342.2,49.5 342.2,61.6 347.7,61.6 347.7,49.5 	"/>
	<polygon id="Fill-1069_3_" class="st2" points="336.7,49.5 336.7,61.6 342.2,61.6 342.2,49.5 	"/>
	<polygon id="Stroke-1070_3_" class="st3" points="336.7,49.5 336.7,61.6 342.2,61.6 342.2,49.5 	"/>
	<polygon id="Fill-1071_3_" class="st2" points="331.2,49.5 331.2,61.6 336.7,61.6 336.7,49.5 	"/>
	<polygon id="Stroke-1072_3_" class="st3" points="331.2,49.5 331.2,61.6 336.7,61.6 336.7,49.5 	"/>
	<polygon id="Fill-1065_2_" class="st2" points="322.5,49.5 322.5,61.6 328.1,61.6 328.1,49.5 	"/>
	<polygon id="Stroke-1066_2_" class="st3" points="322.5,49.5 322.5,61.6 328.1,61.6 328.1,49.5 	"/>
	<polygon id="Fill-1067_2_" class="st2" points="317.1,49.5 317.1,61.6 322.6,61.6 322.6,49.5 	"/>
	<polygon id="Stroke-1068_2_" class="st3" points="317.1,49.5 317.1,61.6 322.6,61.6 322.6,49.5 	"/>
	<polygon id="Fill-1069_2_" class="st2" points="311.7,49.5 311.7,61.6 317.2,61.6 317.2,49.5 	"/>
	<polygon id="Stroke-1070_2_" class="st3" points="311.7,49.5 311.7,61.6 317.2,61.6 317.2,49.5 	"/>
	<polygon id="Fill-1071_2_" class="st2" points="306.2,49.5 306.2,61.6 311.7,61.6 311.7,49.5 	"/>
	<polygon id="Stroke-1072_2_" class="st3" points="306.2,49.5 306.2,61.6 311.7,61.6 311.7,49.5 	"/>
	<g id="编组-7_3_" transform="translate(21.000000, 62.000000)">
		<polygon id="Fill-1075_2_" class="st2" points="276.1,-12.5 276.1,-0.4 281.7,-0.4 281.7,-12.5 		"/>
		<polygon id="Stroke-1076_2_" class="st3" points="276.1,-12.5 276.1,-0.4 281.7,-0.4 281.7,-12.5 		"/>
		<polygon id="Fill-1077_3_" class="st2" points="270.6,-12.5 270.6,-0.4 276.1,-0.4 276.1,-12.5 		"/>
		<polygon id="Stroke-1078_3_" class="st3" points="270.6,-12.5 270.6,-0.4 276.1,-0.4 276.1,-12.5 		"/>
		<polygon id="Fill-1079_11_" class="st2" points="265.1,-12.5 265.1,-0.4 270.6,-0.4 270.6,-12.5 		"/>
		<polygon id="Stroke-1080_11_" class="st3" points="265.1,-12.5 265.1,-0.4 270.6,-0.4 270.6,-12.5 		"/>
		<polygon id="Fill-1081_11_" class="st2" points="259.7,-12.5 259.7,-0.4 265.2,-0.4 265.2,-12.5 		"/>
		<polygon id="Stroke-1082_11_" class="st3" points="259.7,-12.5 259.7,-0.4 265.2,-0.4 265.2,-12.5 		"/>
		<polygon id="Fill-1083_13_" class="st2" points="254.2,-12.5 254.2,-0.4 259.7,-0.4 259.7,-12.5 		"/>
		<polygon id="Stroke-1084_13_" class="st3" points="254.2,-12.5 254.2,-0.4 259.7,-0.4 259.7,-12.5 		"/>
		<polygon id="Fill-1085_13_" class="st2" points="248.7,-12.5 248.7,-0.4 254.2,-0.4 254.2,-12.5 		"/>
		<polygon id="Stroke-1086_13_" class="st3" points="248.7,-12.5 248.7,-0.4 254.2,-0.4 254.2,-12.5 		"/>
		<polygon id="Fill-1087_13_" class="st2" points="243.2,-12.5 243.2,-0.4 248.7,-0.4 248.7,-12.5 		"/>
		<polygon id="Stroke-1088_13_" class="st3" points="243.2,-12.5 243.2,-0.4 248.7,-0.4 248.7,-12.5 		"/>
		<polygon id="Fill-1089_15_" class="st2" points="237.8,-12.5 237.8,-0.4 243.3,-0.4 243.3,-12.5 		"/>
		<polygon id="Stroke-1090_15_" class="st3" points="237.8,-12.5 237.8,-0.4 243.3,-0.4 243.3,-12.5 		"/>
	</g>
	<g id="编组-7_2_" transform="translate(21.000000, 109.000000)">
		<polygon id="Fill-1079_10_" class="st2" points="229.9,-59.5 229.9,-47.4 235.5,-47.4 235.5,-59.5 		"/>
		<polygon id="Stroke-1080_10_" class="st3" points="229.9,-59.5 229.9,-47.4 235.5,-47.4 235.5,-59.5 		"/>
		<polygon id="Fill-1081_10_" class="st2" points="224.5,-59.5 224.5,-47.4 230,-47.4 230,-59.5 		"/>
		<polygon id="Stroke-1082_10_" class="st3" points="224.5,-59.5 224.5,-47.4 230,-47.4 230,-59.5 		"/>
		<polygon id="Fill-1083_12_" class="st2" points="219,-59.5 219,-47.4 224.5,-47.4 224.5,-59.5 		"/>
		<polygon id="Stroke-1084_12_" class="st3" points="219,-59.5 219,-47.4 224.5,-47.4 224.5,-59.5 		"/>
		<polygon id="Fill-1085_12_" class="st2" points="213.6,-59.5 213.6,-47.4 219.1,-47.4 219.1,-59.5 		"/>
		<polygon id="Stroke-1086_12_" class="st3" points="213.6,-59.5 213.6,-47.4 219.1,-47.4 219.1,-59.5 		"/>
		<polygon id="Fill-1087_12_" class="st2" points="208,-59.5 208,-47.4 213.6,-47.4 213.6,-59.5 		"/>
		<polygon id="Stroke-1088_12_" class="st3" points="208,-59.5 208,-47.4 213.6,-47.4 213.6,-59.5 		"/>
		<polygon id="Fill-1089_14_" class="st2" points="202.6,-59.5 202.6,-47.4 208.1,-47.4 208.1,-59.5 		"/>
		<polygon id="Stroke-1090_14_" class="st3" points="202.6,-59.5 202.6,-47.4 208.1,-47.4 208.1,-59.5 		"/>
	</g>
	<g id="编组-7备份_1_" transform="translate(21.000000, 155.000000)">
		<polygon id="Fill-1079_9_" class="st2" points="193.9,-105.5 193.9,-93.4 199.5,-93.4 199.5,-105.5 		"/>
		<polygon id="Stroke-1080_9_" class="st3" points="193.9,-105.5 193.9,-93.4 199.5,-93.4 199.5,-105.5 		"/>
		<polygon id="Fill-1081_9_" class="st2" points="188.5,-105.5 188.5,-93.4 194,-93.4 194,-105.5 		"/>
		<polygon id="Stroke-1082_9_" class="st3" points="188.5,-105.5 188.5,-93.4 194,-93.4 194,-105.5 		"/>
		<polygon id="Fill-1083_11_" class="st2" points="183,-105.5 183,-93.4 188.5,-93.4 188.5,-105.5 		"/>
		<polygon id="Stroke-1084_11_" class="st3" points="183,-105.5 183,-93.4 188.5,-93.4 188.5,-105.5 		"/>
		<polygon id="Fill-1085_11_" class="st2" points="177.6,-105.5 177.6,-93.4 183.1,-93.4 183.1,-105.5 		"/>
		<polygon id="Stroke-1086_11_" class="st3" points="177.6,-105.5 177.6,-93.4 183.1,-93.4 183.1,-105.5 		"/>
		<polygon id="Fill-1087_11_" class="st2" points="172,-105.5 172,-93.4 177.6,-93.4 177.6,-105.5 		"/>
		<polygon id="Stroke-1088_11_" class="st3" points="172,-105.5 172,-93.4 177.6,-93.4 177.6,-105.5 		"/>
		<polygon id="Fill-1089_13_" class="st2" points="166.6,-105.5 166.6,-93.4 172.1,-93.4 172.1,-105.5 		"/>
		<polygon id="Stroke-1090_13_" class="st3" points="166.6,-105.5 166.6,-93.4 172.1,-93.4 172.1,-105.5 		"/>
	</g>
	<g id="编组-7备份-2_1_" transform="translate(21.000000, 201.000000)">
		<polygon id="Fill-1079_8_" class="st2" points="157.9,-151.5 157.9,-139.4 163.5,-139.4 163.5,-151.5 		"/>
		<polygon id="Stroke-1080_8_" class="st3" points="157.9,-151.5 157.9,-139.4 163.5,-139.4 163.5,-151.5 		"/>
		<polygon id="Fill-1081_8_" class="st2" points="152.5,-151.5 152.5,-139.4 158,-139.4 158,-151.5 		"/>
		<polygon id="Stroke-1082_8_" class="st3" points="152.5,-151.5 152.5,-139.4 158,-139.4 158,-151.5 		"/>
		<polygon id="Fill-1083_10_" class="st2" points="147,-151.5 147,-139.4 152.5,-139.4 152.5,-151.5 		"/>
		<polygon id="Stroke-1084_10_" class="st3" points="147,-151.5 147,-139.4 152.5,-139.4 152.5,-151.5 		"/>
		<polygon id="Fill-1085_10_" class="st2" points="141.6,-151.5 141.6,-139.4 147.1,-139.4 147.1,-151.5 		"/>
		<polygon id="Stroke-1086_10_" class="st3" points="141.6,-151.5 141.6,-139.4 147.1,-139.4 147.1,-151.5 		"/>
		<polygon id="Fill-1087_10_" class="st2" points="136,-151.5 136,-139.4 141.6,-139.4 141.6,-151.5 		"/>
		<polygon id="Stroke-1088_10_" class="st3" points="136,-151.5 136,-139.4 141.6,-139.4 141.6,-151.5 		"/>
		<polygon id="Fill-1089_12_" class="st2" points="130.6,-151.5 130.6,-139.4 136.1,-139.4 136.1,-151.5 		"/>
		<polygon id="Stroke-1090_12_" class="st3" points="130.6,-151.5 130.6,-139.4 136.1,-139.4 136.1,-151.5 		"/>
	</g>
	<g id="编组-7备份-3_1_" transform="translate(21.000000, 247.000000)">
		<polygon id="Fill-1075_1_" class="st2" points="122,-197.5 122,-185.4 127.5,-185.4 127.5,-197.5 		"/>
		<polygon id="Stroke-1076_1_" class="st3" points="122,-197.5 122,-185.4 127.5,-185.4 127.5,-197.5 		"/>
		<polygon id="Fill-1077_2_" class="st2" points="116.5,-197.5 116.5,-185.4 122,-185.4 122,-197.5 		"/>
		<polygon id="Stroke-1078_2_" class="st3" points="116.5,-197.5 116.5,-185.4 122,-185.4 122,-197.5 		"/>
		<polygon id="Fill-1079_7_" class="st2" points="110.9,-197.5 110.9,-185.4 116.5,-185.4 116.5,-197.5 		"/>
		<polygon id="Stroke-1080_7_" class="st3" points="110.9,-197.5 110.9,-185.4 116.5,-185.4 116.5,-197.5 		"/>
		<polygon id="Fill-1081_7_" class="st2" points="105.5,-197.5 105.5,-185.4 111,-185.4 111,-197.5 		"/>
		<polygon id="Stroke-1082_7_" class="st3" points="105.5,-197.5 105.5,-185.4 111,-185.4 111,-197.5 		"/>
		<polygon id="Fill-1083_9_" class="st2" points="100,-197.5 100,-185.4 105.5,-185.4 105.5,-197.5 		"/>
		<polygon id="Stroke-1084_9_" class="st3" points="100,-197.5 100,-185.4 105.5,-185.4 105.5,-197.5 		"/>
		<polygon id="Fill-1085_9_" class="st2" points="94.6,-197.5 94.6,-185.4 100.1,-185.4 100.1,-197.5 		"/>
		<polygon id="Stroke-1086_9_" class="st3" points="94.6,-197.5 94.6,-185.4 100.1,-185.4 100.1,-197.5 		"/>
		<polygon id="Fill-1087_9_" class="st2" points="89,-197.5 89,-185.4 94.6,-185.4 94.6,-197.5 		"/>
		<polygon id="Stroke-1088_9_" class="st3" points="89,-197.5 89,-185.4 94.6,-185.4 94.6,-197.5 		"/>
		<polygon id="Fill-1089_11_" class="st2" points="83.6,-197.5 83.6,-185.4 89.1,-185.4 89.1,-197.5 		"/>
		<polygon id="Stroke-1090_11_" class="st3" points="83.6,-197.5 83.6,-185.4 89.1,-185.4 89.1,-197.5 		"/>
		<polygon id="Fill-1089_10_" class="st2" points="78.1,-197.5 78.1,-185.4 83.6,-185.4 83.6,-197.5 		"/>
		<polygon id="Stroke-1090_10_" class="st3" points="78.1,-197.5 78.1,-185.4 83.6,-185.4 83.6,-197.5 		"/>
	</g>
	<polygon id="Fill-1083_8_" class="st2" points="91,49.5 91,61.6 96.5,61.6 96.5,49.5 	"/>
	<polygon id="Stroke-1084_8_" class="st3" points="91,49.5 91,61.6 96.5,61.6 96.5,49.5 	"/>
	<polygon id="Fill-1085_8_" class="st2" points="85.6,49.5 85.6,61.6 91.1,61.6 91.1,49.5 	"/>
	<polygon id="Stroke-1086_8_" class="st3" points="85.6,49.5 85.6,61.6 91.1,61.6 91.1,49.5 	"/>
	<polygon id="Fill-1087_8_" class="st2" points="80,49.5 80,61.6 85.6,61.6 85.6,49.5 	"/>
	<polygon id="Stroke-1088_8_" class="st3" points="80,49.5 80,61.6 85.6,61.6 85.6,49.5 	"/>
	<polygon id="Fill-1089_9_" class="st2" points="74.6,49.5 74.6,61.6 80.1,61.6 80.1,49.5 	"/>
	<polygon id="Stroke-1090_9_" class="st3" points="74.6,49.5 74.6,61.6 80.1,61.6 80.1,49.5 	"/>
	<polygon id="Fill-1077_1_" class="st2" points="66.5,49.5 66.5,61.6 72,61.6 72,49.5 	"/>
	<polygon id="Stroke-1078_1_" class="st3" points="66.5,49.5 66.5,61.6 72,61.6 72,49.5 	"/>
	<polygon id="Fill-1079_5_" class="st2" points="60.9,49.5 60.9,61.6 66.5,61.6 66.5,49.5 	"/>
	<polygon id="Stroke-1080_5_" class="st3" points="60.9,49.5 60.9,61.6 66.5,61.6 66.5,49.5 	"/>
	<polygon id="Fill-1081_5_" class="st2" points="55.5,49.5 55.5,61.6 61,61.6 61,49.5 	"/>
	<polygon id="Stroke-1082_5_" class="st3" points="55.5,49.5 55.5,61.6 61,61.6 61,49.5 	"/>
	<polygon id="Fill-1083_7_" class="st2" points="50,49.5 50,61.6 55.5,61.6 55.5,49.5 	"/>
	<polygon id="Stroke-1084_7_" class="st3" points="50,49.5 50,61.6 55.5,61.6 55.5,49.5 	"/>
	<polygon id="Fill-1085_7_" class="st2" points="44.6,49.5 44.6,61.6 50.1,61.6 50.1,49.5 	"/>
	<polygon id="Stroke-1086_7_" class="st3" points="44.6,49.5 44.6,61.6 50.1,61.6 50.1,49.5 	"/>
	<polygon id="Fill-1087_7_" class="st2" points="39,49.5 39,61.6 44.6,61.6 44.6,49.5 	"/>
	<polygon id="Stroke-1088_7_" class="st3" points="39,49.5 39,61.6 44.6,61.6 44.6,49.5 	"/>
	<polygon id="Fill-1089_8_" class="st2" points="33.6,49.5 33.6,61.6 39.1,61.6 39.1,49.5 	"/>
	<polygon id="Stroke-1090_8_" class="st3" points="33.6,49.5 33.6,61.6 39.1,61.6 39.1,49.5 	"/>
</g>
</svg>
