<?xml version="1.0" encoding="utf-8"?>
<!-- Generator: Adobe Illustrator 21.0.0, SVG Export Plug-In . SVG Version: 6.00 Build 0)  -->
<svg version="1.1" id="图层_1" xmlns="http://www.w3.org/2000/svg" xmlns:xlink="http://www.w3.org/1999/xlink" x="0px" y="0px"
	 viewBox="0 0 308 217" style="enable-background:new 0 0 308 217;" xml:space="preserve">
<style type="text/css">
	.st0{fill:#098D97;stroke:#3CD5E5;stroke-width:3;}
	.st1{fill:#07172F;stroke:#3CD5E5;}
	.st2{fill:#095263;stroke:#3CD5E5;stroke-width:0.72;stroke-linecap:round;stroke-linejoin:round;}
	.st3{fill:#0C7454;}
	.st4{fill:none;stroke:#3CD5E5;stroke-width:0.72;stroke-linecap:round;stroke-linejoin:round;}
</style>
<title>新能源停车场</title>
<g id="页面-1">
	<g id="画板" transform="translate(-400.000000, -557.000000)">
		<g id="新能源停车场" transform="translate(400.000000, 557.000000)">
			<path id="矩形" class="st0" d="M7.5,1.5h293c3.3,0,6,2.7,6,6v202c0,3.3-2.7,6-6,6H7.5c-3.3,0-6-2.7-6-6V7.5
				C1.5,4.2,4.2,1.5,7.5,1.5z"/>
			<path id="Fill-963" class="st1" d="M286.1,21v174.7h-72.9H20V25.5l0.2-0.9c0.3-1.6,1.6-2.9,3.3-3.3l0.9-0.1L286.1,21"/>
			<polygon id="Fill-965" class="st2" points="28.4,48.3 28.4,150.3 116.3,150.3 116.3,156.8 135.7,156.8 135.7,154.5 147.5,154.5 
				147.5,150.3 214.3,150.3 214.3,156.8 258.8,156.8 258.8,48.3 			"/>
			<g id="编组-11" transform="translate(24.000000, 176.000000)">
				<polygon id="Fill-985" class="st3" points="66,13.1 72.5,13.1 72.5,0 66,0 				"/>
				<polygon id="Stroke-986" class="st4" points="66,13.1 72.5,13.1 72.5,0 66,0 				"/>
				<polygon id="Fill-987" class="st3" points="72.5,13.1 79.1,13.1 79.1,0 72.5,0 				"/>
				<polygon id="Stroke-988" class="st4" points="72.5,13.1 79.1,13.1 79.1,0 72.5,0 				"/>
				<polygon id="Fill-989" class="st3" points="79.1,13.1 85.6,13.1 85.6,0 79.1,0 				"/>
				<polygon id="Stroke-990" class="st4" points="79.1,13.1 85.6,13.1 85.6,0 79.1,0 				"/>
				<polygon id="Fill-991" class="st3" points="85.6,13.1 92.2,13.1 92.2,0 85.6,0 				"/>
				<polygon id="Stroke-992" class="st4" points="85.6,13.1 92.2,13.1 92.2,0 85.6,0 				"/>
				<polygon id="Fill-991_1_" class="st3" points="92.2,13.1 98.8,13.1 98.8,0 92.2,0 				"/>
				<polygon id="Stroke-992_1_" class="st4" points="92.2,13.1 98.8,13.1 98.8,0 92.2,0 				"/>
				<polygon id="Fill-999" class="st3" points="33,13.1 39.5,13.1 39.5,0 33,0 				"/>
				<polygon id="Stroke-1000" class="st4" points="33,13.1 39.5,13.1 39.5,0 33,0 				"/>
				<polygon id="Fill-1001" class="st3" points="39.5,13.1 46.1,13.1 46.1,0 39.5,0 				"/>
				<polygon id="Stroke-1002" class="st4" points="39.5,13.1 46.1,13.1 46.1,0 39.5,0 				"/>
				<polygon id="Fill-1003" class="st3" points="46.1,13.1 52.7,13.1 52.7,0 46.1,0 				"/>
				<polygon id="Stroke-1004" class="st4" points="46.1,13.1 52.7,13.1 52.7,0 46.1,0 				"/>
				<polygon id="Fill-1005" class="st3" points="52.7,13.1 59.3,13.1 59.3,0 52.7,0 				"/>
				<polygon id="Stroke-1006" class="st4" points="52.7,13.1 59.3,13.1 59.3,0 52.7,0 				"/>
				<polygon id="Fill-1007" class="st3" points="59.3,13.1 66,13.1 66,0 59.3,0 				"/>
				<polygon id="Stroke-1008" class="st4" points="59.3,13.1 66,13.1 66,0 59.3,0 				"/>
				<polygon id="Fill-1009" class="st3" points="19.8,13.1 26.3,13.1 26.3,0 19.8,0 				"/>
				<polygon id="Stroke-1010" class="st4" points="19.8,13.1 26.3,13.1 26.3,0 19.8,0 				"/>
				<polygon id="Fill-1011" class="st3" points="26.3,13.1 33,13.1 33,0 26.3,0 				"/>
				<polygon id="Stroke-1012" class="st4" points="26.3,13.1 33,13.1 33,0 26.3,0 				"/>
				<polygon id="Fill-1035" class="st3" points="13.2,13.1 19.8,13.1 19.8,0 13.2,0 				"/>
				<polygon id="Stroke-1036" class="st4" points="13.2,13.1 19.8,13.1 19.8,0 13.2,0 				"/>
				<polygon id="Fill-1037" class="st3" points="6.6,13.1 13.2,13.1 13.2,0 6.6,0 				"/>
				<polygon id="Stroke-1038" class="st4" points="6.6,13.1 13.2,13.1 13.2,0 6.6,0 				"/>
				<polygon id="Fill-1039" class="st3" points="0,13.1 6.6,13.1 6.6,0 0,0 				"/>
				<polygon id="Stroke-1040" class="st4" points="0,13.1 6.6,13.1 6.6,0 0,0 				"/>
			</g>
			<g id="编组-12" transform="translate(123.000000, 176.000000)">
				<polygon id="Fill-995" class="st3" points="6.6,13.1 13.2,13.1 13.2,0 6.6,0 				"/>
				<polygon id="Stroke-996" class="st4" points="6.6,13.1 13.2,13.1 13.2,0 6.6,0 				"/>
				<polygon id="Fill-997" class="st3" points="13.2,13.1 19.8,13.1 19.8,0 13.2,0 				"/>
				<polygon id="Stroke-998" class="st4" points="13.2,13.1 19.8,13.1 19.8,0 13.2,0 				"/>
				<polygon id="Fill-1013" class="st3" points="65.9,13.1 72.4,13.1 72.4,0 65.9,0 				"/>
				<polygon id="Stroke-1014" class="st4" points="65.9,13.1 72.4,13.1 72.4,0 65.9,0 				"/>
				<polygon id="Fill-1015" class="st3" points="72.5,13.1 79.2,13.1 79.2,0 72.5,0 				"/>
				<polygon id="Stroke-1016" class="st4" points="72.5,13.1 79.2,13.1 79.2,0 72.5,0 				"/>
				<polygon id="Fill-1017" class="st3" points="79.1,13.1 85.6,13.1 85.6,0 79.1,0 				"/>
				<polygon id="Stroke-1018" class="st4" points="79.1,13.1 85.6,13.1 85.6,0 79.1,0 				"/>
				<polygon id="Fill-1019" class="st3" points="85.7,13.1 92.3,13.1 92.3,0 85.7,0 				"/>
				<polygon id="Stroke-1020" class="st4" points="85.7,13.1 92.3,13.1 92.3,0 85.7,0 				"/>
				<polygon id="Fill-1021" class="st3" points="33,13.1 39.5,13.1 39.5,0 33,0 				"/>
				<polygon id="Stroke-1022" class="st4" points="33,13.1 39.5,13.1 39.5,0 33,0 				"/>
				<polygon id="Fill-1023" class="st3" points="39.5,13.1 46.2,13.1 46.2,0 39.5,0 				"/>
				<polygon id="Stroke-1024" class="st4" points="39.5,13.1 46.2,13.1 46.2,0 39.5,0 				"/>
				<polygon id="Fill-1025" class="st3" points="46.2,13.1 52.7,13.1 52.7,0 46.2,0 				"/>
				<polygon id="Stroke-1026" class="st4" points="46.2,13.1 52.7,13.1 52.7,0 46.2,0 				"/>
				<polygon id="Fill-1027" class="st3" points="52.7,13.1 59.3,13.1 59.3,0 52.7,0 				"/>
				<polygon id="Stroke-1028" class="st4" points="52.7,13.1 59.3,13.1 59.3,0 52.7,0 				"/>
				<polygon id="Fill-1029" class="st3" points="59.3,13.1 65.9,13.1 65.9,0 59.3,0 				"/>
				<polygon id="Stroke-1030" class="st4" points="59.3,13.1 65.9,13.1 65.9,0 59.3,0 				"/>
				<polygon id="Fill-1031" class="st3" points="19.8,13.1 26.3,13.1 26.3,0 19.8,0 				"/>
				<polygon id="Stroke-1032" class="st4" points="19.8,13.1 26.3,13.1 26.3,0 19.8,0 				"/>
				<polygon id="Fill-1033" class="st3" points="26.4,13.1 33,13.1 33,0 26.4,0 				"/>
				<polygon id="Stroke-1034" class="st4" points="26.4,13.1 33,13.1 33,0 26.4,0 				"/>
			</g>
			<g id="编组-13" transform="translate(20.000000, 189.000000)">
				<line id="Stroke-967" class="st4" x1="23.6" y1="0" x2="23.6" y2="6.6"/>
				<line id="Stroke-968" class="st4" x1="22.3" y1="0" x2="22.3" y2="6.6"/>
				<line id="Stroke-969" class="st4" x1="42" y1="0" x2="42" y2="6.6"/>
				<line id="Stroke-970" class="st4" x1="40.7" y1="0" x2="40.7" y2="6.6"/>
				<line id="Stroke-971" class="st4" x1="60.4" y1="0" x2="60.4" y2="6.6"/>
				<line id="Stroke-972" class="st4" x1="59.1" y1="0" x2="59.1" y2="6.6"/>
				<line id="Stroke-973" class="st4" x1="78.9" y1="0" x2="78.9" y2="6.6"/>
				<line id="Stroke-974" class="st4" x1="77.5" y1="0" x2="77.5" y2="6.6"/>
				<line id="Stroke-975" class="st4" x1="96.1" y1="1.4" x2="96.1" y2="6.6"/>
				<line id="Stroke-976" class="st4" x1="97.4" y1="1.4" x2="97.4" y2="6.6"/>
				<line id="Stroke-977" class="st4" x1="115.8" y1="0" x2="115.8" y2="6.6"/>
				<line id="Stroke-978" class="st4" x1="114.5" y1="0" x2="114.5" y2="6.6"/>
				<line id="Stroke-979" class="st4" x1="134.2" y1="0" x2="134.2" y2="6.6"/>
				<line id="Stroke-980" class="st4" x1="132.9" y1="0" x2="132.9" y2="6.6"/>
				<line id="Stroke-981" class="st4" x1="152.7" y1="0" x2="152.7" y2="6.6"/>
				<line id="Stroke-982" class="st4" x1="151.3" y1="0" x2="151.3" y2="6.6"/>
				<line id="Stroke-983" class="st4" x1="171.2" y1="0" x2="171.2" y2="6.6"/>
				<line id="Stroke-984" class="st4" x1="169.8" y1="0" x2="169.8" y2="6.6"/>
				<polyline id="Stroke-1042" class="st4" points="0,1.4 193,1.4 193,6.6 				"/>
			</g>
		</g>
	</g>
</g>
</svg>
